<?xml version="1.0" encoding="UTF-8"?>
<svg xml:space="preserve" id="gwmroot" preserveAspectRatio="xMidYMid meet" viewBox="0 0 9014 2936" xmlns="http://www.w3.org/2000/svg" xmlns:xlink="http://www.w3.org/1999/xlink" xmlns:gmwmsvg="http://www.intergraph.com/GeoMedia/wmsvg" style="stroke-linejoin:round">
<script type="text/javascript" id="gwmlegendscript"><![CDATA[
var _GWMLegendDisplayOrder = [
{name : "10", title : "Erhaltungssatzung", locatable :true, leaf : true, hotspot : false, members : [
]}
];
var _GWMLegendGroup = [
{name : "10", title : "Erhaltungssatzung", members : [
]}
];
]]></script>
<defs id="gwmdefs">
<filter id="HaloV1x3k8b" filterUnits="objectBoundingBox" x="-20%" y="-20%" width="140%" height="140%">
<feColorMatrix in="SourceAlpha" result="color" type="matrix" values="0 0 0 0 0.13 0 0 0 0 0.00 0 0 0 0 0.24 0 0 0 1 0"/>
<feMorphology in="color" radius="0.00,0.00" operator="dilate" result="outline"/>
<feComposite in="SourceGraphic" in2="outline"/>
</filter>
<filter id="HaloV1x3k8a" filterUnits="objectBoundingBox" x="-20%" y="-20%" width="140%" height="140%">
<feColorMatrix in="SourceAlpha" result="color" type="matrix" values="0 0 0 0 0.00 0 0 0 0 0.00 0 0 0 0 0.00 0 0 0 1 0"/>
<feMorphology in="color" radius="16175315.14,16175315.14" operator="dilate" result="outline"/>
<feComposite in="SourceGraphic" in2="outline"/>
</filter>
<path d="M0 0l1 0 0 1-1 0zM2 1l1 0 0 1-1 0z" id="_P9"/>
<pattern id="_V1x3k8a" patternUnits="userSpaceOnUse" x="0" y="0" width="4" height="2" style="stroke:none;fill:#3399ff">
<use xlink:href="#_P9"/>
</pattern>
<pattern id="_P9-H-" patternUnits="userSpaceOnUse" x="0" y="0" width="4" height="2" style="stroke:none;fill:#00ffff">
<use xlink:href="#_P9"/>
</pattern>
<pattern id="_V1x3k8a" patternUnits="userSpaceOnUse" x="0" y="0" width="4" height="2" style="stroke:none;fill:#3399ff">
<use xlink:href="#_P9"/>
</pattern>
<pattern id="_P9-S-" patternUnits="userSpaceOnUse" x="0" y="0" width="4" height="2" style="stroke:none;fill:#00ff00">
<use xlink:href="#_P9"/>
</pattern>
<path id="V1x3k8bM" d="M3583.65 1626.83l 1.17-1.52 .80-1.12 1.17-1.62-2.38-1.72-1.02-.73-1.16 1.55-.76 1.02-1.17 1.48-1.45 1.83-1.06 1.37-1.72 1.93-1.65 1.78-1.16 1.24-1.77 1.82-2.70 2.52-1.79 1.58-1.87 1.58-1.45 1.21-1.91 1.52-1.49 1.14-1.01 .76 .29 2.51 2.35 3.32 2.18-1.54 1.59-1.21 1.98-1.55 1.57-1.29 1.93-1.63 1.94-1.72 1.95-1.83 2.16-2.13 1.83-1.90 1.67-1.90 1.43-1.55 1.62-1.90 1.39-1.75-1.49-1.54"/>
<path id="V1x3k8bL" d="M3631.33 1669.20l-.62-10.97-.79-14.66 .12-2.14-15.35-1.74-5.81-1.16-1.30-.93-1.20 1.64-1.73 1.52-7.64 22.33 6.93 1.30 4.66 .81 3.68 .56 4.83 .83 1.89 .46 1.68 .13 2.22 .52 4.49 .80 3.93 .69"/>
<path id="V1x3k8bK" d="M4414.00 1678.19l-3.31 2.94-8.00 6.68-5.23 4.39 2.88 3.51 1.46 1.75 2.53 3.05 1.48 1.76 2.37 2.89 1.09 2.40 .86 1.90 1.30 .24 1.87 1.67 .58 1.28 1.04 .70 4.62 5.45 1.11 1.98 2.14 2.11 1.53 1.84 3.82 4.62 1.93 2.34 2.17 2.62 3.91 4.80 5.00-1.21 2.93-1.08 2.31-.82 2.44-.99 1.24-.45 1.64-1.41 1.39-1.19 4.15-4.02 1.64-1.06 1.97-1.14 5.25-3.12 1.76-1.05 1.35 2.24 2.08 2.68 .98 1.25 2.86 3.70 2.15 2.74 1.31 1.69 1.16 1.49 5.48-4.34 1.10 1.19 1.42 1.60 1.01 .05 1.07-.48 1.07-.54 1.07-.60 1.07-.66 1.06-.70 1.16-.79 1.14-.83 1.11-.83 1.09-.87 3.74-3.06 1.63-1.27-1.09-1.19 1.53-2.42 .49-1.17-.07-2.27-.33-3.39-2.27-1.03-1.64-1.56-3.08-2.92-.93-1.02 1.50-2.82-2.00-1.83-1.81-1.59 3.81-4.09 3.31 1.05 1.33 .67 2.51 1.24 1.48-2.79 .97-1.76 1.16-2.15 .95-1.74 1.19-2.21-1.88-1.31-1.44-1.03-1.28-1.71 1.50-.98-.28-2.41 2.75-1.93 1.80-1.27 1.16-.81 1.97-2.66-2.15-1.43-1.73-.83-1.27-.61-1.05-.50-1.42-.70-2.00-.96-1.48-.71-1.94-.93-1.94-.93-1.65-.79-1.68-.81-2.20-1.04L4491.54 1664.34l-4.86-2.13-2.01-.88-2.07-.91-2.03-.89-2.43-1.05-1.66-3.52 .72-2.62-.70-2.03-.40-1.68-.48-1.48-2.46 .93-1.61 .62-1.57 .56-2.41 .87-2.89 1.06-2.07 .79-1.89 .69-1.64 .60-1.63 .70-3.58 1.51-7.46 1.96-1.48 .47-8.00 2.58-2.26 .72-2.37 .76-4.21 .33-1.78 .73-1.04 .54-5.85 1.42-6.20 .94-2.22 .31-4.01 1.02 .73 1.18 3.39 5.41 2.47 3.79"/>
<path id="V1x3k8bJ" d="M4272.34 1836.95l 1.45-1.73 1.61-1.88-1.46-.92-1.40-.92-1.49-1.16-1.30-1.06-1.02-.87-4.07-3.44-1.41-1.19-.94 1.10-.96 1.11-4.13-3.49-1.67-2.63-2.15-2.07-1.11-.83-1.94-1.66-1.59-1.09-2.16-2.69-3.20-3.99-3.40-4.25-1.32-1.65-5.68-1.53-1.76-.82 1.37-1.59-.54-2.34-.53-2.32 .81-1.73 .57-1.20 .56-1.18 .82-1.70-5.66-2.69-1.27-.59-1.31-.55-6.40-2.98-.74 1.55-.50 1.07-.49 1.05-.49 1.01-.49 1.03-.74 1.55-.75 1.57-.96 2.02-.72 1.53-.74 1.55-.49 1.03-.50 1.05-.49 1.03-.98 2.06-.50 1.03-.94 1.99-1.11 2.28-6.36-1.84-3.34-1.46-1.16-.58-1.18-.59-1.17-.59-1.18-.59-1.18-.59-2.50-1.19-3.41-1.77-2.50-1.24-3.24-1.59-1.16 .58-1.64 1.61-1.62 1.56-1.59 1.57-1.41 1.38-1.59 1.59-1.45 1.69-1.50 1.75-1.47 1.69-1.03 1.19-1.50 1.47 3.35 2.97 2.00 1.77 1.57 1.38 1.11 .01 1.66 .01 12.38 10.23 8.61 7.44 1.07 .92 1.11 .86 1.16 .82 1.05 .68 1.07 .62 1.10 .59 1.11 .52 1.15 .51 1.15 .45 1.17 .41 11.90 4.03 3.44 1.18 1.03 .44 1.08 .62 1.00 .74 1.03 .15 1.55 1.30 8.02 6.87L4238.05 1855.67l 1.01 .23 3.63 .25 1.04 .03 1.02 .15 1.02 .21 1.11 .37 1.07 .47 1.02 .56 1.07 .72 2.22 1.80 1.09-1.33 1.06-1.23 1.42-1.65 2.01-2.36 1.18-1.38 1.44-1.71 1.87-2.19 1.10-1.30 1.47-1.71 1.14-1.30 1.10-1.29 1.05-1.23 .88-1.04 1.00-1.19 1.13-1.29 1.13-1.31"/>
<path id="V1x3k8bI" d="M4021.03 2347.24l-.63-2.04-.31-1.00-2.20-2.25-1.26-1.29 .18-1.87 .42-4.47-6.46-.67 .37-3.41 1.13-10.12-2.14-1.82-2.01-3.18-.91-1.79-.93-1.51 1.60-1.19-1.92-2.90-1.73-2.47-1.80-2.55-1.50-2.11-1.22-1.77-.99-1.31-1.43-1.93-.95-1.29-.98-1.33-.96-1.29-1.95-2.63-2.21-2.78-1.16-1.48-.82-3.85-2.35-5.84-.85-1.61-10.48 5.33-5.47 2.00 1.28 3.19 2.59 7.01 1.05 1.19 .89 2.86 .27 1.17 .40 1.37 1.30 2.20 1.59 1.94 .71 1.08 .89 1.32-1.17 .53-3.50 1.81-3.08 1.60-4.02 2.09-4.72 16.69-.63 2.63 3.93-1.31 2.91-.97 11.70-4.19 4.25 5.72 1.32 1.91 2.42 3.50 .51 1.06 .80 1.84 .58 1.18 3.59 8.25 3.18 5.60 1.67-.59 2.14-1.78 1.44 .86 1.52 .93 1.10 .95 1.83 .25 2.27 .10 4.44-.59 1.33-.34 3.60-1.30 1.35-.17 .21-2.82"/>
<path id="V1x3k8bH" d="M4774.50 2449.87l 11.09 .36 8.14-1.67 1.98-2.44-1.07-2.71-4.18-8.90-1.14-2.41-1.42-3.01-1.33-2.83-1.27-2.69-.84-1.78-1.68-3.10-5.82 .13-1.84 .18-8.08 .83-2.53 .26-6.27 .68-.26-4.14-.65-11.81 .06-3.40-2.30-.13-5.64-.05-5.68-.09-2.99-.01-5.69-.07-5.69-.05-2.92-.05-5.69-.05-5.64-.08-2.99-.03-6.04-.06-1.04-.01-5.32-.06-4.57 .12-.25 3.10-1.22 11.20-.37 3.39-.93 8.67-.56 5.10-.56 5.08-.58 5.38-.44 6.15 .47 17.96 3.26 .17 15.42 .41-.12 7.46 2.11 2.34 25.29 .70 8.44-.15 7.47 .24 4.05 .12 3.05 .11 3.04 .09 5.30 .15 4.22 .01 1.26-.81 .75-1.08 .34-1.09 .22-6.21-5.04-.20 .83-2.83 3.09-14.06 .77-2.34"/>
<path id="V1x3k8bG" d="M4725.81 2779.16l .15 1.42 1.13 .84 1.99 .90 2.14 .54 1.79-.01 1.23-.16 3.21-.20 1.74-.09 1.84-.12 2.25-.25 1.40-.14 1.76-.13 1.72-.13 2.52-.28 1.21-.16 2.69-.24 2.88-.04 1.77-.09 4.07-.20 .19 1.17 1.71 .24 1.58 .14 1.63 0 1.41-.02 1.69-.13 2.52-.32 1.33-.13 1.10-.15 1.51-.26 1.09-.22 .25-2.67-.43-1.53-.40-3.58 .32-1.64 1.47-.33 2.00 .54 2.90 .79 2.23 1.32 1.29 .28 1.00 .20 2.61 .26 1.69 .16 1.93 .19 1.32 .27 1.31 .13 2.42 .31 1.11 .14-.16-1.80-.12-1.18-.24-2.25-.92-1.40-.63-1.00-.63-1.04-.77-1.28-.88-1.34-.95-1.43-.17 1.88-1.32-.49-1.79-.68-2.00-2.16-2.05-2.26-2.91-2.58 1.90-2.44 1.34-1.71 1.52-1.96-1.39-1.42 1.50-2.41 2.73-.42-.13-1.99-1.15-1.79 5.58-.07 1.19-.02-.56-2.88-.76-1.47 .50-1.66-1.28-1.45-.73-1.30-2.47 .27-2.21-1.29-1.92-1.39-1.14-1.31-3.63-1.89-3.42-1.77-2.18-1.15-3.00-3.02-1.96 1.60-.95 1.12-1.05-1.24-1.34-.81-1.79 2.99-3.83 4.98-1.55 1.93-1.03 1.25-1.31 1.66-1.48 1.84-1.91 1.19-1.31 1.24-1.00 .94L4755.13 2742.09l-2.91-3.09-4.60 4.49-1.16 1.56-.99 1.33 1.19 1.06 1.80 1.29-1.27 1.66-1.04 1.33-1.76 2.17-1.46 1.83-1.82 1.30-2.25 .62-1.79 1.68-1.26 1.22-1.24 1.21-2.37 2.23-2.18 1.87-2.06 2.79-.21 1.06-.61 3.56-.36 1.90-.69 2.34-.28 1.66"/>
<path id="V1x3k8bF" d="M4797.42 1233.96l 3.04 10.34 36.31-6.25-2.14-14.07-10.22 1.81-9.33 1.58-3.07 .68-2.06 .73-1.72 .62-3.72 1.60-7.09 2.96"/>
<path id="V1x3k8bE" d="M4726.59 1310.22l 2.86 14.91 24.86-1.18 2.10 4.61 6.24-.27 6.43-.15 2.58-.15 15.02-.20 5.46-.09-1.44-16.39-2.85-.59-6.99-.30-5.96-.03-2.73-0-23.28-.10-21.80-.06"/>
<path id="V1x3k8bD" d="M4451.06 1613.67l .93-9.77-7.09-.74-1.34 1.83-1.27 .57-4.06 1.73 1.24 2.77-10.11 4.60-15.07 1.31-1.20-1.57-1.19-1.55-1.17-1.53-3.70 2.67-2.31 1.68-3.25 2.35 .90 1.23 1.59 2.17 1.65 2.25 1.31 1.81 2.50 3.81 3.73 5.38-1.82 1.27-1.17 .83 .05 1.16-1.18 1.85 1.11 1.53 3.03 4.26 1.56 2.35 5.20 11.82 4.63 .02 2.20-.55 3.62-1.25-.68-1.40 5.10-2.35 1.04-.50 3.86-1.78-1.13-2.43-.72-1.52-.70-1.53-1.20-2.59-1.05-2.16-1.00-2.04-.54-1.35-1.10-2.18-2.37-4.60 1.72-.85 3.91 .27 5.64-2.61-.91-1.86-.48-1.04-.64-1.38-1.01-2.14 3.35-1.24 1.14-.44 1.68-.72 2.08-1.00 1.52-.74 1.89-.95 2.31-1.11-1.07-2.08"/>
<path id="V1x3k8bC" d="M4387.07 1523.50l .21 5.21 .29 3.79 .27 2.89 2.67-.18 1.85-.12 3.02-.21 2.07-.14 2.08-.13 3.16-.20 2.66-.18 2.79-.23 3.26-.34 3.24-.30 3.64-.27 3.88 .15 1.79 .09 2.99 .13 2.03-.83 2.30-.21 2.18-.21-.09-1.46 1.68 .07 2.78 .10 .55 1.89 1.10 3.67 .54 1.79 1.37-.39 2.63-.79 .81 2.72 .78 2.70 .42 1.37 .32 1.07 .48 1.63 .39 1.35 .81 2.74 2.54-.75 .42 1.37 .39 1.33 .41 1.37 .43 1.35 .51 1.55 .27 1.13 .65 2.28 1.43 .40 4.07 .24 9.20-1.16 1.06 .06 1.09 .21 5.73 1.84 1.08 .34 .42-1.30 .96-2.49 .57-1.70 .66-1.97 .54-1.66 .41-1.27-.22-1.60-.16-1.40-.17-1.42-.18-1.42-.54-4.19-.18-1.42 .04-1.00-.13-1.07-.27-2.13-.40-1.41-.39-3.10-.18-1.40-.18-1.40-.17-1.38-.18-1.40-1.64 .21-.20-1.48-.20-1.50-1.03-1.57-.13-1.07-.13-1.12 2.29-.05 2.08-.02 2.18 .02 2.23 .06 1.21 .06 1.61 .08 1.62 .11 2.54 .25 1.56 .16 3.56 .52 1.16 .19 2.36 .51-.49-4.29-1.38-4.52-6.19-19.12-4.36-6.02-7.71-6.56-1.56-1.31-.60-1.08 4.58-6.86 .81-1.18L4482.65 1469.12l 12.21-3.93-5.11-15.77 1.78-.58-1.40-4.34-4.05 1.33-14.95 4.84-5.18 8.76-4.71 5.51-1.23 .40-6.49-5.46-3.43-2.92-1.27-1.10-4.84-2.11-1.42 .13-4.06 .90-7.64 1.74-10.32 1.17-1.37 1.61-3.01 3.49-1.53 1.77-2.88 3.35-1.19 1.38-1.57 1.79-1.63 1.91-1.09 1.27-.95 1.11-.97 1.14-1.78 2.08-2.61 3.05-1.13 1.31-1.05 1.22-1.84 2.15-1.65 1.93-5.70 6.65-9.12 5.42 1.88 2.71 4.51 7.43 .59 6.27 .63 6.75"/>
<path id="V1x3k8bB" d="M4322.40 1491.75l 6.64-3.09 1.88-.89 2.65-3.94 1.60 1.03 3.05-4.77 3.76 2.45 2.18-1.02 4.90-7.53 4.80 3.14 .96-1.31 3.44-5.33-2.27-1.46-3.38-2.19-3.07-1.98-2.39-1.55-2.66-1.71-3.24-2.08-2.90-1.85-2.80-1.80-3.48 5.13-.93 1.41-3.66-2.31-9.08 14.02-4.38 6.76 8.38 10.87"/>
<path id="V1x3k8bA" d="M4101.31 1524.71l .90-3.20 2.42-4.87-2.84-4.75-1.64-2.74-.92-1.54-.93-1.55-1.08-1.82-1.16-1.94-1.15-1.94-1.06-1.80-.76-1.24-1.25-2.08-.98-1.64-1.32-2.19-1.18-1.96-1.18-1.96-1.11-1.86-1.04-1.70-1.10-1.86-2.75-4.65-4.47-8.60-1.24 .47-1.01 .42-4.16 1.63-2.46 .97-2.94 1.15-7.31 2.22 1.13 3.62-2.68 11.69-.55 3.92-.22 1.63-.22 1.53-.24 1.76-.27 1.96 .39 4.36-.66 1.87-.58 1.62-.88 2.47-1.90 5.34 1.86 .53 1.93 .53 2.66 .31 8.41 1.00 1.61 .21 1.06 .11 5.52 .70 .55 1.60 6.08 .77 1.64-.64 1.97 .22 1.17 .11 2.25 .26 3.17 .37 1.09 .13 1.22 .14 1.82 .21 1.71 .21 2.04 .22 2.64 .31"/>
<path id="V1x3k8bz" d="M4021.21 1381.40l 1.37-1.10 2.22-1.78 1.56-1.00-.61-1.57-.90-1.62-2.18-3.90-3.96 2.38-1.36 .79-2.16 .21-1.47 1.10-1.48 1.10-1.49 1.12-1.44 1.08-1.82 1.38-1.68 1.25-2.69 2.05-1.58 1.19-1.57 1.19-1.59 1.19-1.57 1.19-1.97 1.47-2.42 1.82 1.81 1.82 1.57 .82 1.23 .65 1.66 .84 1.63 .86 1.75 .90 1.84-1.20 1.08-.89 1.44-1.20 1.06-.85 1.58-1.31 1.62-1.35 1.23-1.01 1.94-1.58 1.66-1.37 1.33-1.10 2.93-2.35 1.43-1.20"/>
<path id="V1x3k8by" d="M3985.86 1182.57l 1.32 4.78 2.61 4.55 2.06 3.90 .70 1.10 3.79 6.38 7.50 12.52 3.76 7.75 9.62 15.70 2.97-.58 32.81 9.23 7.29 2.08 3.34 1.86 21.30 14.90 22.94 16.25 2.69 2.05 2.36 1.53 1.65 1.19 25.10-40.40-20.68-6.05-5.13-1.75 3.26-10.96 4.27-20.69 3.29 .76 8.06 1.66 1.77 .17 .52-5.10 1.21-5.81 7.34 .45 1.09-10.41 .21-4.33 17.13-1.47 2.81-1.09 3.31-2.34-.23-4.02-5.22-1.25-3.93-.94-10.31-1.95-5.85-.98-4.15-.39-9.09-.27-5.06-.06-8.81-.39-12.42 .02-11.52-.09-16.14-.38-22.02-.76-32.47 .21-6.45 .54-5.45 .81-2.27 .45-5.09 1.83-2.66 1.14-5.14 2.76-1.23 .74-3.58 2.48-3.19 2.67"/>
<path id="V1x3k8bx" d="M3998.08 1358.65l 3.54-.78-3.39-1.95-3.03-.90-1.80-.53-2.10-.62-1.89-.55-1.95-.57-1.95-.57-1.94-.57-1.80-.41-2.40-.51-2.95-.27-7.64-1.98-1.45-.32-1.83-.39-1.44-.30-2.07-.43-1.61-.34-2.94-.42-1.75-.25-1.75-.25-1.74-.25-1.76-.25-3.15-.43-3.15-.47-6.09-.85-1.55-.22-2.65-.22-1.71-.15-2.25-.19-1.07-.09-3.66-.31-2.91-.24-1.21-.10-2.92-.24-2.27-.19-3.12-.19-1.76-.09-1.57-.11-1.85-.11-2.52-.15-3.92-.20-1.85-.11-2.71-.16-1.35 8.30-1.52 3.21 .42 14.14-.05 2.54-2.53-.27-11.62-1.73-3.91-.58-5.98-.93-1.13 3.68-1.08 3.23-1.72 6.70-.24 3.39 28.02 2.75-1.18 19.23-29.92-1.88-.08 2.91-.87 20.28-.20 5.88-0 5.05 .44 2.83 .53 3.94 .60 2.94 1.09 4.77 1.27 4.70 1.81 4.48 1.40-.63 3.42 6.32 2.73-.13 3.54-.19 2.72-.13 2.66-.14 2.56-.14 2.44-.12-.52 10.77 .61 2.55-.16 7.35 4.19 4.17 3.18 2.30 4.85-5.60 19.02-21.81-.59-6.45 4.08-18.84 .73-2.89 .11-2.68-5.28-.31 .62-12.04 3.71 .23 10.03-11.52 2.43 2.59 3.55 2.38 3.83 1.07 2.31-1.30-4.42-8.00-1.85-3.38L3943.78 1396.23l 2.49-3.13 5.82-6.73 1.92-2.21 1.86-2.15 1.10-1.28 .90-1.80 3.31 1.63 2.72-4.13 3.78-4.49 6.17-7.30 3.55-1.49 2.03-.45 1.90-.41 1.74-.38 1.98-.45 1.99-.43 2.00-.45 1.95-.41 2.09-.43 1.92-.41 3.07-.66"/>
<path id="V1x3k8bw" d="M3764.58 1460.98l-1.07 28.98 3.09 2.08 9.89-1.95 3.84-1.27 10.39-4.64 3.59-2.37 2.96-2.31 3.19-2.72 4.00-3.66 2.13-1.73 2.71-2.95 3.29-3.27 2.07-2.16 3.49-3.26-.97-4.00 1.37-2.24 3.13-3.03 7.30-7.36 1.22-1.44 3.38-4.29 3.01-3.98 3.23-4.65 1.69-2.86 .98-1.66 2.82-6.08 1.94-6.30 .50-3.55 1.32-9.33 .19-3.72 .20-4.62 .12-2.79 .13-2.99 .15-3.30 .99-17.39 .30-4.73 .17-2.83 .27-4.16 .62-6.10-2.27-.05-8.29 .36-13.24-2.19-2.24-.44-3.48-.56-2.82-.48-1.55-.24-1.81-.29-2.32-.29-2.46-.27-2.29-.27-1.76-.19-2.30-.27-2.06-.08-3.01-.48-2.76-.30-1.68-.19-8.14-.93-1.50-.16-2.73-.30-2.74-.32-3.18-.35-6.70-.81-2.00 4.35-.82 21.59 3.06 .05-.36 9.85-3.01 .64-.96 25.95-.12 3.93-.99 26.62-.07 2.64-.69 19.64-.16 4.13-.17 4.34"/>
<path id="V1x3k8bv" d="M3689.40 1527.91l .35-2.94-1.54-.62-2.71-2.23-.43-1.73-1.72 .40-1.64 .40-2.18 .53-1.78 .42-1.87 .45-1.76 .42-2.04 .49-1.99 .47-1.97 .47-2.05 .49-1.98 .47-4.25 1.01-1.95 .47-1.21 .28-1.16 .28-1.68 .40-1.37 .33-1.38 .33-1.84 .44-1.22 .30-1.57 .39-2.12 .51-2.44 .60-3.05 .73-3.54 .11-1.96 .18-2.10 .17-2.12 .15-2.12 .15-2.14-.01-2.35-.07-2.15-.14-1.85-.15-1.80-.15-1.42-.12-3.56-.58-1.81-.19-1.63-.38-1.75-.41-1.93-.43-1.83-.41-1.92-.59-1.87-.69-1.96-.63-1.99-.69-2.03-.73-1.85-.94-1.85-1.10-1.84-1.10-1.69-1.05-1.39-.91-1.37-.89-1.48-.97-1.99-1.30-1.50 .94 1.19 5.84 .33 1.64 .52 2.56 1.37 1.18 3.01 2.63 1.54 1.35 1.53 1.19 1.66 1.23 1.70 1.26 1.50 1.12-2.46 2.61-3.71 3.79-2.59 2.66 2.09 1.68-6.11 5.44 2.62 2.82 2.13 1.80-1.23 1.16-.98 1.14 6.53 3.14-1.84 2.07-2.89 3.40-4.09 4.83 8.08 4.46-5.30 12.27 9.57 4.17 2.81-6.10 2.53 .77 7.98 3.65 4.58-10.76 2.01 .84 2.38-4.78 .50-2.72 5.68 2.42 2.31 1.47 2.98 1.43 12.08 1.92 3.84-3.80 4.98-5.73L3647.91 1573.22l 3.86-5.22 6.53-8.90 5.44-.27 2.78 .02 1.96 .04 1.79 .07 1.61 .05 1.99 .02 1.96 .18 2.16 .12 1.61 .19 1.60 .19 1.76 .29 2.30 .40 .59-2.22 .22-1.81 .20-1.77 .19-1.80 .18-1.75 .20-1.67 .21-1.67 .22-1.92 .20-1.75 .21-1.76 .25-2.14 .24-2.10 .26-2.12 .20-1.81 .29-2.39 .23-1.92 .24-1.92"/>
<path id="V1x3k8bu" d="M3616.01 1384.65l 4.36-10.11 .65-1.43 .59-1.31 1.24-2.73 .68-1.52 1.90-4.15 .52-1.14 .84-1.85 .95-2.08 .89-1.94 2.22-4.82-10.28-6.82-16.64-6.28-5.62 6.90-19.17 25.50-2.51 3.26-1.23-.92-10.14-7.37-13.96-10.10-6.48-4.68-5.62 7.67-5.74 7.87-.94 14.86-.25 3.35-.53 7.75-1.84 25.73 2.93 1.68 3.57 1.71-3.30 3.80-1.88 4.68 3.98 7.59 16.11 8.14 10.19 4.35 4.38 1.61 15.71 1.46 3.50 .36 12.92 1.23 2.44 .23 .46-2.92 .30-1.94 .27-1.75 .28-1.77 .34-2.22 .28-1.75 .28-1.73 .39-2.56 .40-2.49 .30-1.91 .27-1.72 .30-1.90 .31-1.93 .26-1.63 .54-3.32 .33-2.07 .28-1.76 .25-1.65 .26-1.65 .27-1.66 .24-1.64 .28-1.76 .28-1.75 .27-1.82 .28-1.83 .29-1.81 .29-1.86 .19-1.20 .51-3.24 2.49-4.76 .74-1.42 3.35-7.01"/>
<path id="V1x3k8bt" d="M3423.60 1426.40l-3.90-1.41-.67 1.88-.62 1.74 1.18 .03 1.04 .02 2.10-0 2.07-0 1.18-0 1.63-0 3.64 .09 1.28 .01 1.92 .02 1.86 .02 3.41 .04 1.17 .01 2.70 .03 1.15 .02 2.05 .02 1.64 .02 1.17 .02 9.47 2.00 2.31 .47 2.27 .46 1.34 .27 2.32-.46 1.07 1.53 6.64 1.95 1.73 .53 1.21 .37 1.23 .41 1.82 .55 2.74 .78 2.60 .85 .39-1.19 .31-1.25 .59-2.35 .85-3.44 3.70 .94 .90-5.26-1.53-.39-1.74-.43-1.53-.39-1.44-.37-1.45-.32-.90 1.03-3.37-.69-4.49-3.01 1.68-2.69-.14-2.65-.13-2.61-.13-2.49-.12-2.51-1.92 .10-2.08 .10-.25-4.72-.37-6.93-.09-1.20-.11-2.09-.09-3.63-3.23-.47-2.28-.35-1.58-.24-2.30-.35 .01-1.83 .01-1.40 .01-1.34 .01-2.23 .02-2.86 .01-1.33 .02-2.83 .01-1.96-1.46-1.50-1.33-1.37-1.37-1.42-1.44-1.47-1.56-1.66-.99-1.05-1.28-1.35-4.31 4.30-1.87 1.90-2.30 2.34-1.18 1.20-1.56 1.59-1.23 1.25-1.19 1.21-1.38 1.40-1.17 1.18-1.25 1.27-1.97 2.00-1.76 1.76-3.26 1.77 1.53 4.89-1.58-.21-1.88 2.83-1.47 2.21-1.48 2.23-1.25 1.88 4.03 3.60L3430.17 1403.06l 1.00 2.72 .38 1.04 1.05 2.87 .84 3.07 .36 1.34-3.28 1.37-2.40 .64-1.30 .35 .01 1.90 0 1.30 .02 3.13 .11 3.56-2.16 .04-1.22 .02"/>
<path id="V1x3k8bs" d="M3665.61 294.04l .04-1.28-.05-1.08-.04-1.02-.16-1.56-.12-1.28-.10-1.06-.48-2.16-.26-1.19-.64-2.01-.60-1.85-.52-1.61-.50-1.59-.36-1.09-.36-1.15-.42-1.31-.52-1.61-.47-1.49-.45-1.41-.78-1.05-5.30 1.65-2.61 .83-1.50 .47-2.50 .67-1.61 .19-1.46 .19-3.99 .49-1.09 .12-5.14 .26-4.53-.31-2.61-.38-2.83-.42-2.98-.35-2.90-.34-2.50-.33-1.58-.19-1.19-.16-2.67-.20-1.24-.16-.16 1.14-.23 1.64-.16 1.12-.15 1.04-.16 1.18-.24 1.67-.17 1.17-.12 1.67 0 1.91 .01 2.01-0 1.26-.01 1.14-0 2.14-.01 1.97-.01 1.22-0 1.36 0 1.10-0 1.30-.01 1.00-.01 1.38 5.98 .73-.10 4.60-.03 1.32 1.23 1.04 2.05 1.72 1.14 .78 1.60 1.09 1.72 1.04 1.10 .68 1.06 .56 3.03 1.61 1.51 .64 1.57 .70 1.15 .21 1.77 .33 1.13-.15 1.45 .46 1.65 .56 1.82 .47 1.47 .40 1.26 .33 1.29 .28 1.05 .21 1.40 .74 3.16 .51 2.39 .22 2.11 .16 3.88-.07 .11-1.74 .20-2.87 .07-1.02 .13-1.83 4.84-.39 .17-1.86 .10-1.18 .19-2.20 .17-2.10 .08-1.06 .13-1.47 .14-1.63L3662.44 297.86l 2.85-.11 .11-1.12 .13-1.33 .09-1.26"/>
<path id="V1x3k8br" d="M3644.18 820.56l 1.13-2.50 .83-1.84-2.89-3.49-1.92-2.32-1.44-1.70-1.59-1.92-2.10-2.50-2.64-3.13-2.76-3.08-2.03-2.21-1.84-2.08-3.09-4.76-.97-1.51-.86-1.32-1.12-1.73-1.88-2.87-1.97-3.03-.78-1.20-7.43-11.44-3.94-6.01-3.47-5.34-2.85-4.42-2.12-3.23-6.19-9.48-2.45-3.82-1.72-2.67-.65-1.00-.69-1.38-.49-1.33-2.06-5.47-.82-2.19-.46-1.23-.69-1.85-.77-2.01-1.03-2.77-1.05-2.81-.59-1.34-6.32-10.65-1.58-2.62-2.88-3.91-4.35 2.64-2.59 1.85-1.61 1.15-1.04 .74-4.18 3.10-2.90 2.00-5.90 4.76-6.01 4.81-1.68 1.37 1.75 1.45 1.54 1.29 1.89 1.65 1.24 1.06 1.36 1.18 1.43 1.24 1.81 1.63 1.18 1.08 1.86 1.67 2.23 2.04 1.54 1.46 2.52 2.40 1.55 1.50 4.93 4.89 1.03 1.02 .97 1.01 .97 1.01 .99 1.03 .98 1.02 1.48 1.56 1.44 1.50 2.92 3.16 1.84 2.02 .96 1.07 3.48 4.00 3.68 4.34 3.94 4.94 2.68 3.35 2.79 3.71 1.22 1.61 1.12 1.53 1.16 1.59 .95 1.35 1.68 2.37 1.36 1.93 1.29 1.93 3.78 5.63 2.10 3.29 1.65 2.57 1.62 2.65 1.67 2.83 .86 1.46 1.65 2.85 1.27 2.32 1.25 2.30 1.44 2.70 1.29 2.50 .79 1.60 1.72 3.59L3623.70 823.13l 1.09 2.37 1.06 2.47 .95 2.17 1.02 2.51 .52 1.26 .51 1.23 .70 1.93 1.18 3.26 .78 1.05 1.01 .52 1.07 .05 1.05-.50 .87-1.75 .36-1.05 .39-1.03 .48-1.17 .99-2.12 .65-1.38 .95-2.04 2.18-4.68 .92-2.00 .97-2.08 .77-1.63"/>
<path id="V1x3k8bq" d="M3721.85 1014.93l-.48-2.06-.48-2.06-.39-1.74-.41-1.72-.48-2.08-.85-2.01-.58-1.38-.48-1.14-.63-2.69-.84-2.07-1.05-2.57-.62-1.53-1.38-3.39-.04-1.24-1.42-3.37-4.88 2.09-2.93 1.26-13.23 5.62-2.48 1.08-7.46 3.18-.51-2.66-2.63-6.18-2.29 .89-2.98 1.17-2.03 .80-2.01 .79-2.03 .81-1.79 .69-1.79 .71 .07 1.96 .12 3.39 .87 2.04 3.71 2.69 2.65 1.14 1.41 .61 1.39 .59 1.38 .59 1.37 .59 1.40 .59 1.12 .49 1.50 .64 2.41 1.04 2.09 .91 1.98 .85 1.73 .74 1.90 .83 2.42 1.04 1.59 .68 1.53 .66 1.62 .70 1.55 .66 1.63 .70 3.62 1.56 1.49 .64 7.56 3.26 3.79 1.63 3.66 .41 4.34-1.33-.82-2.39-.94-2.90-.97-4.18"/>
<path id="V1x3k8bp" d="M3287.42 1039.02l 2.19-.09 1.03-.07 .20-1.04-3.54-2.06-1.17-.70-1.44-.85-3.07-1.81-2.23-1.31-2.18-1.31-2.21-1.29-1.71-1.02-1.72-1.02-2.43-1.43-2.79-1.64-2.78-1.64-1.93-1.14-1.93-1.14-1.91-1.12-2.14-1.27-2.98-2.24-1.72-1.63-7.74-4.57 .08 3.03-.03 2.34-.06 4.43-1.16 .04 .34 3.14 .31 2.82 .18 1.84 .19 1.93 .11 1.17 .27 2.84-.10 1.59 1.53-.07 .08 1.38 1.69-.03 1.67 1.88 .04 1.03 .10 1.87 2.54 .69 3.21-.14 2.25-.11 3.15-.12 1.66-.09 1.40-.05 1.60-.07 1.35-.06 1.69-.06 1.33-.06 1.63-.07 1.32-.06 1.34-.06 1.34-.06 1.32-.06 1.32-.06 1.31-.06 1.29-.06 1.31-.06 1.33-.06 1.34-.06 1.32-.06 1.29-.04 1.31-.06"/>
<path id="V1x3k8bo" d="M3314.00 1037.29l-8.04-4.70-2.59-1.52-2.90-1.68-1.71-1.02-3.90-2.24-1.55-.91-1.52-.89-1.38-.83-4.56 7.77 33.88 20.68 1.25-2.27 .73-1.20 2.87-4.83-2.52-1.47-2.82-1.64-1.12-.65-4.12-2.60"/>
<path id="V1x3k8bn" d="M3324.10 1053.74l 1.77-.09 7.01-5.10 13.34-11.16 3.03 .99 4.01 1.14 91.76 1.97 18.14 .35 27.66 .55 6.37 .11 7.97 .16 1.45-19.14-.04-1.41-.36-6.10-.34-3.55-.72-5.82-5.20 .44 .20 1.93 .24 3.08 .21 2.19 .18 1.46-.20 1.33 .14 1.34 .18 1.34 .17 1.26 .17 1.34 .18 1.35 .18 1.32 .18 1.29-.03 1.32-.03 1.47-.15 1.43 .32 1.55 .32 1.60 .23 1.11-.52 1.06-.12 2.24-1.33 .67-1.60-.07-1.52-.07-6.47-.18-1.62-1.17-1.31 1.77-1.19 .57-2.39-.80-2.74-1.52-2.53-1.40-2.11-.77-4.77-.52 .08-2.24-2.91-.19-2.18-.14-2.46-.12-.02 1.41-.19 3.77-1.20-.05-2.44-.17-1.42 .02-3.57 .05-1.86 .02-.35-1.58-.17-1.55-1.67-.58-1.56 .15-1.23 .16-1.80 .30-2.69 .37-.17-1.03-.18-1.15-.17-1.01-.28-1.62-.79-3.79-8.38 .17 .11 4.59 .69 2.65 .02 1.08-.08 1.47-3.05 2.37-2.74 .05-2.79-.46-.30-2.21-2.97 .54-2.55-.57-.36-1.88-2.52 .20-3.42-.85-2.83-.01-.61-2.62-.56-2.42-1.04 .24-1.71 .38-1.75 .40-2.34 .54-2.72 .27-1.62 .36-1.13 .26-1.74-1.29-1.13-1.39-.83-1.21L3393.06 1023.27l-1.01-2.00-.95-1.84-3.02-2.34-3.77-2.54-1.75-1.84-2.84-2.92-1.75-1.79-1.74 1.56-2.09 1.84-1.28 1.08-2.27-2.55-1.45-.10-.77 1.59-1.73 3.21-1.81 3.37-1.02 1.88-1.01 1.86-1.38 2.57-1.39 2.58-2.93 5.44-3.51-2.10-6.96-3.72-.66-3.03-.29-1.35-2.10-1.58-3.44-1.13-2.01-.65-3.07-1.04-6.38-3.13-2.63-.85-3.11 2.97-2.62 2.52 2.68 2.82 1.40 1.46 1.40 1.48 1.29 1.36 1.62 1.27 1.74 1.37 2.07 1.46-8.00 13.14-2.72 4.66-.75 1.28-1.03 1.74 4.08 2.44"/>
<path id="V1x3k8bm" d="M3253.32 1043.19l-1.85 10.82 22.38 9.59 15.28 6.26 16.07 6.73 2.05 .83 10.82 4.31 11.39 4.54 6.42 2.52 19.57 7.84 3.89 1.58 24.21 9.66 6.18 2.47 5.87 2.72 10.75 3.99 2.37 .96 6.35 2.58 2.83 1.15 2.49 1.00 2.63 .65 13.38 3.36 2.95 .74 1.75 .43 2.40 .60 6.73 1.66 1.52 .38 1.52 .36 2.46 .63 2.02 .50 3.30 .81 13.82 3.45 3.47 1.01 3.01-1.56 3.79-2.21 4.13-2.59 1.03-1.39-.46-1.11-1.03-.48-3.84-1.32-10.39-3.56 2.82-2.43 2.00-1.26 2.46-1.74 3.45-2.77 2.08-1.87 2.66-2.63 1.52-1.67 1.94-2.30 3.46-4.80 3.01-5.16 1.33-2.75 .98-2.15 1.04-3.33 1.92-7.78 .43-2.70 .42-5.32 .03-4.13-.03-1.99-.02-2.40-.05-3.52-.05-4.05-.04-3.90-.03-3.52-8.88-.23-6.36-.13-27.93-.52-13.55-.29-2.64-.06-29.02-.59-11.25-.23-14.78-.31-40.52-.81-6.16-.13-4.16 3.20-3.59 2.45-11.13 8.08-4.46-3.44-24.24-14.25-4.86-.41-18.57 .78-3.48 .19-16.91 .78"/>
<path id="V1x3k8bl" d="M3719.15 1150.38l .36-9.09-14.55-.77-8.57-.45 .13-2.58 2.31-46.26 .15-4.09 .50-7.90 .02-1.34-.67-4.03-.33-1.45-.47-1.25-2.70-4.28-1.15-1.67-1.10-1.22-2.77-.22-6.95 1.33-4.06 .09-1.72-.19-1.74-.33-12.32-2.93-4.44-.98-3.15-.59-1.38-.24-2.22-.28-5.00-.15-1.60-.11-2.89-.17-1.77 4.26-1.68 14.43-12.36 32.69-.24 23.47 .77 9.71-1.18 3.98-6.79 25.48-2.88 8.49-3.93 8.62-1.07 2.23-1.03 2.29-1.08 1.93-1.37 3.07-.91 2.04-.86 1.94-.85 1.92-.94 2.12-1.06 2.37-.97 2.17-1.05 2.35-.94 2.12-2.65 6.16-1.10 2.46-1.11 2.54-.85 1.92-.82 1.86-.83 2.12-.88 2.06-1.42 2.55-6.87 15.03-4.16 12.00-.68 1.16-7.94 21.21 1.02 1.59 22.53 1.18 34.44 1.75 3.11 .15 1.52 .08 1.49 .09 1.57 .09 1.52 .07 1.44 .06 3.20 .18 21.90 1.14 2.39 .15 2.65 .14 2.37 .13 3.39 .18 3.64 .11 14.50 .76 .71-10.75-.07-3.41 16.57 .80 1.67-18.09 1.57-41.22 .28-5.07 1.54-13.33 .38-10.04-.26-10.27 .15-2.77 .19-3.79 .09-1.75 .11-2.91 1.11-4.00 .71-14.01 .36-4.85"/>
<path id="V1x3k8bk" d="M3987.95 357.71l-.35-1.70-.36-1.70-.36-1.70-.36-1.69-.37-1.72-.36-1.68-.36-1.72-.35-1.64-.37-1.72-.36-1.68-.48-2.32-2.56-12.14-.35-1.45-.53-1.57-.85-1.98-.91-1.66-1.05-1.69-1.57-1.98-5.79-6.92-1.38-1.66-2.49 1.81-1.32 .94-1.13-1.77-1.23-1.47-1.98-2.36-1.05 .54-1.28 .63-1.28 .65-1.30 .67-1.30 .67-.05 1.53 .32 2.15 .24 1.60 .47 2.08-1.30 .45 .37 2.12 .27 1.58 .29 1.70 .29 1.72 .28 1.68 .23 1.32 .22 1.27 .18 1.09 .88 5.11 .39 2.26 .39 2.27 .39 2.22 .51 3.07-.35 2.35 .22 1.05 .21 1.05 .20 1.01 .22 1.05 .29 1.42 .40 1.94 .22 1.03 .21 1.07 .22 1.05 .21 1.03 .30 1.51 .39 1.86 .22 1.03 .42 2.04 .21 1.07 .45 2.20 3.74-1.11 2.64-.77 3.71-1.07 3.97-1.16 2.73-.80 3.76-1.09 4.37-1.29 .09-1.69"/>
<path id="V1x3k8bj" d="M3944.36 737.26l 11.50-7.39-.90-7.55-.88-7.23-1.81-15.03-8.85-1.40-6.34-.99-3.23 .51-3.58-1.60-4.88-.78 .51 3.43 3.79 20.58 1.08 6.46 .92 5.46 4.12-2.60 2.60-1.38 .63 1.18 5.31 8.31"/>
<path id="V1x3k8bi" d="M3717.37 812.15l-1.57-3.18-1.59-3.33-3.57-7.47-1.02-2.08-2.78-5.75-1.14-2.36-.92-1.90-3.55 1.68-1.39-3.31-1.40-2.82-2.31-5.50-7.70 5.71-2.38 1.03-.50-1.04-5.53 2.61-.38 1.11 1.74 3.61-16.51 7.63-4.56 1.97-3.36 .15 .02 1.56 .22 4.04 .17 4.20 .07 1.85 .05 1.62 .06 1.59 .09 2.03 .13 2.72 .22 4.85 8.38 13.28 2.55 3.86 1.96 2.99 1.97 3.01 .77 1.17 .86 1.32 .87 1.33 1.32 2.03 4.95-1.92 3.30-1.45 2.68-1.17 2.98-1.33 5.65-2.49 2.87-1.26 3.25-1.43 3.23-1.56 6.51 13.51 20.60-10.28-1.64-3.30-1.58-3.18-.91-1.80-1.20-2.42-1.20-2.42-2.12-4.26-.93-1.90-.92-1.84-.92-1.84-.89-1.82-.85-1.70-1.33-2.68-.84-1.70"/>
<path id="V1x3k8bh" d="M4358.73 875.95l-.94 5.13-.85 2.66 1.67 .53 10.31 4.39 1.51 .48 1.74 3.23 2.01 2.82 2.67 1.47 4.68-4.85-1.12 4.30 1.86 1.08 1.94 1.01-1.06 1.99 3.82 1.37-.51 1.11 6.71 2.64 .47-1.52 6.14 .54 1.75-.13 1.79 .76 4.66 1.63 1.01 .16 1.45 .37-3.37-6.45-1.34-2.49-1.40-1.37-4.28-3.65-1.67-1.45-2.48-1.69-3.38-1.84-4.14-2.05-3.49-1.49-5.60-2.05-5.17-1.97-4.98-2.01-4.01-1.55-6.39-1.10"/>
<path id="V1x3k8bg" d="M4306.37 786.83l-35.27 6.26-1.02 17.13-.78 14.10-1.90 32.50-1.13 13.53 .15 5.89-.71 10.37-.48 9.63-.75 13.56-.83 10.84-.02 2.79 .82 1.11 6.33 5.99 8.57-11.84 4.37-6.23 5.16-5.70 1.95 1.50 24.55 19.50 3.00-2.86 1.42-1.67 2.35-3.28 1.52-1.67 1.33-1.97 .09-2.12-.70-1.85-2.98-9.58-10.26-10.73-3.15-2.81 24.26-23.29-25.14-78.74"/>
<path id="V1x3k8bf" d="M4659.58 875.42l-2.72 5.80-13.23 28.18-8.56 18.18-8.03-2.75-9.31 19.76 3.24 1.36 11.55 5.56 15.00 7.25 9.74 4.79 1.28 .19 9.54 1.60 18.61 3.20 1.63 .01 1.75 .07 18.27 .18 6.62 .09 .23-17.35 .22-25.55-2.74-.53-.65-28.75 19.99-.62-10.54-22.96-37.05 1.34-16.55 .63-8.28 .31"/>
<path id="V1x3k8be" d="M4577.96 930.20l-18.09 9.13-3.24 1.57-2.34-4.23-6.91 3.50-9.17 4.43-5.64 2.14-1.17 .22-3.51 8.10 2.09 3.74 .98 5.60 1.02 6.60 9.04 3.97 .14-8.34 .17-2.27 2.14-.02 15.08-.19 4.21 1.09 4.24 1.08 3.88 1.00 2.73 .19 16.84 1.96 4.48 .52-2.04 2.41-2.69 2.99-9.70 10.50-7.92 8.60-3.73-3.26-8.56 9.12-1.78 2.15-3.61 8.99 31.61 12.93 3.97-7.68 10.85 5.98 12.34 12.43 5.76-6.82 2.59-3.82-.69-2.80-.46-3.59-.25-2.17 .03-4.07 .08-3.44 .82-5.31 1.13-4.63 1.14-3.19 1.28-3.19 1.40-2.79 3.43-5.94 7.69-11.27 5.91-8.68 1.15-1.92-10.55-5.17-14.67-7.02-16.40-7.51-25.11-11.64"/>
<path id="V1x3k8bd" d="M4658.46 1059.79l-10.12 7.44-1.53-2.43-7.08 4.65 1.86 2.38 8.99 10.32 1.27 1.73 .90 1.52 2.48 3.89 1.94 1.99 2.93 2.96 7.56 8.43 5.64 4.41 4.68 2.83 5.08 3.20 4.70-7.46-.49-3.06 6.22-11.17-6.46-2.65-3.76-.82-2.62-2.00-4.91-4.20-4.24-3.69-1.88-2.04-3.95-4.43-7.23-11.80"/>
<path id="V1x3k8bc" d="M3963.53 1095.31l .60 5.78 1.32 5.53 3.11 13.34 1.86 6.12 2.86 5.73 2.65 4.04 3.08 3.63 3.34 4.35 2.99 2.51 2.33 1.23 .93 1.15 2.86 2.23 9.06 5.29 5.09 2.59 5.13 1.75 10.45 2.12 28.35 .73 4.09-.25 15.86 .37 11.80-.08 25.85 .20 15.88-.04 7.01 .43 10.14-.58 11.53-.23 7.63-1.09 10.78-2.51 13.01-5.36 8.77-4.84 8.24-5.86 7.45-7.14 6.49-7.60 4.19-6.29 1.87-4.14 10.15-25.15 1.30-4.17 1.50-2.31-44.95-10.41 11.19-50.68-1.52-.34-5.54 1.45-8.39 2.60-19.24 6.81-45.18 15.58-17.53 6.03-10.68 3.62-16.80 5.64-8.95 2.31-3.84 1.11-5.24 1.18-7.53 1.67-11.77 2.76-4.13 1.23-15.88 3.70-5.67 1.33-10.92 2.51-14.90 3.61-.49 1.66-3.98 1.10-17.58 4.06"/>
<path id="V1x3k8bb" d="M4735.57 1217.98l .83 2.56 7.24 22.98 .65 2.21 3.49-.85 10.13-2.38 18.45-4.24-7.03-12.89-3.01-5.82-1.92-3.80-2.86-6.14-25.98 8.37"/>
</defs>
<style type="text/css" id="gwmstyles"><![CDATA[
.GWMLine
{
stroke:#000000;
fill:none;
opacity:0;
stroke-width:1px;
pointer-events:visiblePainted;}
.GWMLine-H-
{
stroke:#000000;
fill:none;
opacity:0;
stroke-width:1px;
pointer-events:none;}
.GWMLine-S-
{
stroke:#000000;
fill:none;
opacity:0;
stroke-width:1px;
pointer-events:none;}
.GWMFill
{
stroke:#000000;
fill:#ff0000;
opacity:0;
stroke-width:1px;
pointer-events:visiblePainted;}
.GWMFill-H-
{
stroke:#000000;
fill:#000000;
opacity:0;
stroke-width:1px;
pointer-events:none;}
.GWMFill-S-
{
stroke:#000000;
fill:#000000;
opacity:0;
stroke-width:1px;
pointer-events:none;}
.V1x3k8b
{
stroke:#3399ff;
fill:none;
stroke-width:1.33333px;
stroke-linecap:round;
stroke-linejoin:round;
pointer-events:visiblePainted}
.V1x3k8b-H-
{
stroke:#00ffff;
fill:none;
stroke-opacity:0.501961;
stroke-width:1.33333px;
stroke-linecap:round;
stroke-linejoin:round;
pointer-events:none;}
.V1x3k8b-S-
{
stroke:#00ff00;
fill:none;
stroke-opacity:0.501961;
stroke-width:1.33333px;
stroke-linecap:round;
stroke-linejoin:round;
pointer-events:none;}
.V1x3k8a
{
fill:url(#_V1x3k8a);
stroke:none;
pointer-events:visible}
.V1x3k8a-H-
{
fill:url(#_P9-H-);
stroke:none;
fill-opacity:0.501961;
pointer-events:none;}
.V1x3k8a-S-
{
fill:url(#_P9-S-);
stroke:none;
fill-opacity:0.501961;
pointer-events:none;}
]]></style>
<mask id="gwmmask">
<rect id="gwmmaskrect" x="0" y="0" width="9014" height="2936" style="fill:white;"/>
</mask>
<g id="_GWMAll" gmwmsvg:typ="a" mask="url(#gwmmask)">
<metadata><gmwmsvg:metadata id="_GWMMetadata" gmwmsvg:storageoffsetx="323855.269013479580000" gmwmsvg:storageoffsety="5683872.989447792100000" gmwmsvg:storagetoreadoutscale="1.000000000000000" gmwmsvg:readoutoffsetx="0.000000000000000" gmwmsvg:readoutoffsety="0.000000000000000" gmwmsvg:readoutunit="m" gmwmsvg:storagetodistancescale="1.000000000000000" gmwmsvg:distanceunit="m" gmwmsvg:displaytostoragescale="0.176865197311067" gmwmsvg:rotationangle="0.000000000000000" gmwmsvg:version="2.0"/></metadata>
<g id="10" gmwmsvg:typ="l">
<use xlink:href="#V1x3k8bb" id="V1x3k8bb.0" class="V1x3k8a"/>
<use xlink:href="#V1x3k8bb" id="V1x3k8bb.1" class="V1x3k8b"/>
<use xlink:href="#V1x3k8bc" id="V1x3k8bc.0" class="V1x3k8a"/>
<use xlink:href="#V1x3k8bc" id="V1x3k8bc.1" class="V1x3k8b"/>
<use xlink:href="#V1x3k8bd" id="V1x3k8bd.0" class="V1x3k8a"/>
<use xlink:href="#V1x3k8bd" id="V1x3k8bd.1" class="V1x3k8b"/>
<use xlink:href="#V1x3k8be" id="V1x3k8be.0" class="V1x3k8a"/>
<use xlink:href="#V1x3k8be" id="V1x3k8be.1" class="V1x3k8b"/>
<use xlink:href="#V1x3k8bf" id="V1x3k8bf.0" class="V1x3k8a"/>
<use xlink:href="#V1x3k8bf" id="V1x3k8bf.1" class="V1x3k8b"/>
<use xlink:href="#V1x3k8bg" id="V1x3k8bg.0" class="V1x3k8a"/>
<use xlink:href="#V1x3k8bg" id="V1x3k8bg.1" class="V1x3k8b"/>
<use xlink:href="#V1x3k8bh" id="V1x3k8bh.0" class="V1x3k8a"/>
<use xlink:href="#V1x3k8bh" id="V1x3k8bh.1" class="V1x3k8b"/>
<use xlink:href="#V1x3k8bi" id="V1x3k8bi.0" class="V1x3k8a"/>
<use xlink:href="#V1x3k8bi" id="V1x3k8bi.1" class="V1x3k8b"/>
<use xlink:href="#V1x3k8bj" id="V1x3k8bj.0" class="V1x3k8a"/>
<use xlink:href="#V1x3k8bj" id="V1x3k8bj.1" class="V1x3k8b"/>
<use xlink:href="#V1x3k8bk" id="V1x3k8bk.0" class="V1x3k8a"/>
<use xlink:href="#V1x3k8bk" id="V1x3k8bk.1" class="V1x3k8b"/>
<use xlink:href="#V1x3k8bl" id="V1x3k8bl.0" class="V1x3k8a"/>
<use xlink:href="#V1x3k8bl" id="V1x3k8bl.1" class="V1x3k8b"/>
<use xlink:href="#V1x3k8bm" id="V1x3k8bm.0" class="V1x3k8a"/>
<use xlink:href="#V1x3k8bm" id="V1x3k8bm.1" class="V1x3k8b"/>
<use xlink:href="#V1x3k8bn" id="V1x3k8bn.0" class="V1x3k8a"/>
<use xlink:href="#V1x3k8bn" id="V1x3k8bn.1" class="V1x3k8b"/>
<use xlink:href="#V1x3k8bo" id="V1x3k8bo.0" class="V1x3k8a"/>
<use xlink:href="#V1x3k8bo" id="V1x3k8bo.1" class="V1x3k8b"/>
<use xlink:href="#V1x3k8bp" id="V1x3k8bp.0" class="V1x3k8a"/>
<use xlink:href="#V1x3k8bp" id="V1x3k8bp.1" class="V1x3k8b"/>
<use xlink:href="#V1x3k8bq" id="V1x3k8bq.0" class="V1x3k8a"/>
<use xlink:href="#V1x3k8bq" id="V1x3k8bq.1" class="V1x3k8b"/>
<use xlink:href="#V1x3k8br" id="V1x3k8br.0" class="V1x3k8a"/>
<use xlink:href="#V1x3k8br" id="V1x3k8br.1" class="V1x3k8b"/>
<use xlink:href="#V1x3k8bs" id="V1x3k8bs.0" class="V1x3k8a"/>
<use xlink:href="#V1x3k8bs" id="V1x3k8bs.1" class="V1x3k8b"/>
<use xlink:href="#V1x3k8bt" id="V1x3k8bt.0" class="V1x3k8a"/>
<use xlink:href="#V1x3k8bt" id="V1x3k8bt.1" class="V1x3k8b"/>
<use xlink:href="#V1x3k8bu" id="V1x3k8bu.0" class="V1x3k8a"/>
<use xlink:href="#V1x3k8bu" id="V1x3k8bu.1" class="V1x3k8b"/>
<use xlink:href="#V1x3k8bv" id="V1x3k8bv.0" class="V1x3k8a"/>
<use xlink:href="#V1x3k8bv" id="V1x3k8bv.1" class="V1x3k8b"/>
<use xlink:href="#V1x3k8bw" id="V1x3k8bw.0" class="V1x3k8a"/>
<use xlink:href="#V1x3k8bw" id="V1x3k8bw.1" class="V1x3k8b"/>
<use xlink:href="#V1x3k8bx" id="V1x3k8bx.0" class="V1x3k8a"/>
<use xlink:href="#V1x3k8bx" id="V1x3k8bx.1" class="V1x3k8b"/>
<use xlink:href="#V1x3k8by" id="V1x3k8by.0" class="V1x3k8a"/>
<use xlink:href="#V1x3k8by" id="V1x3k8by.1" class="V1x3k8b"/>
<use xlink:href="#V1x3k8bz" id="V1x3k8bz.0" class="V1x3k8a"/>
<use xlink:href="#V1x3k8bz" id="V1x3k8bz.1" class="V1x3k8b"/>
<use xlink:href="#V1x3k8bA" id="V1x3k8bA.0" class="V1x3k8a"/>
<use xlink:href="#V1x3k8bA" id="V1x3k8bA.1" class="V1x3k8b"/>
<use xlink:href="#V1x3k8bB" id="V1x3k8bB.0" class="V1x3k8a"/>
<use xlink:href="#V1x3k8bB" id="V1x3k8bB.1" class="V1x3k8b"/>
<use xlink:href="#V1x3k8bC" id="V1x3k8bC.0" class="V1x3k8a"/>
<use xlink:href="#V1x3k8bC" id="V1x3k8bC.1" class="V1x3k8b"/>
<use xlink:href="#V1x3k8bD" id="V1x3k8bD.0" class="V1x3k8a"/>
<use xlink:href="#V1x3k8bD" id="V1x3k8bD.1" class="V1x3k8b"/>
<use xlink:href="#V1x3k8bE" id="V1x3k8bE.0" class="V1x3k8a"/>
<use xlink:href="#V1x3k8bE" id="V1x3k8bE.1" class="V1x3k8b"/>
<use xlink:href="#V1x3k8bF" id="V1x3k8bF.0" class="V1x3k8a"/>
<use xlink:href="#V1x3k8bF" id="V1x3k8bF.1" class="V1x3k8b"/>
<use xlink:href="#V1x3k8bG" id="V1x3k8bG.0" class="V1x3k8a"/>
<use xlink:href="#V1x3k8bG" id="V1x3k8bG.1" class="V1x3k8b"/>
<use xlink:href="#V1x3k8bH" id="V1x3k8bH.0" class="V1x3k8a"/>
<use xlink:href="#V1x3k8bH" id="V1x3k8bH.1" class="V1x3k8b"/>
<use xlink:href="#V1x3k8bI" id="V1x3k8bI.0" class="V1x3k8a"/>
<use xlink:href="#V1x3k8bI" id="V1x3k8bI.1" class="V1x3k8b"/>
<use xlink:href="#V1x3k8bJ" id="V1x3k8bJ.0" class="V1x3k8a"/>
<use xlink:href="#V1x3k8bJ" id="V1x3k8bJ.1" class="V1x3k8b"/>
<use xlink:href="#V1x3k8bK" id="V1x3k8bK.0" class="V1x3k8a"/>
<use xlink:href="#V1x3k8bK" id="V1x3k8bK.1" class="V1x3k8b"/>
<use xlink:href="#V1x3k8bL" id="V1x3k8bL.0" class="V1x3k8a"/>
<use xlink:href="#V1x3k8bL" id="V1x3k8bL.1" class="V1x3k8b"/>
<use xlink:href="#V1x3k8bM" id="V1x3k8bM.0" class="V1x3k8a"/>
<use xlink:href="#V1x3k8bM" id="V1x3k8bM.1" class="V1x3k8b"/>
</g>
</g>
</svg>
