<?xml version="1.0" encoding="UTF-8"?>
<svg xml:space="preserve" id="gwmroot" preserveAspectRatio="xMidYMid meet" viewBox="0 0 3014 2936" xmlns="http://www.w3.org/2000/svg" xmlns:xlink="http://www.w3.org/1999/xlink" xmlns:gmwmsvg="http://www.intergraph.com/GeoMedia/wmsvg" style="stroke-linejoin:round">
<script type="text/javascript" id="gwmlegendscript"><![CDATA[
var _GWMLegendDisplayOrder = [
{name : "10", title : "Erhaltungssatzung", locatable :true, leaf : true, hotspot : false, members : [
]}
];
var _GWMLegendGroup = [
{name : "10", title : "Erhaltungssatzung", members : [
]}
];
]]></script>
<defs id="gwmdefs">
<filter id="Haloe7U5X2b" filterUnits="objectBoundingBox" x="-20%" y="-20%" width="140%" height="140%">
<feColorMatrix in="SourceAlpha" result="color" type="matrix" values="0 0 0 0 0.13 0 0 0 0 0.00 0 0 0 0 0.16 0 0 0 1 0"/>
<feMorphology in="color" radius="0.00,0.00" operator="dilate" result="outline"/>
<feComposite in="SourceGraphic" in2="outline"/>
</filter>
<filter id="Haloe7U5X2a" filterUnits="objectBoundingBox" x="-20%" y="-20%" width="140%" height="140%">
<feColorMatrix in="SourceAlpha" result="color" type="matrix" values="0 0 0 0 0.00 0 0 0 0 0.00 0 0 0 0 0.00 0 0 0 1 0"/>
<feMorphology in="color" radius="16175315.14,16175315.14" operator="dilate" result="outline"/>
<feComposite in="SourceGraphic" in2="outline"/>
</filter>
<path d="M0 0l1 0 0 1-1 0zM2 1l1 0 0 1-1 0z" id="_P9"/>
<pattern id="_e7U5X2a" patternUnits="userSpaceOnUse" x="0" y="0" width="4" height="2" style="stroke:none;fill:#3399ff">
<use xlink:href="#_P9"/>
</pattern>
<pattern id="_P9-H-" patternUnits="userSpaceOnUse" x="0" y="0" width="4" height="2" style="stroke:none;fill:#00ffff">
<use xlink:href="#_P9"/>
</pattern>
<pattern id="_e7U5X2a" patternUnits="userSpaceOnUse" x="0" y="0" width="4" height="2" style="stroke:none;fill:#3399ff">
<use xlink:href="#_P9"/>
</pattern>
<pattern id="_P9-S-" patternUnits="userSpaceOnUse" x="0" y="0" width="4" height="2" style="stroke:none;fill:#00ff00">
<use xlink:href="#_P9"/>
</pattern>
<path id="e7U5X2bM" d="M1045.10 1719.13l 1.18-1.53 .81-1.13 1.18-1.63-2.39-1.74-1.03-.74-1.17 1.56-.77 1.03-1.18 1.49-1.46 1.84-1.07 1.38-1.73 1.95-1.66 1.79-1.17 1.25-1.79 1.83-2.72 2.53-1.81 1.59-1.88 1.59-1.46 1.22-1.93 1.53-1.50 1.14-1.02 .76-1.00 .68 1.30 1.84 2.36 3.34 2.19-1.55 1.60-1.22 2.00-1.56 1.58-1.30 1.94-1.65 1.95-1.73 1.96-1.84 2.18-2.14 1.85-1.92 1.68-1.91 1.44-1.56 1.63-1.91 1.40-1.76-1.50-1.55"/>
<path id="e7U5X2bL" d="M1093.13 1761.81l-.63-11.05-.80-14.77 .12-2.16-15.46-1.76-5.86-1.17-1.31-.94-1.21 1.65-1.74 1.54-7.70 22.50 6.98 1.31 4.70 .82 3.70 .57 4.86 .84 1.91 .46 1.70 .13 2.24 .53 4.52 .81 3.96 .69"/>
<path id="e7U5X2bK" d="M1881.48 1770.86l-3.34 2.96-8.06 6.73-5.27 4.42 2.90 3.53 1.47 1.77 2.55 3.07 1.49 1.77 2.39 2.91 1.10 2.41 .87 1.92 1.31 .24 1.88 1.68 .58 1.29 1.05 .71 4.66 5.49 1.11 2.00 2.16 2.12 1.54 1.85 3.85 4.65 1.95 2.35 2.19 2.64 3.94 4.83 5.04-1.22 2.95-1.08 2.33-.82 2.46-1.00 1.25-.46 1.65-1.42 1.40-1.20 4.18-4.05 1.66-1.07 1.98-1.15 5.29-3.14 1.77-1.05 1.36 2.26 2.10 2.70 .98 1.26 2.88 3.73 2.16 2.76 1.32 1.71 1.16 1.50 5.52-4.38 1.11 1.20 1.44 1.61 1.02 .05 1.07-.48 1.07-.54 1.08-.60 1.08-.66 1.07-.70 1.17-.80 1.15-.84 1.12-.84 1.10-.88 3.77-3.08 1.64-1.28-1.10-1.20 1.54-2.43 .50-1.18-.07-2.28-.33-3.42-2.29-1.04-1.65-1.58-3.10-2.94-.93-1.03 1.51-2.84-2.01-1.85-1.83-1.60 3.84-4.12 3.33 1.06 1.34 .67 2.53 1.25 1.49-2.81 .98-1.77 1.17-2.17 .96-1.76 1.20-2.22-1.89-1.32-1.45-1.03-1.29-1.72 1.51-.98-.28-2.43 2.77-1.94 1.82-1.28 1.17-.82 1.98-2.68-2.16-1.44-1.75-.83-1.28-.61-1.06-.50-1.43-.70-2.02-.97-1.49-.71-1.95-.94-1.95-.94-1.66-.80-1.69-.81-2.21-1.05L1959.58 1756.91l-4.89-2.14-2.02-.89-2.09-.91-2.04-.89-2.45-1.06-1.67-3.55 .73-2.63-.70-2.04-.40-1.69-.48-1.49-2.48 .94-1.63 .63-1.59 .57-2.43 .88-2.91 1.07-2.09 .79-1.90 .70-1.65 .61-1.64 .71-3.60 1.52-7.52 1.98-1.50 .47-8.06 2.60-2.28 .73-2.39 .76-4.24 .33-1.79 .74-1.05 .55-5.90 1.43-6.24 .95-2.24 .31-4.04 1.03 .74 1.19 3.42 5.45 2.49 3.82"/>
<path id="e7U5X2bJ" d="M1738.79 1930.77l 1.46-1.74 1.62-1.89-1.47-.92-1.41-.93-1.50-1.17-1.31-1.07-1.03-.87-4.10-3.47-1.42-1.20-.95 1.11-.97 1.12-4.16-3.52-1.68-2.65-2.17-2.09-1.11-.83-1.96-1.67-1.60-1.10-2.17-2.71-3.22-4.02-3.42-4.28-1.33-1.67-5.72-1.54-1.77-.83 1.38-1.60-.54-2.36-.53-2.33 .81-1.74 .57-1.21 .56-1.19 .82-1.72-5.70-2.71-1.28-.59-1.32-.55-6.45-3.01-.74 1.56-.51 1.07-.49 1.06-.49 1.02-.49 1.04-.74 1.56-.76 1.58-.97 2.03-.73 1.55-.75 1.56-.49 1.04-.50 1.06-.49 1.03-.99 2.07-.50 1.03-.94 2.00-1.11 2.30-6.41-1.85-3.37-1.47-1.17-.59-1.19-.59-1.18-.59-1.19-.59-1.19-.59-2.52-1.20-3.43-1.78-2.51-1.25-3.27-1.60-1.16 .58-1.65 1.62-1.63 1.58-1.60 1.58-1.42 1.39-1.60 1.60-1.46 1.70-1.51 1.76-1.48 1.70-1.03 1.20-1.51 1.48 3.37 2.99 2.01 1.78 1.58 1.39 1.12 .01 1.67 .01 12.47 10.30 8.67 7.49 1.08 .92 1.12 .87 1.00 .70 1.05 .69 1.08 .65 1.10 .59 1.12 .55 1.14 .51 1.16 .47 1.18 .41 12.18 4.13 3.47 1.19 1.03 .45 1.09 .63 1.01 .74 1.04 .15 1.56 1.31 8.08 6.92L1704.25 1949.63l 1.02 .23 3.65 .25 1.05 .03 1.03 .15 1.03 .21 1.00 .33 1.08 .45 1.04 .55 1.09 .75 2.34 1.87 1.10-1.34 1.07-1.24 1.43-1.66 2.02-2.38 1.19-1.39 1.45-1.72 1.88-2.21 1.11-1.31 1.48-1.72 1.15-1.31 1.11-1.29 1.06-1.24 .89-1.05 1.01-1.20 1.14-1.29 1.13-1.32"/>
<path id="e7U5X2bI" d="M1485.65 2444.77l-.64-2.05-.31-1.01-2.22-2.27-1.27-1.30 .18-1.88 .43-4.50-6.50-.68 .37-3.44 1.14-10.19-2.16-1.83-2.03-3.20-.91-1.80-.94-1.52 1.61-1.20-1.93-2.92-1.75-2.49-1.82-2.57-1.51-2.12-1.23-1.78-1.00-1.32-1.44-1.94-.96-1.30-.98-1.34-.97-1.30-1.97-2.65-2.22-2.80-1.17-1.49-.82-3.88-2.37-5.88-.86-1.62-10.56 5.37-5.51 2.01 1.29 3.21 2.61 7.06 1.06 1.20 .90 2.88 .28 1.18 .41 1.38 1.30 2.22 1.60 1.95 .72 1.09 .89 1.33-1.18 .53-3.52 1.82-3.10 1.62-4.05 2.11-4.76 16.81-.63 2.65 3.95-1.32 2.93-.98 11.79-4.22 4.28 5.76 1.33 1.92 2.44 3.52 .52 1.07 .81 1.85 .59 1.19 3.62 8.31 3.20 5.64 1.68-.59 2.16-1.79 1.45 .87 1.53 .94 1.11 .95 1.85 .25 2.29 .10 4.47-.59 1.34-.34 3.63-1.31 1.36-.17 .21-2.84"/>
<path id="e7U5X2bH" d="M2244.59 2548.14l 11.17 .37 8.20-1.68 1.99-2.46-1.08-2.73-4.21-8.96-1.15-2.43-1.43-3.04-1.34-2.85-1.28-2.71-.85-1.79-1.69-3.12-5.86 .13-1.85 .19-8.14 .83-2.55 .26-6.31 .69-.27-4.17-.65-11.89 .06-3.43-2.32-.13-5.68-.05-5.72-.09-3.01-.01-5.73-.07-5.73-.05-2.94-.05-5.73-.05-5.68-.09-3.01-.03-6.08-.06-1.05-.01-5.36-.06-4.60 .12-.25 3.13-1.23 11.28-.37 3.42-.94 8.73-.56 5.14-.56 5.12-.58 5.41-.44 6.19 .47 18.09 3.29 .17 15.53 .41-.12 7.51 2.12 2.36 25.47 .70 8.51-.15 7.52 .24 4.07 .12 3.07 .11 3.06 .09 5.34 .15 4.25 .01 1.27-.82 .75-1.09 .35-1.10 .22-6.26-5.08-.20 .83-2.85 3.12-14.16 .78-2.36"/>
<path id="e7U5X2bG" d="M2195.55 2879.83l .16 1.43 1.14 .85 2.01 .91 2.15 .54 1.81-.01 1.24-.16 3.23-.20 1.75-.09 1.85-.12 2.26-.25 1.41-.14 1.78-.13 1.73-.13 2.54-.28 1.21-.16 2.71-.24 2.91-.04 1.79-.09 4.10-.20 .19 1.18 1.73 .24 1.59 .14 1.00 .01 2.05-.02 1.71-.13 2.54-.32 1.34-.13 1.11-.15 1.52-.26 1.10-.22 .25-2.69-.43-1.54-.40-3.61 .32-1.65 1.48-.34 2.01 .55 2.92 .79 2.24 1.33 1.30 .28 1.01 .20 2.63 .26 1.71 .17 1.95 .19 1.33 .28 1.32 .13 2.44 .31 1.11 .14-.16-1.81-.12-1.19-.25-2.27-.93-1.41-.63-1.01-.63-1.05-.77-1.29-.88-1.35-.95-1.44-.17 1.90-1.33-.50-1.80-.69-2.02-2.18-2.07-2.28-2.93-2.60 1.92-2.46 1.35-1.73 1.53-1.98-1.40-1.43 1.51-2.43 2.75-.42-.13-2.00-1.16-1.80 5.62-.07 1.20-.02-.56-2.90-.77-1.48 .51-1.67-1.29-1.46-.74-1.31-2.49 .27-2.23-1.30-1.93-1.40-1.14-1.32-3.66-1.91-3.44-1.79-2.20-1.15-3.02-3.04-1.97 1.61-.95 1.12-1.05-1.25-1.35-.82-1.80 3.01-3.86 5.02-1.56 1.94-1.03 1.26-1.32 1.67-1.49 1.86-1.93 1.20-1.32 1.25-1.01 .94L2225.09 2842.48l-2.93-3.12-4.63 4.52-1.17 1.57-1.00 1.34 1.20 1.07 1.81 1.30-1.28 1.67-1.05 1.34-1.77 2.19-1.47 1.84-1.84 1.31-2.26 .63-1.81 1.69-1.27 1.23-1.24 1.21-2.38 2.25-2.20 1.88-2.08 2.81-.21 1.07-.62 3.59-.37 1.91-.69 2.36-.29 1.68"/>
<path id="e7U5X2bF" d="M2267.68 1323.41l 3.06 10.41 36.58-6.29-2.15-14.18-10.30 1.82-9.39 1.59-3.09 .68-2.08 .73-1.73 .63-3.74 1.62-7.15 2.99"/>
<path id="e7U5X2bE" d="M2196.34 1400.21l 2.88 15.01 25.04-1.19 2.12 4.64 6.28-.28 6.48-.15 2.60-.15 15.12-.20 5.50-.09-1.45-16.51-2.87-.59-7.04-.30-6.00-.03-2.75-0-23.45-.10-21.96-.06"/>
<path id="e7U5X2bD" d="M1918.80 1705.87l .94-9.84-7.14-.74-1.35 1.84-1.28 .58-4.09 1.74 1.25 2.79-10.19 4.64-15.18 1.32-1.21-1.58-1.20-1.56-1.18-1.54-3.73 2.69-2.33 1.69-3.27 2.36 .91 1.23 1.60 2.19 1.67 2.27 1.31 1.82 2.51 3.84 3.76 5.42-1.83 1.28-1.18 .84 .05 1.17-1.19 1.87 1.11 1.54 3.05 4.29 1.57 2.37 5.24 11.91 4.67 .02 2.22-.55 3.65-1.26-.68-1.41 5.14-2.37 1.05-.50 3.89-1.79-1.14-2.45-.73-1.53-.70-1.55-1.21-2.61-1.06-2.17-1.01-2.05-.54-1.36-1.11-2.19-2.39-4.63 1.73-.86 3.94 .27 5.68-2.63-.92-1.87-.48-1.05-.64-1.39-1.02-2.15 3.37-1.25 1.15-.44 1.69-.72 2.10-1.01 1.53-.75 1.91-.95 2.33-1.12-1.07-2.09"/>
<path id="e7U5X2bC" d="M1854.35 1615.05l .21 5.25 .29 3.82 .27 2.91 2.69-.19 1.86-.12 3.05-.21 2.08-.14 2.09-.14 3.18-.20 2.68-.18 2.81-.23 3.29-.34 3.26-.30 3.67-.27 3.90 .15 1.80 .09 3.01 .13 2.04-.83 2.31-.21 2.20-.21-.09-1.47 1.69 .07 2.80 .10 .56 1.90 1.11 3.70 .54 1.80 1.38-.40 2.65-.79 .82 2.74 .79 2.72 .42 1.38 .32 1.08 .49 1.64 .39 1.36 .82 2.76 2.56-.76 .42 1.38 .40 1.34 .41 1.38 .43 1.36 .52 1.56 .28 1.14 .65 2.30 1.44 .41 4.10 .24 9.27-1.17 1.07 .06 1.09 .21 5.77 1.85 1.09 .34 .42-1.31 .97-2.51 .57-1.71 .67-1.98 .55-1.67 .41-1.28-.22-1.61-.17-1.41-.17-1.43-.18-1.43-.55-4.22-.18-1.43 .04-1.01-.13-1.08-.27-2.15-.41-1.42-.40-3.12-.18-1.41-.19-1.41-.17-1.39-.18-1.41-1.65 .21-.21-1.49-.20-1.51-1.04-1.58-.13-1.07-.13-1.13 2.31-.05 2.09-.02 2.19 .02 2.25 .06 1.22 .06 1.62 .09 1.63 .11 1.00 .09 1.55 .16 1.58 .17 3.58 .52 1.17 .19 2.38 .51-.50-4.32-1.39-4.55-6.23-19.26-4.39-6.06-7.76-6.61-1.57-1.32-.60-1.09 4.61-6.91L1949.66 1561.69l .97-1.41 12.30-3.96-5.15-15.89 1.79-.58-1.41-4.37-4.07 1.34-15.05 4.88-5.22 8.83-4.75 5.55-1.24 .40-6.54-5.49-3.46-2.94-1.28-1.10-4.88-2.12-1.43 .13-4.09 .91-7.69 1.75-10.40 1.18-1.38 1.62-3.03 3.52-1.54 1.78-2.90 3.37-1.20 1.39-1.58 1.81-1.64 1.92-1.09 1.28-.95 1.12-.98 1.15-1.79 2.10-2.63 3.07-1.14 1.32-1.05 1.23-1.86 2.16-1.67 1.94-5.74 6.69-9.19 5.46 1.90 2.73 4.55 7.48 .59 6.32 .63 6.80"/>
<path id="e7U5X2bB" d="M1789.21 1583.07l 6.69-3.11 1.90-.90 2.67-3.96 1.61 1.04 3.07-4.80 3.79 2.47 2.19-1.03 4.93-7.59 4.84 3.16 .96-1.32 3.47-5.37-2.29-1.47-3.41-2.20-3.09-1.99-2.41-1.56-2.68-1.73-3.27-2.10-2.92-1.87-2.82-1.81-3.50 5.17-.94 1.42-3.69-2.33-9.14 14.12-4.41 6.81 8.44 10.95"/>
<path id="e7U5X2bA" d="M1566.52 1616.27l .91-3.22 2.44-4.90-2.86-4.78-1.65-2.76-.92-1.55-.94-1.56-1.09-1.84-1.16-1.96-1.16-1.96-1.07-1.82-.77-1.25-1.26-2.10-.98-1.65-1.33-2.20-1.19-1.98-1.19-1.98-1.11-1.88-1.05-1.72-1.11-1.88-2.77-4.68-4.50-8.66-1.25 .48-1.02 .43-4.19 1.64-2.48 .98-2.96 1.16-7.36 2.24 1.14 3.64-2.70 11.78-.55 3.95-.22 1.64-.22 1.54-.24 1.78-.27 1.98 .39 4.39-.66 1.88-.58 1.63-.88 2.49-1.92 5.38 1.88 .53 1.94 .53 2.68 .32 8.47 1.01 1.62 .21 1.07 .11 5.56 .70 .56 1.61 6.12 .77 1.65-.65 1.98 .22 1.18 .11 2.27 .27 3.19 .37 1.09 .13 1.23 .14 1.83 .21 1.72 .21 2.06 .22 2.66 .32"/>
<path id="e7U5X2bz" d="M1485.83 1471.92l 1.38-1.11 2.23-1.80 1.57-1.00-.61-1.59-.91-1.63-2.20-3.93-3.99 2.40-1.37 .79-2.17 .21-1.48 1.11-1.49 1.10-1.50 1.13-1.45 1.08-1.83 1.39-1.69 1.26-2.71 2.06-1.59 1.20-1.58 1.20-1.60 1.20-1.58 1.20-1.99 1.49-2.43 1.83 1.82 1.84 1.58 .82 1.24 .65 1.67 .84 1.64 .86 1.77 .90 1.85-1.21 1.09-.90 1.45-1.21 1.07-.86 1.59-1.32 1.63-1.36 1.24-1.02 1.95-1.59 1.67-1.38 1.34-1.11 2.95-2.37 1.44-1.21"/>
<path id="e7U5X2by" d="M1450.23 1271.65l 1.33 4.81 2.63 4.58 2.07 3.93 .71 1.11 3.82 6.43 7.55 12.62 3.79 7.80 9.69 15.81 2.99-.59 33.05 9.29 7.34 2.09 3.36 1.87 21.46 15.01 23.10 16.37 2.71 2.06 2.38 1.54 1.66 1.20 25.29-40.70-20.83-6.09-5.17-1.76 3.28-11.04 4.30-20.84 3.31 .76 8.12 1.67 1.78 .17 .52-5.13 1.22-5.85 7.39 .46 1.10-10.49 .21-4.36 17.25-1.49 2.83-1.10 3.34-2.36-.24-4.05-5.26-1.26-3.96-.95-10.38-1.96-5.89-.98-4.18-.40-9.15-.27-5.09-.06-8.87-.39-12.51 .02-11.60-.09-16.26-.39-22.18-.76-32.71 .21-6.49 .55-5.49 .81-2.29 .45-5.13 1.84-2.68 1.15-5.17 2.78-1.23 .74-3.61 2.50-3.21 2.69"/>
<path id="e7U5X2bx" d="M1462.54 1449.00l 3.56-.79-3.42-1.96-3.05-.90-1.81-.53-2.11-.62-1.90-.55-1.96-.57-1.96-.57-1.95-.57-1.82-.41-2.41-.51-2.97-.27-7.70-1.99-1.46-.32-1.84-.39-1.45-.30-2.08-.44-1.62-.35-2.96-.43-1.76-.25-1.76-.25-1.75-.25-1.77-.25-3.17-.43-3.17-.47-6.14-.86-1.56-.22-2.67-.22-1.72-.15-2.26-.19-1.08-.09-3.69-.31-2.93-.25-1.22-.10-2.94-.25-2.28-.19-3.14-.19-1.78-.09-1.58-.11-1.86-.12-2.53-.15-3.95-.20-1.86-.11-2.73-.16-1.36 8.36-1.53 3.23 .42 14.25-.05 2.56-2.54-.27-11.71-1.74-3.94-.59-6.02-.94-1.14 3.71-1.09 3.26-1.73 6.75-.24 3.41 28.23 2.77-1.19 19.37-30.14-1.90-.08 2.93-.88 20.43-.20 5.92-0 5.08 .44 2.85 .53 3.96 .61 2.96 1.10 4.81 1.28 4.74 1.82 4.52 1.41-.63 3.44 6.37 2.75-.14 3.57-.19 2.74-.14 2.68-.14 2.58-.14 2.46-.12-.53 10.85 .62 2.57-.16 7.41 4.22 4.20 3.21 2.32 4.89-5.64 19.16-21.96-.59-6.50 4.11-18.98 .74-2.91 .11-2.70-5.32-.31 .62-12.13 3.74 .23 10.10-11.60 2.45 2.61 3.57 2.40 3.86 1.08 2.33-1.31-4.46-8.05-1.86-3.41L1407.85 1486.85l 2.51-3.16 5.87-6.78 1.93-2.22 1.87-2.17 1.11-1.29 .90-1.81 3.34 1.64 2.74-4.16 3.81-4.52 6.21-7.35 3.58-1.50 2.04-.46 1.92-.42 1.75-.38 1.99-.46 2.01-.43 2.02-.46 1.97-.42 2.11-.43 1.93-.42 3.09-.66"/>
<path id="e7U5X2bw" d="M1227.34 1552.08l-1.08 29.19 3.11 2.10 9.96-1.96 3.86-1.28 10.46-4.67 3.62-2.39 2.98-2.33 3.21-2.74 4.03-3.69 2.14-1.74 2.73-2.97 3.31-3.29 2.08-2.18 3.51-3.29-.97-4.03 1.37-2.26 3.16-3.06 7.36-7.41 1.23-1.45 3.40-4.32 3.03-4.01 3.25-4.68 1.71-2.88 .98-1.67 2.84-6.12 1.96-6.34 .51-3.57 1.33-9.40 .19-3.74 .20-4.65 .12-2.81 .13-3.01 .15-3.33 1.00-17.52 .31-4.77 .17-2.85 .28-4.19 .62-6.14-2.29-.05-8.35 .36-13.34-2.21-2.25-.45-3.51-.56-2.84-.48-1.56-.25-1.82-.29-2.33-.29-2.48-.27-2.31-.27-1.78-.19-2.32-.27-2.08-.08-3.03-.49-2.78-.30-1.69-.19-8.20-.94-1.51-.17-2.75-.30-2.76-.32-3.20-.35-6.75-.82-2.01 4.38-.83 21.74 3.09 .05-.36 9.92-3.03 .64-.96 26.14-.12 3.96-.99 26.81-.07 2.66-.70 19.78-.16 4.16-.17 4.37"/>
<path id="e7U5X2bv" d="M1151.62 1619.49l .35-2.96-1.55-.62-2.73-2.24-.43-1.74-1.73 .40-1.66 .41-2.19 .53-1.79 .42-1.88 .46-1.77 .42-2.06 .49-2.01 .47-1.98 .48-2.07 .49-1.99 .47-4.28 1.02-1.97 .48-1.22 .28-1.17 .28-1.69 .40-1.38 .33-1.39 .33-1.86 .44-1.23 .30-1.58 .39-2.13 .51-2.46 .60-3.07 .74-3.56 .11-1.97 .18-2.11 .17-2.13 .15-2.14 .15-2.15-.01-2.37-.07-2.16-.15-1.86-.15-1.81-.15-1.43-.12-3.58-.58-1.82-.19-1.64-.39-1.77-.41-1.94-.43-1.84-.41-1.94-.59-1.88-.69-1.97-.64-2.01-.69-2.04-.74-1.86-.95-1.86-1.11-1.86-1.11-1.70-1.06-1.40-.92-1.38-.89-1.49-.98-2.00-1.31-1.51 .95 1.20 5.88 .33 1.66 .52 2.57 1.38 1.19 3.03 2.65 1.55 1.36 1.54 1.20 1.67 1.24 1.72 1.27 1.51 1.13-2.47 2.63-3.74 3.82-2.61 2.68 2.10 1.69-6.16 5.48 2.64 2.84 2.14 1.82-1.24 1.17-.99 1.15 6.58 3.16-1.85 2.08-2.91 3.42-4.12 4.87 8.14 4.49-5.34 12.36 9.64 4.20 2.83-6.14 2.54 .78 8.04 3.68 4.62-10.84 2.03 .85 2.39-4.81 .50-2.74 5.72 2.43 2.33 1.48 3.00 1.44 12.17 1.94 3.86-3.83 5.02-5.77L1109.83 1665.13l 3.88-5.25 6.57-8.96 5.47-.27 2.80 .02 1.98 .04 1.81 .07 1.63 .05 2.01 .02 1.97 .18 2.18 .12 1.63 .19 1.61 .19 1.77 .29 2.32 .41 .59-2.24 .22-1.82 .20-1.78 .19-1.82 .18-1.76 .20-1.68 .21-1.68 .22-1.94 .20-1.76 .22-1.78 .25-2.15 .24-2.12 .26-2.13 .20-1.82 .30-2.41 .23-1.94 .25-1.93"/>
<path id="e7U5X2bu" d="M1077.70 1475.19l 4.40-10.18 .66-1.44 .59-1.32 1.25-2.75 .69-1.53 1.92-4.18 .53-1.15 .85-1.86 .96-2.10 .89-1.95 2.24-4.85-10.36-6.87-16.76-6.33-5.66 6.95-19.31 25.69-2.53 3.29-1.24-.93-10.22-7.43-14.07-10.17-6.52-4.71-5.66 7.72-5.78 7.92-.95 14.97-.26 3.37-.53 7.80-1.85 25.91 2.95 1.69 3.59 1.72-3.33 3.82-1.89 4.71 4.01 7.64 16.22 8.20 10.26 4.38 4.41 1.62 15.82 1.47 3.53 .36 13.01 1.24 2.46 .24 .47-2.94 .30-1.96 .27-1.76 .28-1.78 .34-2.24 .28-1.76 .28-1.75 .40-2.58 .40-2.51 .30-1.93 .28-1.74 .30-1.91 .31-1.94 .26-1.64 .54-3.35 .33-2.09 .28-1.78 .25-1.66 .26-1.67 .27-1.67 .24-1.65 .28-1.77 .28-1.77 .28-1.84 .29-1.85 .30-1.82 .29-1.88 .19-1.21 .51-3.27 2.51-4.79 .75-1.43 3.38-7.06"/>
<path id="e7U5X2bt" d="M883.89 1517.25l-3.93-1.42-.67 1.89-.62 1.76 1.19 .03 1.04 .02 2.11-0 2.08-0 1.19-0 1.64-0 3.67 .09 1.29 .01 1.93 .02 1.87 .02 3.43 .04 1.18 .01 2.72 .03 1.16 .02 2.06 .02 1.65 .02 1.18 .02 9.54 2.02 2.33 .47 2.29 .46 1.35 .27 2.34-.47 1.08 1.54 6.68 1.96 1.74 .53 1.21 .37 1.23 .42 1.84 .55 2.76 .79 2.61 .85 .40-1.20 .31-1.26 .59-2.36 .85-3.47 3.73 .95 .91-5.30-1.54-.39-1.75-.43-1.54-.39-1.45-.37-1.46-.33-.91 1.04-3.39-.70-4.52-3.03 1.69-2.71-.14-2.66-.13-2.63-.13-2.50-.12-2.53-1.93 .10-2.10 .11-.25-4.76-.37-6.98-.09-1.21-.11-2.11-.10-3.65-3.26-.47-2.30-.35-1.59-.24-2.32-.35 .01-1.85 .01-1.41 .01-1.34 .01-2.24 .02-2.88 .01-1.34 .02-2.85 .01-1.98-1.47-1.51-1.34-1.38-1.38-1.43-1.45-1.48-1.57-1.67-1.00-1.06-1.29-1.36-4.34 4.33-1.89 1.91-2.32 2.35-1.19 1.21-1.58 1.60-1.24 1.26-1.20 1.22-1.39 1.41-1.17 1.19-1.26 1.28-1.98 2.01-1.77 1.77-3.29 1.78 1.54 4.92-1.59-.21-1.89 2.85-1.48 2.23-1.49 2.24-1.26 1.90 4.06 3.63L890.51 1493.74l 1.00 2.74 .38 1.04 1.06 2.89 .85 3.09 .36 1.35-3.30 1.38-2.42 .64-1.31 .35 .01 1.91 0 1.31 .02 3.15 .11 3.58-2.17 .04-1.23 .02"/>
<path id="e7U5X2bs" d="M1127.66 376.66l .04-1.29-.05-1.09-.04-1.03-.16-1.57-.12-1.29-.10-1.07-.48-2.18-.26-1.20-.65-2.02-.60-1.86-.52-1.62-.50-1.60-.36-1.10-.36-1.16-.42-1.32-.52-1.62-.48-1.50-.33-1.00-.91-1.48-5.33 1.66-2.63 .83-1.51 .47-2.52 .68-1.62 .19-1.47 .19-4.02 .49-1.10 .12-5.18 .26-4.56-.32-2.63-.38-2.85-.42-3.00-.35-2.92-.35-2.51-.33-1.59-.19-1.20-.16-1.00-.11-1.69-.09-1.25-.16-.16 1.15-.24 1.66-.16 1.13-.15 1.05-.16 1.18-.24 1.68-.17 1.18-.12 1.68 0 1.92 .01 2.02-0 1.27-.01 1.15-0 2.16-.01 1.98-.01 1.23-0 1.37 0 1.11-0 1.31-.01 1.01-.01 1.39 6.02 .74-.10 4.63-.03 1.33 1.24 1.05 2.06 1.73 1.15 .79 1.61 1.10 1.73 1.04 1.11 .69 1.07 .57 3.05 1.62 1.52 .64 1.58 .70 1.16 .21 1.78 .34 1.14-.15 1.46 .46 1.66 .57 1.83 .47 1.48 .40 1.27 .33 1.30 .28 1.05 .21 1.41 .75 3.19 .51 2.40 .22 2.13 .17 3.91-.07 .06-1.00 .07-1.01 .18-2.63 .07-1.03 .13-1.84 4.87-.39 .17-1.88 .10-1.19 .19-2.21 .17-2.12 .08-1.07L1124.18 383.81l .14-1.64 .14-1.66 2.87-.11 .11-1.13 .13-1.34 .09-1.27"/>
<path id="e7U5X2br" d="M1106.07 907.01l 1.13-2.52 .84-1.86-2.91-3.52-1.93-2.34-1.45-1.71-1.60-1.93-2.11-2.52-2.65-3.15-2.78-3.10-2.05-2.22-1.85-2.10-3.11-4.79-.98-1.52-.87-1.33-1.13-1.74-1.89-2.89-1.99-3.05-.78-1.21-7.49-11.53-3.97-6.05-3.49-5.38-2.87-4.45-2.14-3.26-6.23-9.55-2.47-3.84-1.74-2.69-.65-1.01-.69-1.39-.50-1.34-2.07-5.51-.83-2.21-.46-1.24-.69-1.86-.77-2.03-1.04-2.79-1.06-2.83-.59-1.35-6.37-10.72-1.59-2.64-2.90-3.93-4.38 2.66-2.61 1.86-1.63 1.16-1.04 .74-4.21 3.12-2.92 2.01-5.95 4.80-6.06 4.85-1.70 1.38 1.76 1.46 1.55 1.30 1.90 1.66 1.25 1.07 1.37 1.19 1.44 1.25 1.83 1.64 1.19 1.09 1.88 1.68 2.24 2.05 1.55 1.47 2.54 2.42 1.56 1.52 4.96 4.93 1.04 1.02 .98 1.02 .98 1.02 1.00 1.04 .99 1.02 1.50 1.57 1.45 1.51 2.94 3.18 1.85 2.04 .96 1.08 3.51 4.03 3.71 4.37 3.97 4.98 2.70 3.37 2.81 3.73 1.23 1.62 1.12 1.54 1.17 1.60 .95 1.36 1.69 2.39 1.37 1.94 1.30 1.94 3.81 5.67 2.12 3.31 1.66 2.59 1.63 2.67 1.68 2.85 .86 1.47 1.66 2.87 1.28 2.34 1.26 2.32 1.45 2.72 1.30 2.52 .80 1.61 1.73 3.62L1085.44 909.60l 1.10 2.39 1.07 2.49 .95 2.19 1.03 2.53 .52 1.27 .51 1.24 .71 1.95 1.18 3.29 .79 1.05 1.02 .53 1.08 .05 1.06-.50 .87-1.76 .37-1.06 .39-1.04 .48-1.17 1.00-2.13 .65-1.39 .96-2.05 2.19-4.71 .93-2.01 .97-2.09 .77-1.64"/>
<path id="e7U5X2bq" d="M1184.31 1102.79l-.48-2.08-.48-2.08-.39-1.76-.41-1.74-.48-2.10-.86-2.03-.58-1.39-.49-1.15-.64-2.71-.85-2.09-1.05-2.59-.63-1.55-1.39-3.41-.04-1.25-1.43-3.39-4.92 2.10-2.95 1.27-13.32 5.66-2.50 1.08-7.51 3.20-.52-2.68-2.65-6.23-2.31 .90-3.00 1.18-2.04 .81-2.03 .79-2.04 .81-1.80 .70-1.80 .72 .07 1.97 .12 3.42 .87 2.06 3.74 2.71 2.67 1.15 1.42 .62 1.40 .60 1.39 .60 1.37 .60 1.41 .60 1.13 .49 1.51 .64 2.43 1.04 2.10 .92 1.99 .85 1.74 .75 1.92 .83 2.43 1.04 1.60 .68 1.54 .66 1.63 .70 1.56 .66 1.65 .70 3.65 1.58 1.50 .64 7.62 3.28 3.82 1.64 3.68 .41 4.37-1.34-.82-2.40-.94-2.92-.98-4.21"/>
<path id="e7U5X2bp" d="M746.72 1127.05l 2.21-.09 1.03-.07 .21-1.04-3.57-2.07-1.17-.71-1.45-.86-3.09-1.82-2.25-1.32-2.20-1.32-2.22-1.29-1.72-1.02-1.73-1.03-2.45-1.44-2.81-1.65-2.80-1.65-1.94-1.15-1.94-1.15-1.92-1.13-2.15-1.28-3.00-2.25-1.73-1.64-7.80-4.60 .08 3.05-.03 2.36-.06 4.46-1.17 .04 .34 3.16 .31 2.84 .18 1.85 .19 1.95 .11 1.17 .27 2.86-.10 1.60 1.55-.07 .08 1.39 1.71-.03 1.68 1.89 .04 1.03 .10 1.89 2.55 .69 3.23-.14 2.27-.11 3.18-.12 1.67-.09 1.41-.05 1.61-.07 1.36-.06 1.71-.06 1.34-.06 1.65-.07 1.33-.06 1.35-.06 1.35-.06 1.33-.06 1.33-.06 1.32-.06 1.30-.06 1.32-.06 1.34-.06 1.35-.06 1.33-.06 1.30-.04 1.32-.06"/>
<path id="e7U5X2bo" d="M773.49 1125.31l-8.10-4.73-2.60-1.54-2.92-1.70-1.72-1.02-3.93-2.26-1.57-.92-1.53-.90-1.39-.84-4.60 7.83 34.12 20.83 1.26-2.28 .73-1.21 2.89-4.87-2.54-1.49-2.84-1.65-1.13-.65-4.15-2.62"/>
<path id="e7U5X2bn" d="M783.67 1141.87l 1.78-.09 7.06-5.14 13.43-11.24 3.05 1.00 4.04 1.15 92.43 1.98 18.27 .36 27.86 .55 6.42 .11 8.03 .17 1.46-19.28-.04-1.42-.36-6.14-.35-3.58-.72-5.86-5.24 .44 .20 1.95 .24 3.10 .21 2.21 .18 1.47-.20 1.34 .15 1.35 .18 1.35 .17 1.27 .17 1.35 .18 1.36 .18 1.33 .19 1.29-.03 1.33-.03 1.49-.16 1.44 .33 1.56 .32 1.62 .23 1.12-.52 1.07-.12 2.26-1.34 .68-1.62-.07-1.53-.07-6.52-.18-1.63-1.18-1.32 1.78-1.20 .58-2.40-.81-2.76-1.53-2.55-1.41-2.13-.78-4.80-.52 .08-2.26-2.93-.19-2.20-.14-2.48-.12-.02 1.42-.19 3.80-1.21-.05-2.46-.17-1.43 .02-3.60 .05-1.87 .02-.36-1.59-.17-1.56-1.68-.59-1.57 .15-1.00 .11-2.05 .35-2.71 .37-.17-1.03-.18-1.16-.17-1.02-.28-1.63-.80-3.82-8.44 .17 .11 4.62 .70 2.67 .02 1.09-.08 1.49-3.07 2.38-2.76 .05-2.81-.46-.31-2.23-2.99 .54-2.57-.57-.37-1.90-2.53 .20-3.44-.85-2.85-.01-.61-2.64-.56-2.44-1.05 .25-1.72 .38-1.77 .40-2.36 .54-2.74 .27-1.63 .37-1.14 .26-1.75-1.30-1.14-1.40-.83-1.21L853.12 1111.19l-1.02-2.01-.95-1.85-3.04-2.36-3.79-2.55-1.76-1.85-2.86-2.94-1.77-1.81-1.75 1.57-2.10 1.86-1.29 1.09-2.29-2.57-1.46-.11-.77 1.60-1.74 3.24-1.82 3.39-1.03 1.89-1.02 1.87-1.39 2.59-1.40 2.60-2.96 5.48-3.53-2.11-7.01-3.74-.67-3.05-.30-1.36-2.12-1.59-3.46-1.14-2.02-.66-3.10-1.05-6.43-3.15-2.65-.85-3.13 3.00-2.64 2.54 2.70 2.84 1.41 1.47 1.41 1.49 1.30 1.37 1.63 1.28 1.75 1.38 2.08 1.47-8.06 13.23-2.74 4.69-.76 1.29-1.04 1.75 4.11 2.45"/>
<path id="e7U5X2bm" d="M712.37 1131.25l-1.87 10.90 22.54 9.66 15.39 6.30 16.18 6.78 2.06 .84 10.90 4.34 11.47 4.58 6.47 2.54 19.71 7.90 3.92 1.59 24.39 9.73 6.22 2.49 5.91 2.74 10.83 4.02 2.38 .97 6.39 2.60 2.85 1.16 2.51 1.01 2.64 .66 13.48 3.38 2.98 .75 1.77 .43 2.42 .61 6.78 1.67 1.53 .38 1.53 .37 2.48 .63 2.04 .50 3.32 .82 13.92 3.48 3.49 1.02 3.04-1.57 3.81-2.22 4.16-2.61 1.04-1.40-.46-1.12-1.03-.49-3.87-1.33-10.47-3.59 2.84-2.45 2.02-1.26 2.48-1.75 3.47-2.79 2.10-1.88 2.68-2.65 1.53-1.68 1.95-2.32 3.48-4.83 3.03-5.20 1.34-2.77 .99-2.17 1.05-3.36 1.93-7.83 .43-2.72 .42-5.36 .03-4.16-.03-2.00-.02-2.42-.05-3.55-.05-4.08-.04-3.93-.03-3.55-8.94-.23-6.41-.14-28.14-.52-13.64-.30-2.66-.06-29.23-.60-11.33-.23-14.89-.32-40.81-.82-6.21-.13-4.19 3.22-3.61 2.47-11.21 8.14-4.49-3.47-24.41-14.35-4.89-.41-18.71 .79-3.50 .19-17.04 .79"/>
<path id="e7U5X2bl" d="M1181.59 1239.22l .36-9.16-14.66-.77-8.64-.46 .13-2.60 2.33-46.60 .15-4.12 .50-7.95 .02-1.35-.67-4.06-.33-1.46-.47-1.26-2.72-4.31-1.16-1.68-1.11-1.23-2.79-.22-7.00 1.34-4.09 .09-1.73-.19-1.76-.33-12.41-2.95-4.47-.99-3.17-.59-1.39-.24-2.23-.29-5.03-.15-1.62-.11-2.91-.17-1.78 4.29-1.69 14.53-12.45 32.93-.24 23.64 .77 9.78-1.19 4.01-6.84 25.66-2.90 8.56-3.96 8.68-1.08 2.25-1.04 2.31-1.09 1.95-1.38 3.09-.92 2.05-.87 1.96-.85 1.94-.95 2.13-1.07 2.38-.97 2.19-1.06 2.37-.95 2.13-2.67 6.20-1.11 2.48-1.12 2.56-.86 1.94-.83 1.88-.84 2.14-.88 2.08-1.43 2.57-6.92 15.13-4.19 12.08-.68 1.17-7.99 21.37 1.02 1.60 22.69 1.18 34.69 1.77 3.13 .15 1.53 .09 1.50 .09 1.58 .09 1.53 .07 1.45 .06 3.22 .18 22.06 1.14 2.41 .15 2.67 .14 2.39 .13 3.42 .18 3.67 .11 14.60 .76 .71-10.82-.07-3.43 16.70 .80 1.68-18.23 1.58-41.52 .28-5.10 1.55-13.43 .38-10.12-.27-10.35 .15-2.79 .19-3.82 .09-1.76 .11-2.93 1.12-4.03 .71-14.11 .36-4.89"/>
<path id="e7U5X2bk" d="M1452.34 440.80l-.36-1.72-.36-1.72-.36-1.72-.36-1.70-.37-1.73-.36-1.70-.36-1.73-.35-1.66-.37-1.74-.36-1.70-.49-2.33-2.58-12.23-.36-1.46-.54-1.58-.86-1.99-.92-1.67-1.06-1.70-1.58-1.99-5.83-6.97-1.39-1.67-2.51 1.83-1.33 .95-1.14-1.78-1.24-1.48-1.99-2.38-1.06 .54-1.29 .64-1.29 .66-1.31 .67-1.31 .67-.05 1.55 .32 2.17 .24 1.61 .47 2.10-1.30 .46 .37 2.13 .28 1.59 .30 1.72 .30 1.73 .28 1.70 .24 1.33 .22 1.28 .18 1.09 .89 5.14 .39 2.27 .39 2.29 .39 2.23 .52 3.09-.36 2.37 .22 1.06 .22 1.06 .20 1.02 .22 1.06 .29 1.43 .40 1.96 .22 1.03 .22 1.08 .22 1.06 .22 1.04 .30 1.52 .40 1.88 .22 1.03 .42 2.06 .22 1.08 .45 2.21 3.77-1.12 2.66-.77 3.74-1.08 4.00-1.17 2.75-.81 3.79-1.10 4.40-1.29 .09-1.70"/>
<path id="e7U5X2bj" d="M1408.43 823.10l 11.58-7.44-.91-7.60-.88-7.28-1.82-15.14-8.91-1.41-6.38-1.00-3.25 .52-3.61-1.61-4.91-.79 .51 3.46 3.82 20.73 1.08 6.51 .93 5.50 4.15-2.62 2.62-1.39 .63 1.19 5.35 8.37"/>
<path id="e7U5X2bi" d="M1179.79 898.54l-1.58-3.20-1.60-3.36-3.59-7.52-1.03-2.09-2.80-5.79-1.15-2.37-.93-1.91-3.57 1.70-1.40-3.33-1.41-2.84-2.33-5.54-7.75 5.75-2.40 1.04-.50-1.05-5.57 2.63-.38 1.12 1.76 3.64-16.63 7.68-4.59 1.98-3.38 .15 .02 1.57 .23 4.07 .17 4.23 .07 1.87 .05 1.63 .06 1.61 .09 2.04 .13 2.74 .22 4.88 8.44 13.38 2.57 3.88 1.97 3.01 1.99 3.03 .77 1.17 .87 1.33 .88 1.34 1.33 2.04 4.98-1.93 3.32-1.46 2.70-1.18 3.01-1.34 5.69-2.50 2.89-1.27 3.28-1.44 3.25-1.58 6.56 13.60 20.75-10.35-1.65-3.32-1.60-3.20-.91-1.81-1.21-2.43-1.21-2.43-2.13-4.29-.94-1.91-.93-1.85-.93-1.85-.90-1.83-.86-1.71-1.34-2.70-.84-1.71"/>
<path id="e7U5X2bh" d="M1825.81 962.80l-.94 5.17-.85 2.68 1.68 .54 10.38 4.42 1.52 .48 1.75 3.25 2.02 2.84 2.69 1.49 4.71-4.88-1.13 4.33 1.88 1.09 1.96 1.02-1.07 2.00 3.84 1.38-.52 1.12 6.76 2.66 .48-1.53 6.18 .54 1.76-.13 1.81 .77 4.69 1.65 1.02 .16 1.46 .37-3.39-6.50-1.35-2.51-1.41-1.38-4.31-3.67-1.68-1.46-2.50-1.70-3.41-1.85-4.17-2.07-3.51-1.50-5.64-2.07-5.20-1.98-5.02-2.03-4.04-1.56-6.44-1.11"/>
<path id="e7U5X2bg" d="M1773.07 873.03l-35.53 6.31-1.02 17.25-.78 14.20-1.92 32.73-1.14 13.62 .15 5.93-.72 10.45-.49 9.70-.75 13.66-.83 10.92-.02 2.81 .82 1.11 6.37 6.03 8.63-11.93 4.40-6.27 5.20-5.74 1.97 1.51 24.73 19.64 3.02-2.88 1.43-1.68 2.36-3.30 1.53-1.68 1.34-1.98 .09-2.14-.71-1.86-3.00-9.64-10.33-10.81-3.17-2.83 24.44-23.46-25.33-79.31"/>
<path id="e7U5X2bf" d="M2128.84 962.26l-2.74 5.84-13.33 28.39-8.62 18.31-8.09-2.77-9.38 19.90 3.26 1.37 11.63 5.60 15.10 7.30 9.81 4.83 1.29 .20 9.61 1.61 18.75 3.22 1.64 .01 1.76 .07 18.40 .18 6.67 .09 .23-17.47 .23-25.74-2.76-.53-.66-28.96 20.14-.62-10.61-23.12-37.32 1.35-16.67 .64-8.34 .31"/>
<path id="e7U5X2be" d="M2046.63 1017.44l-18.23 9.20-3.27 1.58-2.36-4.26-6.96 3.52-9.24 4.47-5.68 2.15-1.18 .22-3.54 8.16 2.11 3.77 .99 5.64 1.02 6.65 9.10 4.00 .14-8.40 .17-2.29 2.15-.02 15.19-.19 4.24 1.10 4.27 1.09 3.91 1.01 2.75 .20 16.96 1.98 4.51 .52-2.05 2.43-2.71 3.02-9.77 10.58-7.98 8.67-3.76-3.28-8.62 9.18-1.79 2.17-3.64 9.05 31.84 13.03 4.00-7.73 10.93 6.03 12.43 12.52 5.80-6.87 2.61-3.85-.70-2.82-.47-3.62-.25-2.19 .03-4.10 .08-3.47 .83-5.35 1.14-4.67 1.15-3.22 1.29-3.21 1.41-2.81 3.45-5.99 7.75-11.35 5.96-8.75 1.16-1.93-10.62-5.21-14.78-7.07-16.51-7.56-25.29-11.72"/>
<path id="e7U5X2bd" d="M2127.72 1147.98l-10.19 7.49-1.55-2.44-7.13 4.69 1.87 2.39 9.05 10.39 1.28 1.74 .90 1.53 2.50 3.92 1.96 2.00 2.95 2.98 7.62 8.49 5.68 4.45 4.72 2.86 5.12 3.22 4.74-7.51-.50-3.09 6.27-11.25-6.51-2.67-3.78-.82-2.64-2.02-4.94-4.23-4.27-3.71-1.89-2.06-3.98-4.46-7.28-11.89"/>
<path id="e7U5X2bc" d="M1427.74 1183.75l .61 5.83 1.33 5.57 3.13 13.44 1.87 6.16 2.88 5.77 2.66 4.06 3.10 3.66 3.37 4.39 3.01 2.53 2.35 1.24 .94 1.16 2.88 2.25 9.13 5.33 5.12 2.61 5.16 1.76 10.53 2.14 28.56 .73 4.12-.25 15.97 .38 11.89-.08 26.03 .20 16.00-.04 7.06 .43 10.21-.59 11.61-.23 7.69-1.10 10.85-2.53 13.10-5.40 8.83-4.87 8.30-5.90 7.51-7.19 6.54-7.66 4.22-6.34 1.88-4.17 10.22-25.33 1.31-4.21 1.51-2.33-45.28-10.48 11.28-51.05-1.54-.34-5.58 1.46-8.45 2.62-19.38 6.86-45.50 15.69-17.66 6.08-10.76 3.65-16.92 5.68-9.02 2.33-3.86 1.11-5.28 1.19-7.58 1.68-11.86 2.78-4.16 1.24-15.99 3.73-5.71 1.34-11.00 2.52-15.01 3.64-.50 1.67-4.00 1.11-17.71 4.09"/>
<path id="e7U5X2bb" d="M2205.38 1307.31l .84 2.57 7.29 23.15 .65 2.23 3.52-.85 10.21-2.40 18.59-4.27-7.08-12.99-3.03-5.86-1.93-3.83-2.88-6.19-26.17 8.43"/>
</defs>
<style type="text/css" id="gwmstyles"><![CDATA[
.GWMLine
{
stroke:#000000;
fill:none;
opacity:0;
stroke-width:1px;
pointer-events:visiblePainted;}
.GWMLine-H-
{
stroke:#000000;
fill:none;
opacity:0;
stroke-width:1px;
pointer-events:none;}
.GWMLine-S-
{
stroke:#000000;
fill:none;
opacity:0;
stroke-width:1px;
pointer-events:none;}
.GWMFill
{
stroke:#000000;
fill:#ff0000;
opacity:0;
stroke-width:1px;
pointer-events:visiblePainted;}
.GWMFill-H-
{
stroke:#000000;
fill:#000000;
opacity:0;
stroke-width:1px;
pointer-events:none;}
.GWMFill-S-
{
stroke:#000000;
fill:#000000;
opacity:0;
stroke-width:1px;
pointer-events:none;}
.e7U5X2b
{
stroke:#3399ff;
fill:none;
stroke-width:1.33333px;
stroke-linecap:round;
stroke-linejoin:round;
pointer-events:visiblePainted}
.e7U5X2b-H-
{
stroke:#00ffff;
fill:none;
stroke-opacity:0.501961;
stroke-width:1.33333px;
stroke-linecap:round;
stroke-linejoin:round;
pointer-events:none;}
.e7U5X2b-S-
{
stroke:#00ff00;
fill:none;
stroke-opacity:0.501961;
stroke-width:1.33333px;
stroke-linecap:round;
stroke-linejoin:round;
pointer-events:none;}
.e7U5X2a
{
fill:url(#_e7U5X2a);
stroke:none;
pointer-events:visible}
.e7U5X2a-H-
{
fill:url(#_P9-H-);
stroke:none;
fill-opacity:0.501961;
pointer-events:none;}
.e7U5X2a-S-
{
fill:url(#_P9-S-);
stroke:none;
fill-opacity:0.501961;
pointer-events:none;}
]]></style>
<mask id="gwmmask">
<rect id="gwmmaskrect" x="0" y="0" width="3014" height="2936" style="fill:white;"/>
</mask>
<g id="_GWMAll" gmwmsvg:typ="a" mask="url(#gwmmask)">
<metadata><gmwmsvg:metadata id="_GWMMetadata" gmwmsvg:storageoffsetx="338250.877346730090000" gmwmsvg:storageoffsety="5684324.790000000000000" gmwmsvg:storagetoreadoutscale="1.000000000000000" gmwmsvg:readoutoffsetx="0.000000000000000" gmwmsvg:readoutoffsety="0.000000000000000" gmwmsvg:readoutunit="m" gmwmsvg:storagetodistancescale="1.000000000000000" gmwmsvg:distanceunit="m" gmwmsvg:displaytostoragescale="0.178149178092745" gmwmsvg:rotationangle="0.000000000000000" gmwmsvg:version="2.0"/></metadata>
<rect id="gwmbg" x="-30140" y="-29360" width="63294" height="61656" style="fill:#ffffff;stroke:none;opacity:0.000000000000000;"/>
<g id="10" gmwmsvg:typ="l">
<use xlink:href="#e7U5X2bb" id="e7U5X2bb.0" class="e7U5X2a"/>
<use xlink:href="#e7U5X2bb" id="e7U5X2bb.1" class="e7U5X2b"/>
<use xlink:href="#e7U5X2bc" id="e7U5X2bc.0" class="e7U5X2a"/>
<use xlink:href="#e7U5X2bc" id="e7U5X2bc.1" class="e7U5X2b"/>
<use xlink:href="#e7U5X2bd" id="e7U5X2bd.0" class="e7U5X2a"/>
<use xlink:href="#e7U5X2bd" id="e7U5X2bd.1" class="e7U5X2b"/>
<use xlink:href="#e7U5X2be" id="e7U5X2be.0" class="e7U5X2a"/>
<use xlink:href="#e7U5X2be" id="e7U5X2be.1" class="e7U5X2b"/>
<use xlink:href="#e7U5X2bf" id="e7U5X2bf.0" class="e7U5X2a"/>
<use xlink:href="#e7U5X2bf" id="e7U5X2bf.1" class="e7U5X2b"/>
<use xlink:href="#e7U5X2bg" id="e7U5X2bg.0" class="e7U5X2a"/>
<use xlink:href="#e7U5X2bg" id="e7U5X2bg.1" class="e7U5X2b"/>
<use xlink:href="#e7U5X2bh" id="e7U5X2bh.0" class="e7U5X2a"/>
<use xlink:href="#e7U5X2bh" id="e7U5X2bh.1" class="e7U5X2b"/>
<use xlink:href="#e7U5X2bi" id="e7U5X2bi.0" class="e7U5X2a"/>
<use xlink:href="#e7U5X2bi" id="e7U5X2bi.1" class="e7U5X2b"/>
<use xlink:href="#e7U5X2bj" id="e7U5X2bj.0" class="e7U5X2a"/>
<use xlink:href="#e7U5X2bj" id="e7U5X2bj.1" class="e7U5X2b"/>
<use xlink:href="#e7U5X2bk" id="e7U5X2bk.0" class="e7U5X2a"/>
<use xlink:href="#e7U5X2bk" id="e7U5X2bk.1" class="e7U5X2b"/>
<use xlink:href="#e7U5X2bl" id="e7U5X2bl.0" class="e7U5X2a"/>
<use xlink:href="#e7U5X2bl" id="e7U5X2bl.1" class="e7U5X2b"/>
<use xlink:href="#e7U5X2bm" id="e7U5X2bm.0" class="e7U5X2a"/>
<use xlink:href="#e7U5X2bm" id="e7U5X2bm.1" class="e7U5X2b"/>
<use xlink:href="#e7U5X2bn" id="e7U5X2bn.0" class="e7U5X2a"/>
<use xlink:href="#e7U5X2bn" id="e7U5X2bn.1" class="e7U5X2b"/>
<use xlink:href="#e7U5X2bo" id="e7U5X2bo.0" class="e7U5X2a"/>
<use xlink:href="#e7U5X2bo" id="e7U5X2bo.1" class="e7U5X2b"/>
<use xlink:href="#e7U5X2bp" id="e7U5X2bp.0" class="e7U5X2a"/>
<use xlink:href="#e7U5X2bp" id="e7U5X2bp.1" class="e7U5X2b"/>
<use xlink:href="#e7U5X2bq" id="e7U5X2bq.0" class="e7U5X2a"/>
<use xlink:href="#e7U5X2bq" id="e7U5X2bq.1" class="e7U5X2b"/>
<use xlink:href="#e7U5X2br" id="e7U5X2br.0" class="e7U5X2a"/>
<use xlink:href="#e7U5X2br" id="e7U5X2br.1" class="e7U5X2b"/>
<use xlink:href="#e7U5X2bs" id="e7U5X2bs.0" class="e7U5X2a"/>
<use xlink:href="#e7U5X2bs" id="e7U5X2bs.1" class="e7U5X2b"/>
<use xlink:href="#e7U5X2bt" id="e7U5X2bt.0" class="e7U5X2a"/>
<use xlink:href="#e7U5X2bt" id="e7U5X2bt.1" class="e7U5X2b"/>
<use xlink:href="#e7U5X2bu" id="e7U5X2bu.0" class="e7U5X2a"/>
<use xlink:href="#e7U5X2bu" id="e7U5X2bu.1" class="e7U5X2b"/>
<use xlink:href="#e7U5X2bv" id="e7U5X2bv.0" class="e7U5X2a"/>
<use xlink:href="#e7U5X2bv" id="e7U5X2bv.1" class="e7U5X2b"/>
<use xlink:href="#e7U5X2bw" id="e7U5X2bw.0" class="e7U5X2a"/>
<use xlink:href="#e7U5X2bw" id="e7U5X2bw.1" class="e7U5X2b"/>
<use xlink:href="#e7U5X2bx" id="e7U5X2bx.0" class="e7U5X2a"/>
<use xlink:href="#e7U5X2bx" id="e7U5X2bx.1" class="e7U5X2b"/>
<use xlink:href="#e7U5X2by" id="e7U5X2by.0" class="e7U5X2a"/>
<use xlink:href="#e7U5X2by" id="e7U5X2by.1" class="e7U5X2b"/>
<use xlink:href="#e7U5X2bz" id="e7U5X2bz.0" class="e7U5X2a"/>
<use xlink:href="#e7U5X2bz" id="e7U5X2bz.1" class="e7U5X2b"/>
<use xlink:href="#e7U5X2bA" id="e7U5X2bA.0" class="e7U5X2a"/>
<use xlink:href="#e7U5X2bA" id="e7U5X2bA.1" class="e7U5X2b"/>
<use xlink:href="#e7U5X2bB" id="e7U5X2bB.0" class="e7U5X2a"/>
<use xlink:href="#e7U5X2bB" id="e7U5X2bB.1" class="e7U5X2b"/>
<use xlink:href="#e7U5X2bC" id="e7U5X2bC.0" class="e7U5X2a"/>
<use xlink:href="#e7U5X2bC" id="e7U5X2bC.1" class="e7U5X2b"/>
<use xlink:href="#e7U5X2bD" id="e7U5X2bD.0" class="e7U5X2a"/>
<use xlink:href="#e7U5X2bD" id="e7U5X2bD.1" class="e7U5X2b"/>
<use xlink:href="#e7U5X2bE" id="e7U5X2bE.0" class="e7U5X2a"/>
<use xlink:href="#e7U5X2bE" id="e7U5X2bE.1" class="e7U5X2b"/>
<use xlink:href="#e7U5X2bF" id="e7U5X2bF.0" class="e7U5X2a"/>
<use xlink:href="#e7U5X2bF" id="e7U5X2bF.1" class="e7U5X2b"/>
<use xlink:href="#e7U5X2bG" id="e7U5X2bG.0" class="e7U5X2a"/>
<use xlink:href="#e7U5X2bG" id="e7U5X2bG.1" class="e7U5X2b"/>
<use xlink:href="#e7U5X2bH" id="e7U5X2bH.0" class="e7U5X2a"/>
<use xlink:href="#e7U5X2bH" id="e7U5X2bH.1" class="e7U5X2b"/>
<use xlink:href="#e7U5X2bI" id="e7U5X2bI.0" class="e7U5X2a"/>
<use xlink:href="#e7U5X2bI" id="e7U5X2bI.1" class="e7U5X2b"/>
<use xlink:href="#e7U5X2bJ" id="e7U5X2bJ.0" class="e7U5X2a"/>
<use xlink:href="#e7U5X2bJ" id="e7U5X2bJ.1" class="e7U5X2b"/>
<use xlink:href="#e7U5X2bK" id="e7U5X2bK.0" class="e7U5X2a"/>
<use xlink:href="#e7U5X2bK" id="e7U5X2bK.1" class="e7U5X2b"/>
<use xlink:href="#e7U5X2bL" id="e7U5X2bL.0" class="e7U5X2a"/>
<use xlink:href="#e7U5X2bL" id="e7U5X2bL.1" class="e7U5X2b"/>
<use xlink:href="#e7U5X2bM" id="e7U5X2bM.0" class="e7U5X2a"/>
<use xlink:href="#e7U5X2bM" id="e7U5X2bM.1" class="e7U5X2b"/>
</g>
</g>
</svg>
