<?xml version="1.0" encoding="UTF-8"?>
<svg xml:space="preserve" id="gwmroot" preserveAspectRatio="xMidYMid meet" viewBox="0 0 1138 367" xmlns="http://www.w3.org/2000/svg" xmlns:xlink="http://www.w3.org/1999/xlink" xmlns:gmwmsvg="http://www.intergraph.com/GeoMedia/wmsvg" style="stroke-linejoin:round">
<script type="text/javascript" id="gwmlegendscript"><![CDATA[
var _GWMLegendDisplayOrder = [
{name : "10", title : "Erhaltungssatzung", locatable :true, leaf : true, hotspot : false, members : [
]}
];
var _GWMLegendGroup = [
{name : "10", title : "Erhaltungssatzung", members : [
]}
];
]]></script>
<defs id="gwmdefs">
<filter id="HaloE7z0p6b" filterUnits="objectBoundingBox" x="-20%" y="-20%" width="140%" height="140%">
<feColorMatrix in="SourceAlpha" result="color" type="matrix" values="0 0 0 0 0.13 0 0 0 0 0.00 0 0 0 0 0.24 0 0 0 1 0"/>
<feMorphology in="color" radius="0.00,0.00" operator="dilate" result="outline"/>
<feComposite in="SourceGraphic" in2="outline"/>
</filter>
<filter id="HaloE7z0p6a" filterUnits="objectBoundingBox" x="-20%" y="-20%" width="140%" height="140%">
<feColorMatrix in="SourceAlpha" result="color" type="matrix" values="0 0 0 0 0.00 0 0 0 0 0.00 0 0 0 0 0.00 0 0 0 1 0"/>
<feMorphology in="color" radius="16175315.14,16175315.14" operator="dilate" result="outline"/>
<feComposite in="SourceGraphic" in2="outline"/>
</filter>
<path d="M0 0l1 0 0 1-1 0zM2 1l1 0 0 1-1 0z" id="_P9"/>
<pattern id="_E7z0p6a" patternUnits="userSpaceOnUse" x="0" y="0" width="4" height="2" style="stroke:none;fill:#3399ff">
<use xlink:href="#_P9"/>
</pattern>
<pattern id="_P9-H-" patternUnits="userSpaceOnUse" x="0" y="0" width="4" height="2" style="stroke:none;fill:#00ffff">
<use xlink:href="#_P9"/>
</pattern>
<pattern id="_E7z0p6a" patternUnits="userSpaceOnUse" x="0" y="0" width="4" height="2" style="stroke:none;fill:#3399ff">
<use xlink:href="#_P9"/>
</pattern>
<pattern id="_P9-S-" patternUnits="userSpaceOnUse" x="0" y="0" width="4" height="2" style="stroke:none;fill:#00ff00">
<use xlink:href="#_P9"/>
</pattern>
<path id="E7z0p6bM" d="M452.53 203.53l-1.17 .54-1.01 .96-1.03 .81 1.19 .11 1.20-1.08 .92-1.03"/>
<path id="E7z0p6bL" d="M458.55 208.88l-.08-1.38-.10-1.85-1.92-.49-1.05-.06-1.18 3.01 1.46 .27 1.07 .18 1.30 .24"/>
<path id="E7z0p6bK" d="M557.27 210.01l-1.43 1.21-.11 1.22 .94 1.27 1.30 1.42 1.08 1.33 1.01 1.23 1.00-.29 1.14-.61 1.64-1.18 1.14 1.11 1.27 .20 1.00 .06 1.16-.88 .31-1.05-.92-1.12 .07-1.43 1.09 .02 .30-1.16 .16-1.02-.16-1.02-1.11-.53-1.11-.53-1.13-.49-.68-1.02-1.22-.28-1.07 .40-1.60 .53-1.20 .38-1.12 .23-1.09 .34-1.06 .16 .33 1.44"/>
<path id="E7z0p6bJ" d="M539.40 230.04l-.45-1.08-1.45-.75-1.07-1.04-1.10-1.38-1.11-.50 .14-1.01-1.60-1.38-.53 1.11-.49 1.04-1.25 .70-1.01-.48-1.21-.60-1.07 .37-.94 1.01 .26 1.04 2.11 1.47 1.09 .94 1.02 .65 1.89 .66 1.15 .56 1.01 .87 1.01 .23 1.08 .54 .85-1.00 .89-1.04"/>
<path id="E7z0p6bI" d="M507.70 294.40l-.53-1.07-.71-1.08 .14-1.28-.76-1.05-.49-1.15-.77-1.06-.77-1.01-.55-1.41-1.43 .47-.20 1.54 .49 1.11-.58 1.05-1.10 2.37 2.26-.48 1.01 1.40 .69 1.55 1.06 .52 1.41 .21"/>
<path id="E7z0p6bH" d="M602.74 307.35l 1.40 .05 1.03-.21-.41-1.77-.49-1.04-1.21-.94-1.25 .13-1.11 .12-.11-2.01-1.71-.46-1.10-.01-1.09-.01-1.43-.02-1.14-.01-1.38 .01-.19 1.80-.16 1.52-.14 1.28-.13 1.45 .06 2.27 2.36 .07 .25 1.24 3.19 .09 1.07-.02 1.45 .04 1.44 .04 .86-1.16-.14-2.16"/>
<path id="E7z0p6bG" d="M596.60 348.88l 1.06 .45 1.14-.08 1.09-.10 1.03-.05 1.05 .17 1.02-.09 .26-1.04 1.12 .09 1.08 .14 .34-1.15-1.16-.82 .23-1.10 .20-1.01 .50-1.12-1.43-.71-1.08-.75-1.38 1.09-.94 1.01-1.37 .58-.19 1.04-1.01 .83-1.02 .95-.41 1.17"/>
<path id="E7z0p6bF" d="M605.63 153.98l .38 1.30 4.58-.79-.27-1.78-1.29 .23-1.18 .20-1.33 .46"/>
<path id="E7z0p6bE" d="M596.70 163.60l .36 1.88 3.14-.15 1.05 .55 1.14-.04 1.89-.02 .51-2.08-1.24-.11-1.10-0-2.94-.01-2.75-.01"/>
<path id="E7z0p6bD" d="M561.94 201.87l .12-1.23-1.06 .14-1.79 1.22-1.90 .17-1.21-.04 .11 1.01 .95 1.39 0 1.38 .85 1.79 1.32-.22 1.18-.76-.47-1.02-.77-1.55 1.42-.40 .18-1.02 1.20-.57"/>
<path id="E7z0p6bC" d="M553.87 190.50l .06 1.14 1.25 .28 1.01-.06 1.15-.11 1.01-.01 1.09-.11 1.03 .51 .87 1.07 .69 1.14 2.09 .73 1.13 .31 .40-1.15-.11-1.43-.17-1.28-.35-1.06 1.10-.46 1.04 .09-.24-3.38-1.52-1.59 .31-1.17 1.76-.82-.64-1.99-2.35 .16-.65 1.11-1.57 .06-1.20-.77-1.65 .35-1.30 .15-1.11 1.29-.93 1.08-1.06 1.24-.93 1.08-1.15 .68 .81 1.28 .15 1.64"/>
<path id="E7z0p6bB" d="M545.72 186.50l 1.08-.50 1.39-.66 .89-1.08 1.16-.44-1.10-.71-1.05-.67-1.16 .19-1.72 1.65 .50 2.22"/>
<path id="E7z0p6bA" d="M517.83 190.65l .42-1.02-.68-1.14-.68-1.14-.69-1.15-.91-1.52-.56-1.08-1.12 .44-1.29 .43-.20 1.93-.15 1.11-.07 1.03-.42 1.19 1.87 .30 1.03 .13 1.04 .22 1.08 .12 1.33 .15"/>
<path id="E7z0p6bz" d="M507.72 172.58l .18-1.38-1.13 .56-1.05 .79-1.09 .82 .44 1.04 1.11-.58 1.35-1.10"/>
<path id="E7z0p6by" d="M503.27 147.50l .50 1.18 .83 1.44 .95 1.58 1.69 2.96 4.51 1.09 1.34 .50 2.69 1.88 2.89 2.05 4.01-4.50-2.61-.76-.24-1.60 .54-2.61 1.43 .31 .44-1.35 1.06-1.26 2.19-.73 .08-1.10-1.80-.36-1.26-.17-1.15-.03-1.75-.06-1.57 0-1.45-.01-2.04-.05-2.78-.10-4.10 .03-1.50 .17-1.26 .43-1.25 .75"/>
<path id="E7z0p6bx" d="M504.81 169.71l-1.09-.67-1.27-.33-1.34-.28-1.06-.23-1.03-.15-1.02-.14-1.30-.16-1.10-.09-1.17-.10-1.05-.06-1.05-.06-.51 1.03-.14 2.19-1.79 .07-1.25-.19-.50 1.72 3.50 .78-.15 2.43-3.77-.24-.12 2.93-.03 1.38 .20 1.22 .30 1.20 .84 1.28 1.14-.06 .90 1.31 .06 1.25 1.54 .11 2.40-2.75 .44-3.19-.48-2.26 1.73-1.42 1.24 .76-.27-1.17 .33-1.34 1.05-1.24 1.15-.73 .82-1.09 1.23-1.11 1.22-.27 1.00-.22"/>
<path id="E7z0p6bw" d="M475.35 182.61l-.14 3.66 1.64 .02 1.79-.75 1.23-.93 1.12-1.05 1.12-1.10 .45-1.17 1.08-1.11 .81-1.04 .74-1.16 .60-1.56 .23-1.62 .05-1.05 .05-1.15 .13-2.19 .09-1.48-1.25-.73-1.67-.28-1.08-.19-1.03-.14-1.06-.10-1.97-.24-1.28-.14-1.10 .45-.10 2.72 .34 1.25-.50 3.35-.14 3.85-.10 2.81-.04 1.07"/>
<path id="E7z0p6bv" d="M465.87 191.06l-1.25-.78-1.19 .28-1.29 .31-1.10 .26-1.16 .28-1.08 .13-1.07 .06-1.03-.07-1.06-.16-1.17-.32-1.22-.52-1.23-.78 0 1.06 1.01 1.12-.16 1.26-.83 1.23 1.14 1.27-1.11 1.30 1.02 .56-.67 1.55 1.21 .53 1.68-.21 .58-1.36 1.33-.54 2.19 .61 1.11-1.20 1.44-1.95 1.04-.03 1.18 .05 1.19 .15 .17-1.18 .13-1.11 .12-1.03"/>
<path id="E7z0p6bu" d="M456.62 172.99l .55-1.28 .64-1.40 .68-1.49-1.30-.86-2.10-.79-3.13 4.09-1.75-.63-1.76-1.27-1.53 .38-.84 2.87-.10 1.40-.23 3.24 .17 1.50 2.53 1.98 1.29 .55 2.53 .39 2.07 .20 .47-1.03 .16-1.04 .16-1.01 .18-1.13 .16-1.05 .18-1.13 .44-1.40 .52-1.06"/>
<path id="E7z0p6bt" d="M432.35 178.25l 1.13 .30 1.03 .01 1.12 .01 1.19 .25 1.04 .09 1.19 .50 1.21 .37 .27-1.04-1.49-1.12 .18-1.00-.57-1.20-.06-1.03-1.21-.90 .01-1.22-.35-1.13-1.38-.33-1.03 1.04-1.10 1.11-.65 1.17-.02 1.25 .73 1.12-.83 1.27"/>
<path id="E7z0p6bs" d="M462.87 35.42l-.08-1.02-.29-1.02-.33-1.04-1.15 0-1.02 .20-1.16 .10-1.26-.14-1.06-.13-1.00 1.04-.02 1.01-0 1.02 .74 1.10 1.11 .97 1.05 .47 1.17 .26 1.03 .26 1.06 .04 .70-1.22 .09-1.01"/>
<path id="E7z0p6br" d="M460.17 101.84l-.36-1.28-.98-1.17-1.23-1.53-.86-1.32-1.04-1.60-.94-1.43-1.41-2.16-.65-1.02-.47-1.24-.39-1.05-.98-1.81-1.11-.49-1.19 .86-1.11 .85-.70 1.00 1.12 .97 1.18 1.09 1.07 1.06 1.11 1.17 1.26 1.44 .83 1.05 .79 1.06 1.14 1.67 .68 1.07 .69 1.19 .60 1.15 .49 1.06 .45 1.06 .50 1.00 .76-1.12 .51-1.10"/>
<path id="E7z0p6bq" d="M469.97 126.35l-.28-1.22-.43-1.17-.39-1.10-1.16-0-1.67 .71-1.25 .54-.40-1.11-1.17 .46-.57 1.21 1.16 .64 1.16 .50 1.28 .55 1.46 .62 1.14 .49 1.49 .09-.34-1.19"/>
<path id="E7z0p6bp" d="M415.17 129.39l-1.01-1.00-1.29-.76-1.19-.70-1.10-.79-1.13 .67 .13 1.23 .66 1.11 1.03 .42 1.09-.05 1.16-.05 1.16-.05"/>
<path id="E7z0p6bo" d="M418.52 129.17l-1.01-.59-1.40-.82-1.14 .65 4.27 2.61 .61-1.05-1.33-.80"/>
<path id="E7z0p6bn" d="M419.79 131.25l 1.11-.66 1.68-1.41 12.46 .52 2.29 .04 3.49 .07 1.81 .03 .18-2.41-.09-1.40-.60 1.08 .08 1.02 .01 1.13-1.38 .05-1.17-.14-1.19-.34-1.12 .31-1.17-.01-1.20-.34-.20-1.08-1.06 .02 .10 1.00-1.09 .48-1.10-.50-1.07-.71-1.07 .20-1.01-.80-1.10-1.10-1.02-.63-1.01 .27-.56 1.03-.85 1.57-1.32-.73-1.07-.98-1.19-.53-1.05 .59 1.06 1.06-.53 2.01-.05 1.28"/>
<path id="E7z0p6bm" d="M410.87 129.92l-.23 1.36 2.82 1.21 1.93 .79 2.03 .85 1.62 .65 1.44 .57 3.28 1.31 3.54 1.42 1.52 .65 1.36 .50 1.10 .45 1.00 .35 1.69 .42 1.75 .43 1.37 .34 1.74 .44 1.30-.35-1.33-1.32 1.35-1.03 1.03-1.07 .82-1.26 .42-1.04 .30-1.32 .06-1.19-.02-1.51-1.13-.97-4.33-.08-1.71-.04-3.99-.08-1.42-.03-1.86-.04-5.11-.10-1.30 .39-1.86 1.33-3.62-2.23-2.96 .05-2.57 .12"/>
<path id="E7z0p6bl" d="M469.63 143.44l .05-1.15-1.84-.10-1.08-.06 .31-6.16 .08-1.51-.18-1.02-1.85-.76-2.50-.42-1.13-.23-1.11-.07-.80 2.34-1.56 4.12-.03 2.96 .10 1.22-1.01 3.72-.36 1.07-.50 1.09-.57 1.20-.45 1.01-.51 1.14-.47 1.09-.46 1.07-1.16 2.48-.52 1.51-1.09 2.82 2.97 .35 4.34 .22 1.16 .06 3.35 .17 1.36 .08 2.29 .11 .09-1.36 2.08-.33 .21-2.28 .20-5.20 .23-2.32 .05-1.27-.03-1.30 .05-1.05 .24-2.64"/>
<path id="E7z0p6bk" d="M503.53 43.45l-.23-1.07-.23-1.07-.38-1.82-.47-1.05-.93-1.12-1.20-.57-.72 1.07 .01 1.00 .26 1.54 .21 1.24 .10 1.00 .25 1.20 1.44 .43 1.32-.38"/>
<path id="E7z0p6bj" d="M498.03 91.33l 1.45-.93-.22-1.86-.23-1.90-1.12-.18-1.21-.06-1.07-.30 .54 3.03 .25 1.50 1.60 .70"/>
<path id="E7z0p6bi" d="M469.40 100.77l-.85-1.76-.62-1.28-1.21-1.49-1.27 .85-2.67 1.76-.95 1.50 .05 1.24 1.09 2.29 .82 1.24 1.11 .50 1.13-.50 1.07-.47 1.64 1.33 2.60-1.30-.52-1.04-.57-1.15-.57-1.15"/>
<path id="E7z0p6bh" d="M550.30 108.82l-.01 1.05 1.30 .55 1.00 1.01 1.28 .62 1.61 .35 1.03 .29-.28-1.06-1.24-1.03-1.39-.68-1.36-.51-1.13-.45"/>
<path id="E7z0p6bg" d="M543.69 97.58l-4.45 .79-.13 2.16-.10 1.78-.24 4.10-.14 1.71-.07 2.05-.06 1.21-.09 1.71-.10 1.37 .90 1.25 1.08-1.49 1.20-1.50 3.34 2.65 1.05-1.20-.28-1.96-1.29-1.35 2.66-3.29-3.17-9.93"/>
<path id="E7z0p6bf" d="M588.25 108.76l-2.01 4.29-1.08 2.29-1.01-.35-1.17 2.49 1.86 .87 1.89 .91 1.23 .60 1.36 .23 2.35 .40 2.73 .03 .86-2.18 .03-3.22-.43-3.69 2.52-.08-1.33-2.90-4.67 .17-2.09 .08-1.04 .04"/>
<path id="E7z0p6be" d="M577.95 115.66l-2.28 1.15-1.58 .11-1.16 .56-1.30 1.32 .39 1.18 1.27 1.33 .02-1.05 2.19-.31 1.07 .27 2.96 .40-1.25 2.07-1.00 1.09-1.55 .74-.68 1.40 3.99 1.63 1.87-.21 1.56 1.57 1.05-1.34-.18-1.08 .12-1.62 .45-1.39 .61-1.10 .97-1.42 .75-1.10-1.18-.89-1.85-.89-2.07-.95-3.17-1.47"/>
<path id="E7z0p6bd" d="M588.10 132.01l-1.28 .94-1.09 .28 1.37 1.60 .83 1.15 1.32 1.44 1.30 .91 1.23-.54 .72-1.80-1.29-.44-1.48-1.25-1.65-2.30"/>
<path id="E7z0p6bc" d="M500.45 136.49l .24 1.43 .39 1.68 .59 1.49 1.14 1.52 1.15 .90 1.14 .67 1.29 .55 1.32 .27 3.58 .09 2.52 .02 1.49-.01 3.26 .03 2.00-0 2.16-.02 1.45-.03 2.32-.45 1.64-.68 1.11-.61 1.04-.74 1.76-1.86 .76-1.32 1.28-3.17-5.32-2.13 1.41-6.39-1.95 .47-2.43 .86-5.70 1.97-2.21 .76-1.35 .46-2.12 .71-1.13 .29-1.14 .29-2.43 .56-2.52 .62-2.09 .48-1.88 .46-2.78 .86"/>
<path id="E7z0p6bb" d="M597.83 151.96l 1.02 3.22 1.80-.13 2.33-.53-.89-1.63-.62-1.21-3.64 .28"/>
</defs>
<style type="text/css" id="gwmstyles"><![CDATA[
.GWMLine
{
stroke:#000000;
fill:none;
opacity:0;
stroke-width:1px;
pointer-events:visiblePainted;}
.GWMLine-H-
{
stroke:#000000;
fill:none;
opacity:0;
stroke-width:1px;
pointer-events:none;}
.GWMLine-S-
{
stroke:#000000;
fill:none;
opacity:0;
stroke-width:1px;
pointer-events:none;}
.GWMFill
{
stroke:#000000;
fill:#ff0000;
opacity:0;
stroke-width:1px;
pointer-events:visiblePainted;}
.GWMFill-H-
{
stroke:#000000;
fill:#000000;
opacity:0;
stroke-width:1px;
pointer-events:none;}
.GWMFill-S-
{
stroke:#000000;
fill:#000000;
opacity:0;
stroke-width:1px;
pointer-events:none;}
.E7z0p6b
{
stroke:#3399ff;
fill:none;
stroke-width:1.33333px;
stroke-linecap:round;
stroke-linejoin:round;
pointer-events:visiblePainted}
.E7z0p6b-H-
{
stroke:#00ffff;
fill:none;
stroke-opacity:0.501961;
stroke-width:1.33333px;
stroke-linecap:round;
stroke-linejoin:round;
pointer-events:none;}
.E7z0p6b-S-
{
stroke:#00ff00;
fill:none;
stroke-opacity:0.501961;
stroke-width:1.33333px;
stroke-linecap:round;
stroke-linejoin:round;
pointer-events:none;}
.E7z0p6a
{
fill:url(#_E7z0p6a);
stroke:none;
pointer-events:visible}
.E7z0p6a-H-
{
fill:url(#_P9-H-);
stroke:none;
fill-opacity:0.501961;
pointer-events:none;}
.E7z0p6a-S-
{
fill:url(#_P9-S-);
stroke:none;
fill-opacity:0.501961;
pointer-events:none;}
]]></style>
<mask id="gwmmask">
<rect id="gwmmaskrect" x="0" y="0" width="1138" height="367" style="fill:white;"/>
</mask>
<g id="_GWMAll" gmwmsvg:typ="a" mask="url(#gwmmask)">
<metadata><gmwmsvg:metadata id="_GWMMetadata" gmwmsvg:storageoffsetx="323832.416952851690000" gmwmsvg:storageoffsety="5683798.306237300900000" gmwmsvg:storagetoreadoutscale="1.000000000000000" gmwmsvg:readoutoffsetx="0.000000000000000" gmwmsvg:readoutoffsety="0.000000000000000" gmwmsvg:readoutunit="m" gmwmsvg:storagetodistancescale="1.000000000000000" gmwmsvg:distanceunit="m" gmwmsvg:displaytostoragescale="0.022308881894567" gmwmsvg:rotationangle="0.000000000000000" gmwmsvg:version="2.0"/></metadata>
<rect id="gwmbg" x="-11380" y="-3670" width="23898" height="7707" style="fill:#ffffff;stroke:none;opacity:0.000000000000000;"/>
<g id="10" gmwmsvg:typ="l">
<use xlink:href="#E7z0p6bb" id="E7z0p6bb.0" class="E7z0p6a"/>
<use xlink:href="#E7z0p6bb" id="E7z0p6bb.1" class="E7z0p6b"/>
<use xlink:href="#E7z0p6bc" id="E7z0p6bc.0" class="E7z0p6a"/>
<use xlink:href="#E7z0p6bc" id="E7z0p6bc.1" class="E7z0p6b"/>
<use xlink:href="#E7z0p6bd" id="E7z0p6bd.0" class="E7z0p6a"/>
<use xlink:href="#E7z0p6bd" id="E7z0p6bd.1" class="E7z0p6b"/>
<use xlink:href="#E7z0p6be" id="E7z0p6be.0" class="E7z0p6a"/>
<use xlink:href="#E7z0p6be" id="E7z0p6be.1" class="E7z0p6b"/>
<use xlink:href="#E7z0p6bf" id="E7z0p6bf.0" class="E7z0p6a"/>
<use xlink:href="#E7z0p6bf" id="E7z0p6bf.1" class="E7z0p6b"/>
<use xlink:href="#E7z0p6bg" id="E7z0p6bg.0" class="E7z0p6a"/>
<use xlink:href="#E7z0p6bg" id="E7z0p6bg.1" class="E7z0p6b"/>
<use xlink:href="#E7z0p6bh" id="E7z0p6bh.0" class="E7z0p6a"/>
<use xlink:href="#E7z0p6bh" id="E7z0p6bh.1" class="E7z0p6b"/>
<use xlink:href="#E7z0p6bi" id="E7z0p6bi.0" class="E7z0p6a"/>
<use xlink:href="#E7z0p6bi" id="E7z0p6bi.1" class="E7z0p6b"/>
<use xlink:href="#E7z0p6bj" id="E7z0p6bj.0" class="E7z0p6a"/>
<use xlink:href="#E7z0p6bj" id="E7z0p6bj.1" class="E7z0p6b"/>
<use xlink:href="#E7z0p6bk" id="E7z0p6bk.0" class="E7z0p6a"/>
<use xlink:href="#E7z0p6bk" id="E7z0p6bk.1" class="E7z0p6b"/>
<use xlink:href="#E7z0p6bl" id="E7z0p6bl.0" class="E7z0p6a"/>
<use xlink:href="#E7z0p6bl" id="E7z0p6bl.1" class="E7z0p6b"/>
<use xlink:href="#E7z0p6bm" id="E7z0p6bm.0" class="E7z0p6a"/>
<use xlink:href="#E7z0p6bm" id="E7z0p6bm.1" class="E7z0p6b"/>
<use xlink:href="#E7z0p6bn" id="E7z0p6bn.0" class="E7z0p6a"/>
<use xlink:href="#E7z0p6bn" id="E7z0p6bn.1" class="E7z0p6b"/>
<use xlink:href="#E7z0p6bo" id="E7z0p6bo.0" class="E7z0p6a"/>
<use xlink:href="#E7z0p6bo" id="E7z0p6bo.1" class="E7z0p6b"/>
<use xlink:href="#E7z0p6bp" id="E7z0p6bp.0" class="E7z0p6a"/>
<use xlink:href="#E7z0p6bp" id="E7z0p6bp.1" class="E7z0p6b"/>
<use xlink:href="#E7z0p6bq" id="E7z0p6bq.0" class="E7z0p6a"/>
<use xlink:href="#E7z0p6bq" id="E7z0p6bq.1" class="E7z0p6b"/>
<use xlink:href="#E7z0p6br" id="E7z0p6br.0" class="E7z0p6a"/>
<use xlink:href="#E7z0p6br" id="E7z0p6br.1" class="E7z0p6b"/>
<use xlink:href="#E7z0p6bs" id="E7z0p6bs.0" class="E7z0p6a"/>
<use xlink:href="#E7z0p6bs" id="E7z0p6bs.1" class="E7z0p6b"/>
<use xlink:href="#E7z0p6bt" id="E7z0p6bt.0" class="E7z0p6a"/>
<use xlink:href="#E7z0p6bt" id="E7z0p6bt.1" class="E7z0p6b"/>
<use xlink:href="#E7z0p6bu" id="E7z0p6bu.0" class="E7z0p6a"/>
<use xlink:href="#E7z0p6bu" id="E7z0p6bu.1" class="E7z0p6b"/>
<use xlink:href="#E7z0p6bv" id="E7z0p6bv.0" class="E7z0p6a"/>
<use xlink:href="#E7z0p6bv" id="E7z0p6bv.1" class="E7z0p6b"/>
<use xlink:href="#E7z0p6bw" id="E7z0p6bw.0" class="E7z0p6a"/>
<use xlink:href="#E7z0p6bw" id="E7z0p6bw.1" class="E7z0p6b"/>
<use xlink:href="#E7z0p6bx" id="E7z0p6bx.0" class="E7z0p6a"/>
<use xlink:href="#E7z0p6bx" id="E7z0p6bx.1" class="E7z0p6b"/>
<use xlink:href="#E7z0p6by" id="E7z0p6by.0" class="E7z0p6a"/>
<use xlink:href="#E7z0p6by" id="E7z0p6by.1" class="E7z0p6b"/>
<use xlink:href="#E7z0p6bz" id="E7z0p6bz.0" class="E7z0p6a"/>
<use xlink:href="#E7z0p6bz" id="E7z0p6bz.1" class="E7z0p6b"/>
<use xlink:href="#E7z0p6bA" id="E7z0p6bA.0" class="E7z0p6a"/>
<use xlink:href="#E7z0p6bA" id="E7z0p6bA.1" class="E7z0p6b"/>
<use xlink:href="#E7z0p6bB" id="E7z0p6bB.0" class="E7z0p6a"/>
<use xlink:href="#E7z0p6bB" id="E7z0p6bB.1" class="E7z0p6b"/>
<use xlink:href="#E7z0p6bC" id="E7z0p6bC.0" class="E7z0p6a"/>
<use xlink:href="#E7z0p6bC" id="E7z0p6bC.1" class="E7z0p6b"/>
<use xlink:href="#E7z0p6bD" id="E7z0p6bD.0" class="E7z0p6a"/>
<use xlink:href="#E7z0p6bD" id="E7z0p6bD.1" class="E7z0p6b"/>
<use xlink:href="#E7z0p6bE" id="E7z0p6bE.0" class="E7z0p6a"/>
<use xlink:href="#E7z0p6bE" id="E7z0p6bE.1" class="E7z0p6b"/>
<use xlink:href="#E7z0p6bF" id="E7z0p6bF.0" class="E7z0p6a"/>
<use xlink:href="#E7z0p6bF" id="E7z0p6bF.1" class="E7z0p6b"/>
<use xlink:href="#E7z0p6bG" id="E7z0p6bG.0" class="E7z0p6a"/>
<use xlink:href="#E7z0p6bG" id="E7z0p6bG.1" class="E7z0p6b"/>
<use xlink:href="#E7z0p6bH" id="E7z0p6bH.0" class="E7z0p6a"/>
<use xlink:href="#E7z0p6bH" id="E7z0p6bH.1" class="E7z0p6b"/>
<use xlink:href="#E7z0p6bI" id="E7z0p6bI.0" class="E7z0p6a"/>
<use xlink:href="#E7z0p6bI" id="E7z0p6bI.1" class="E7z0p6b"/>
<use xlink:href="#E7z0p6bJ" id="E7z0p6bJ.0" class="E7z0p6a"/>
<use xlink:href="#E7z0p6bJ" id="E7z0p6bJ.1" class="E7z0p6b"/>
<use xlink:href="#E7z0p6bK" id="E7z0p6bK.0" class="E7z0p6a"/>
<use xlink:href="#E7z0p6bK" id="E7z0p6bK.1" class="E7z0p6b"/>
<use xlink:href="#E7z0p6bL" id="E7z0p6bL.0" class="E7z0p6a"/>
<use xlink:href="#E7z0p6bL" id="E7z0p6bL.1" class="E7z0p6b"/>
<use xlink:href="#E7z0p6bM" id="E7z0p6bM.0" class="E7z0p6a"/>
<use xlink:href="#E7z0p6bM" id="E7z0p6bM.1" class="E7z0p6b"/>
</g>
</g>
</svg>
