<?xml version="1.0" encoding="UTF-8"?>
<svg xml:space="preserve" id="gwmroot" preserveAspectRatio="xMidYMid meet" viewBox="0 0 1138 367" xmlns="http://www.w3.org/2000/svg" xmlns:xlink="http://www.w3.org/1999/xlink" xmlns:gmwmsvg="http://www.intergraph.com/GeoMedia/wmsvg" style="stroke-linejoin:round">
<script type="text/javascript" id="gwmlegendscript"><![CDATA[
var _GWMLegendDisplayOrder = [
{name : "10", title : "Erhaltungssatzung", locatable :true, leaf : true, hotspot : false, members : [
]}
];
var _GWMLegendGroup = [
{name : "10", title : "Erhaltungssatzung", members : [
]}
];
]]></script>
<defs id="gwmdefs">
<filter id="HaloS0l6e6a" filterUnits="objectBoundingBox" x="-20%" y="-20%" width="140%" height="140%">
<feColorMatrix in="SourceAlpha" result="color" type="matrix" values="0 0 0 0 0.00 0 0 0 0 0.00 0 0 0 0 0.00 0 0 0 1 0"/>
<feMorphology in="color" radius="16175315.14,16175315.14" operator="dilate" result="outline"/>
<feComposite in="SourceGraphic" in2="outline"/>
</filter>
<path d="M0 0l1 0 0 1-1 0zM2 1l1 0 0 1-1 0z" id="_P9"/>
<pattern id="_S0l6e6a" patternUnits="userSpaceOnUse" x="0" y="0" width="4" height="2" style="stroke:none;fill:#3399ff">
<use xlink:href="#_P9"/>
</pattern>
<pattern id="_P9-H-" patternUnits="userSpaceOnUse" x="0" y="0" width="4" height="2" style="stroke:none;fill:#00ffff">
<use xlink:href="#_P9"/>
</pattern>
<pattern id="_S0l6e6a" patternUnits="userSpaceOnUse" x="0" y="0" width="4" height="2" style="stroke:none;fill:#3399ff">
<use xlink:href="#_P9"/>
</pattern>
<pattern id="_P9-S-" patternUnits="userSpaceOnUse" x="0" y="0" width="4" height="2" style="stroke:none;fill:#00ff00">
<use xlink:href="#_P9"/>
</pattern>
<path id="S0l6e6bM" d="M513.48 213.31l-1.16 .09-1.21 .87-1.22 .73-1.13 .60 1.29 .36 1.06-.58 1.16-.73 1.25-.93"/>
<path id="S0l6e6bL" d="M523.17 218.40l-.19-1.36-.24-1.82-3.04-.43-1.16-.12-2.20 3.10 1.38 .14 1.66 .14 1.34 .13 1.67 .15"/>
<path id="S0l6e6bK" d="M678.09 216.61l-2.18 1.24-1.01 .56 1.41 1.01 1.02 .86 1.12 .72 1.02 .69 1.07 .76 1.05 .75 1.25 .90 1.56-.31 1.17-.30 1.38-.85 1.72-.69 1.05 .46 1.23 .93 1.57-.17 1.03 .24 1.04-.44 1.28-.68 .45-1.04-1.50-1.08 .05-1.41 1.43 .34 .85-1.07-.49-1.19 1.11-.52-1.16-.81-1.09-.30-1.06-.30-1.09-.30-1.38-.35-1.31-.33-.37-1.01-1.30-.11-1.04 .26-1.10 .28-1.02 .29-1.47 .27-1.86 .41-1.74 .26-1.70 .37-1.22 .14-1.23 .19 1.36 1.27"/>
<path id="S0l6e6bJ" d="M650.99 236.87l-.76-1.05-1.11-.56-1.20-.14-1.01-.67-1.16-.66-1.35-1.00-1.40-.37-.18-1.09-1.03-.90-1.55-.41-.78 1.11-.72 1.04-1.92 .72-1.14-.31-1.21-.35-1.19-.35-1.04-0-1.04 .68-1.01 .75 .46 1.02 1.04 .18 2.34 1.20 1.75 .89 1.03 .44 1.02 .27 2.57 .50 1.00 .22 2.46 1.12 1.38 .20 1.00 .12 1.13 .21 1.08-.84 1.12-.88 1.20-.93"/>
<path id="S0l6e6bI" d="M604.29 301.23l-.89-1.04-1.22-.62 .22-1.69-1.04-.82-1.01-1.30-1.06-.87-1.45-1.13-.92-1.37-2.22 .50-1.07 .27 .82 1.25 .83 1.08-.85 1.05-1.62 2.37 1.23 .02 2.29-.56 1.14 .93 1.66 1.94 1.11 .54 1.11 .16 1.69-.06 1.23-.25"/>
<path id="S0l6e6bH" d="M753.86 311.23l 2.19 .01 1.60-.24-.73-1.73-.82-1.01-1.94-.89-1.95 .16-1.73 .15-.27-1.98-1.58-.42-1.12 .01-1.72 .02-1.13 .01-1.70 .02-1.12 .01-1.79 .02-1.26 .01-1.11 1.82-.19 1.50-.16 1.27-.13 1.44 .20 2.23 3.70 0 .45 1.21 5.00-0 1.67-.05 1.48 0 1.40 0 1.65-0 1.08-.12 .21-1.05-.32-2.12"/>
<path id="S0l6e6bG" d="M746.13 352.35l 1.09 .44 1.23-.07 1.15-.08 1.46-.11 1.34-.08 1.15-.06 1.02 .17 1.11-.08 1.02-.44 1.13-.74 1.04 .22 1.10 .04 1.00 .07-.36-1.06-1.18-.39-1.42-.85 .47-1.04 1.00-.30 1.04-.47-.61-1.08-1.32-.28-1.65-.59-1.05-.50-1.04 .10-1.07 1.01-1.02 .85-1.05 .58-1.48 .20-.24 1.03-1.00 .68-1.23 .61-1.02 .63-.44 1.06"/>
<path id="S0l6e6bF" d="M751.41 159.99l .66 1.27 7.15-.91-.50-1.74-2.01 .26-1.84 .23-1.01 .19-1.06 .30-1.39 .39"/>
<path id="S0l6e6bE" d="M737.83 169.73l .65 1.84 4.91-.24 1.68 .51 1.27-.04 3.48-.11 1.08-.03-.38-2.03-1.95-.08-1.18 .02-5.15 .08-4.32 .07"/>
<path id="S0l6e6bD" d="M685.05 208.45l .13-1.22-1.41-.07-1.29 .54-1.71 .95-2.97 .22-1.45-.22-1.08 .52 1.12 .91 1.29 1.12 .07 1.36 1.42 1.74 1.35-.09 1.56-.65 .17-1.29-1.27-1.51 1.11-.09 1.10-.34 .24-1.01 1.03-.33"/>
<path id="S0l6e6bC" d="M671.86 197.48l .15 1.12 1.56 .27 1.44-.09 1.08-.07 1.28-.10 1.49-.04 1.34-.10 1.02-.25 1.08 .69 1.08 .39 .52 1.00 1.03 .90 1.41 .67 1.81-.18 1.57 .23 .79-1.11-.24-1.40-.32-1.25-.59-1.03 1.02-.49 1.00 .01 1.14 .04 1.12 .09-.13-1.05-1.34-2.35-2.46-1.52 .43-1.16 2.73-.86-1.10-1.94-3.68 .22-.97 1.11-1.02 .76-1.44-.66-1.92-.73-1.08 .15-1.50 .24-2.04 .18-1.13 .88-1.08 .83-1.02 .80-1.12 .87-1.76 1.37-1.77 .71 1.32 1.24 .32 1.61"/>
<path id="S0l6e6bB" d="M658.88 193.77l 1.30-.41 1.19-.49 1.33-.31 1.35-1.09 1.15 .21-.49-1.11-1.10-.42-1.19-.45-1.15-.43-1.57 .56-1.71 1.78 .90 2.18"/>
<path id="S0l6e6bA" d="M615.31 198.68l .61-1.02-1.12-1.10-1.12-1.11-1.14-1.11-1.49-1.47-.93-1.05-1.26 .34-1.06 .28-1.43 .30-.22 1.91-.19 1.10-.06 1.02-.61 1.18 1.28 .15 1.67 .09 1.63 .10 1.33 .27 1.09-.05 1.15 .06 1.35 .07"/>
<path id="S0l6e6bz" d="M598.61 181.16l 1.01-.55-1.55-.51-1.26 .42-1.25 .62-1.13 .57-1.46 .73 1.26 .49 1.04 .05 1.08-.59 1.17-.64 1.10-.60"/>
<path id="S0l6e6by" d="M590.44 156.58l .83 1.14 1.36 1.39 1.56 1.53 2.79 2.86 7.14 .94 1.46 .23 4.98 1.99 4.64 1.94 1.02 .43 5.06-4.97-4.13-.68-1.03-.20 .58-1.37 .72-2.59 2.26 .26 .63-1.35 1.45 .03 .15-1.30 3.40-.79 1.19-.45-1.11-.64-2.84-.31-1.16-.10-2.62-.03-1.00 .01-1.75-.02-2.46 .05-2.28 .03-3.20 .01-4.36-.01-6.43 .15-1.27 .09-1.08 .12-1.44 .31-1.52 .51-1.55 .76"/>
<path id="S0l6e6bx" d="M593.90 178.42l-1.37-.57-1.15-.19-1.22-.16-2.11-.24-1.35-.15-1.25-.10-1.04-.07-1.25-.09-1.21-.08-1.17-.05-1.39-.05-1.40-.05-1.07-.03-1.03-.02-1.28-.02-1.12 1.02-.12 2.16-2.81 .12-1.97-.15-.70 1.71 5.54 .66-.12 2.40-5.93-.12-.05 2.89 .02 1.36 .37 1.20 .52 1.17 1.37 1.24 1.24-.06 1.06-.05 .95 1.29 .15 1.23 1.50 .78 4.56-3.50 .54-3.16-.86-2.21 2.65-1.45 1.21 .59 1.21-.05-1.31-1.39 1.32-1.31 1.11-.86 1.10-.95 1.18-.33 1.90-1.50 1.09-.26 1.11-.18 1.17-.18 1.39-.21"/>
<path id="S0l6e6bw" d="M548.29 192.01l-.04 3.61 2.57-.03 2.78-.79 1.27-.61 1.38-.82 1.56-1.02 1.07-.69 .64-1.17 1.40-.94 1.45-1.24 1.11-1.16 .87-1.56 .28-1.61 .03-1.04 .02-1.13 .09-2.17 .08-1.46-2.00-.68-2.63-.22-1.14-.10-1.23-.10-1.40-.08-1.22-.04-1.15-.08-1.95-.10-1.38-.07-1.96-.11-.40 3.23 .59 1.22-.63 3.32-.04 3.80-.02 2.77-.01 1.05"/>
<path id="S0l6e6bv" d="M533.82 200.62l-1.24-.86-1.10 .19-1.11 .19-1.18 .20-1.22 .21-1.18 .20-1.04 .18-1.31 .23-1.30 .13-1.22 .09-1.31 .03-1.15-.03-1.35-.09-1.06-.13-1.12-.19-1.20-.23-1.12-.37-1.20-.45-.23 1.21 1.20 .62 1.29 .57-1.18 .82-1.25 1.24 1.85 1.22-1.68 1.31 1.63 .52-.97 1.55 1.92 .48 1.02-.68 1.60 .42 .84-1.35 2.07-.57 1.06 .34 2.40 .19 1.69-1.22 2.16-1.97 1.07-.05 1.29-.01 1.10 .01 1.07 .04 1.02-1.10 .15-1.09 .14-1.02"/>
<path id="S0l6e6bu" d="M518.43 183.08l .80-1.27 .94-1.40 1.00-1.49-2.08-.81-3.33-.72-1.07 .88-3.64 3.24-2.78-.57-2.82-1.20-1.31-.56-1.07 .97-1.09 1.00-.10 1.85-.09 1.38-.21 3.20 1.31 .40-.98 1.07 4.07 1.88 2.04 .50 3.99 .31 3.26 .14 .69-1.03 .20-1.03 .20-1.00 .23-1.12 .21-1.04 .23-1.12 .62-1.39 .76-1.06"/>
<path id="S0l6e6bt" d="M480.60 189.00l-1.01 .29 1.26-.02 1.28-.01 1.00-.01 1.00-.01 1.07-.01 2.44 .21 1.18 .13 2.00 .34 1.20 .21 1.07 .18 .37-1.03-1.49-.70-.63-1.03-.99-1.49-.14-1.01-1.17-.79-.82-1.26-.60-1.11-1.04-.64-1.14 .35-1.03 .70-1.03 .70-1.18 .80-.97 1.17 .03 1.23 1.02 .70-1.10 .86 .09 1.23"/>
<path id="S0l6e6bs" d="M521.70 47.32l-.24-1.17-.55-1.02-.57-1.01-1.19 .11-1.30 .27-1.39 .13-1.23 .07-1.42-.06-1.15-.07-1.07-.06-1.08-.05-.44 1.05 .02 1.05 .04 1.01 1.21 .49 .68 1.07 1.12 .43 1.13 .33 1.12 .11 1.28 .21 1.63 .23 1.66 .01 1.01-1.00 .09-1.05 .66-1.02"/>
<path id="S0l6e6br" d="M520.62 112.86l-.63-1.25-1.05-.74-1.11-.75-1.43-1.10-1.00-.91-2.11-1.91-1.54-1.38-1.03-.93-1.28-1.15-1.00-.91-.69-1.01-.80-1.24-1.67-1.81-1.00-.81-1.27 .60-1.32 .65-1.70 .87-1.16 .62 1.26 .97 1.28 .68 1.28 .71 1.32 .77 1.01 .61 1.19 .75 1.29 .86 1.57 1.13 1.13 .86 1.26 1.03 1.33 1.15 1.12 1.04 1.14 1.16 1.00 1.11 .83 1.03 .75 1.03 1.02 .99 .96-1.14 .75-1.10"/>
<path id="S0l6e6bq" d="M537.17 136.73l-.50-1.19-.73-1.14-.66-1.07-1.26-.14-3.16 .92-1.94 .57-.68-1.09-1.03 .28-1.19 .32-.45 1.10 1.28 .45 1.11 .28 1.29 .32 1.16 .29 1.18 .29 1.27 .31 1.03 .25 1.52 .38 1.49 .23 .25-1.35"/>
<path id="S0l6e6bp" d="M451.29 141.37l-1.19-.80-1.34-.46-1.18-.41-1.12-.39-1.16-.40-1.03-.42-1.91-.73 .06 1.22 .03 1.22 1.10 1.07 1.19 .41 1.07-.05 1.08-.05 1.03-.05 1.05-.05 1.03-.05 1.04-.05"/>
<path id="S0l6e6bo" d="M456.54 141.05l-1.62-.55-1.11-.38-1.13-.38-1.75 .67 6.83 2.44 .91-1.05-1.08-.37-1.06-.38"/>
<path id="S0l6e6bn" d="M458.65 143.06l 1.71-.68 2.57-1.44 1.41 .24 18.18-.10 3.59-.02 5.48-.04 1.26-.01 1.58-.01 .17-2.39-.21-1.37-1.20-.65 .22 1.07 .22 1.15 .17 1.07-2.21 .64-1.29 .07-1.06-.34-1.37-.13-1.01-.30-1.22 .63-1.36 .04-1.01-.40-1.01-.29-1.90-.62 .21 1.03-1.14 .51-1.21-.24-1.09-.26-1.24-.08-1.15-.48-1.31 .17-1.31-.81-1.02-.75-1.12-.52-1.05-.50-1.34 .20-1.09 1.02-.90 1.12-1.26 .44-1.40-.44-1.33-.86-1.02-.19-1.28-.36-1.12 .29 .62 1.02 1.36 .65-1.50 1.66-.02 1.26"/>
<path id="S0l6e6bm" d="M444.57 142.02l-.30 1.35 4.49 1.11 3.06 .72 3.22 .78 2.58 .59 2.28 .52 1.29 .29 3.92 .90 5.63 1.29 1.24 .28 1.18 .32 2.15 .46 1.75 .41 1.07 .25 3.19 .44 1.42 .19 1.34 .18 1.10 .15 1.06 .14 2.76 .38 1.28-.09 1.54-.63-2.95-.92 1.41-.70 1.07-.60 1.17-.84 1.22-1.26 .61-1.04 .40-1.31 .03-1.18-.10-1.49-1.82-.92-1.26 .01-5.53 .04-2.68 .01-6.27 .04-2.23 .01-2.93 .02-8.03 .05-1.22 .01-1.50 .73-2.15 1.05-5.79-2.09-4.64 .14-4.03 .20"/>
<path id="S0l6e6bl" d="M537.44 153.57l .02-1.13-2.89-.04-1.70-.02 .19-6.08 .06-1.49-.42-1.09-1.10-.80-1.76 .20-1.14 .01-2.80-.35-1.51-.17-1.70-.05-1.22 .52-.25 1.80-2.25 4.11 .09 2.92 .21 1.20-1.40 3.69-.52 1.07-.73 1.09-.84 1.20-.66 1.01-.74 1.14-.69 1.09-.67 1.06-1.70 2.48-.75 1.51-1.57 2.81 4.68 .25 6.83 .09 1.21 .02 1.53 .02 4.34 .06 1.00 .02 1.14 .02 3.60 .04 .08-1.34 3.25-.39 .22-2.26 .06-5.13 .25-2.29 .02-1.25-.11-1.28 .03-1.03 .26-2.61"/>
<path id="S0l6e6bk" d="M585.96 54.03l-.41-1.05-.40-1.04-.69-1.79-.78-1.02-1.51-1.08-1.02 .16-1.10-.61-1.01 .34 .07 1.24 .34 1.04 .37 1.15 .32 1.00 .27 1.16 .39 1.03 1.51 .43 1.51-.31 1.27-.26"/>
<path id="S0l6e6bj" d="M579.58 101.37l 2.23-.96-.44-1.83-.45-1.86-1.76-.14-1.26-.10-1.36-.11 .02 2.89 .47 1.48 1.31-.52 1.23 1.16"/>
<path id="S0l6e6bi" d="M535.06 111.53l-1.42-1.71-1.04-1.25-1.18-.42-.79-1.02-1.49 .74-1.65 .35-2.93 1.59-1.56 .29 .14 1.22 .14 1.22 1.81 2.22 1.34 1.20 1.76 .46 1.17-.35 1.69-.51 1.20-.36 2.00 1.45 4.02-1.36-.87-1.01-.95-1.11-.95-1.11"/>
<path id="S0l6e6bh" d="M662.47 117.08l .03 1.04 2.07 .51 1.08 .79 1.43-.45 .37 1.04 2.01 .60 1.30-.15 1.64 .25-.49-1.04-1.15-.60-1.52-.59-1.53-.41-1.12-.23-1.03-.23-1.80-.41-1.27-.11"/>
<path id="S0l6e6bg" d="M651.57 106.19l-6.95 .91-.10 2.13-.07 1.76-.19 4.05-.14 1.69-.02 2.02-.04 1.20-.07 1.69-.10 1.35 1.47 1.20 1.63-1.50 1.82-1.52 5.37 2.51 1.29-1.00-.25-2.13-2.09-1.30 4.03-3.32-5.44-9.70"/>
<path id="S0l6e6bf" d="M722.05 115.92l-2.96 4.28-1.59 2.29-1.61-.31-1.73 2.49 2.97 .81 3.01 .85 1.96 .56 2.15 .18 3.70 .33 4.29-.05 1.31-.01-.06-2.16-.10-3.18-.84-3.63 3.96-.15-2.22-2.82-7.33 .30-3.27 .14-1.64 .07"/>
<path id="S0l6e6be" d="M706.20 123.02l-3.53 1.20-1.12-.31-1.35 .46-1.79 .58-1.10 .29-.88 1.05 .66 1.15 2.05 1.28-.02-1.04 3.43-.37 1.69 .24 1.32 .12 3.35 .18-1.87 2.08-1.52 1.10-2.40 .77-1.00 1.40 6.33 1.49 2.93-.26 2.52 1.50 1.10-.87 .23-1.27-.08-1.20 .33-1.24 .70-1.15 2.10-2.18 1.12-1.10-1.90-.85-2.95-.82-3.29-.87-5.04-1.36"/>
<path id="S0l6e6bd" d="M722.89 138.84l-1.96 .96-1.69 .31 2.22 1.54 1.08 .94 2.42 1.55 1.14 .53 1.97 .71 .77-1.32 1.17-1.41-1.29-.31-1.28-.33-1.86-.95-1.19-.78-1.50-1.44"/>
<path id="S0l6e6bc" d="M585.50 145.81l .45 1.40 .70 1.65 1.00 1.46 1.18 .93 1.29 .83 1.24 .55 1.83 .62 1.02 .30 1.03 .20 2.08 .23 5.62-.01 3.95-.06 2.34-.05 5.12-.07 3.14-.06 1.39 .03 2.00-.11 2.28-.07 1.50-.16 2.12-.35 2.54-.71 1.71-.63 1.60-.76 1.43-.91 1.24-.97 1.14-1.32 1.86-3.16-8.45-1.94 1.92-6.34-1.39 .16-1.65 .35-3.77 .92-8.85 2.10-3.44 .81-2.09 .49-3.29 .76-1.76 .32-1.78 .32-1.48 .24-2.31 .39-3.93 .69-1.12 .19-2.15 .35-2.93 .50-4.33 .93"/>
<path id="S0l6e6bb" d="M739.07 158.23l 1.75 3.15 2.82-.18 3.63-.59-1.47-1.58-1.03-1.18-5.70 .38"/>
</defs>
<style type="text/css" id="gwmstyles"><![CDATA[
.GWMLine
{
stroke:#000000;
fill:none;
opacity:0;
stroke-width:1px;
pointer-events:visiblePainted;}
.GWMLine-H-
{
stroke:#000000;
fill:none;
opacity:0;
stroke-width:1px;
pointer-events:none;}
.GWMLine-S-
{
stroke:#000000;
fill:none;
opacity:0;
stroke-width:1px;
pointer-events:none;}
.GWMFill
{
stroke:#000000;
fill:#ff0000;
opacity:0;
stroke-width:1px;
pointer-events:visiblePainted;}
.GWMFill-H-
{
stroke:#000000;
fill:#000000;
opacity:0;
stroke-width:1px;
pointer-events:none;}
.GWMFill-S-
{
stroke:#000000;
fill:#000000;
opacity:0;
stroke-width:1px;
pointer-events:none;}
.S0l6e6b
{
stroke:#3399ff;
fill:none;
stroke-width:1.33333px;
stroke-linecap:round;
stroke-linejoin:round;
pointer-events:visiblePainted}
.S0l6e6b-H-
{
stroke:#00ffff;
fill:none;
stroke-opacity:0.501961;
stroke-width:1.33333px;
stroke-linecap:round;
stroke-linejoin:round;
pointer-events:none;}
.S0l6e6b-S-
{
stroke:#00ff00;
fill:none;
stroke-opacity:0.501961;
stroke-width:1.33333px;
stroke-linecap:round;
stroke-linejoin:round;
pointer-events:none;}
.S0l6e6a
{
fill:url(#_S0l6e6a);
stroke:none;
pointer-events:visible}
.S0l6e6a-H-
{
fill:url(#_P9-H-);
stroke:none;
fill-opacity:0.501961;
pointer-events:none;}
.S0l6e6a-S-
{
fill:url(#_P9-S-);
stroke:none;
fill-opacity:0.501961;
pointer-events:none;}
]]></style>
<mask id="gwmmask">
<rect id="gwmmaskrect" x="0" y="0" width="1138" height="367" style="fill:white;"/>
</mask>
<g id="_GWMAll" gmwmsvg:typ="a" mask="url(#gwmmask)">
<metadata><gmwmsvg:metadata id="_GWMMetadata" gmwmsvg:storageoffsetx="6.558805948228882" gmwmsvg:storageoffsety="51.289358000000000" gmwmsvg:storagetoreadoutscale="1.000000000000000" gmwmsvg:readoutoffsetx="0.000000000000000" gmwmsvg:readoutoffsety="0.000000000000000" gmwmsvg:readoutunit="deg" gmwmsvg:storagetodistancescale="111319.490793273570000" gmwmsvg:distanceunit="m" gmwmsvg:displaytostoragescale="2446.911357802433900" gmwmsvg:rotationangle="0.000000000000000" gmwmsvg:version="2.0"/></metadata>
<rect id="gwmbg" x="-11380" y="-3670" width="23898" height="7707" style="fill:#ffffff;stroke:none;opacity:0.000000000000000;"/>
<g id="10" gmwmsvg:typ="l">
<use xlink:href="#S0l6e6bb" id="S0l6e6bb.0" class="S0l6e6a"/>
<use xlink:href="#S0l6e6bb" id="S0l6e6bb.1" class="S0l6e6b"/>
<use xlink:href="#S0l6e6bc" id="S0l6e6bc.0" class="S0l6e6a"/>
<use xlink:href="#S0l6e6bc" id="S0l6e6bc.1" class="S0l6e6b"/>
<use xlink:href="#S0l6e6bd" id="S0l6e6bd.0" class="S0l6e6a"/>
<use xlink:href="#S0l6e6bd" id="S0l6e6bd.1" class="S0l6e6b"/>
<use xlink:href="#S0l6e6be" id="S0l6e6be.0" class="S0l6e6a"/>
<use xlink:href="#S0l6e6be" id="S0l6e6be.1" class="S0l6e6b"/>
<use xlink:href="#S0l6e6bf" id="S0l6e6bf.0" class="S0l6e6a"/>
<use xlink:href="#S0l6e6bf" id="S0l6e6bf.1" class="S0l6e6b"/>
<use xlink:href="#S0l6e6bg" id="S0l6e6bg.0" class="S0l6e6a"/>
<use xlink:href="#S0l6e6bg" id="S0l6e6bg.1" class="S0l6e6b"/>
<use xlink:href="#S0l6e6bh" id="S0l6e6bh.0" class="S0l6e6a"/>
<use xlink:href="#S0l6e6bh" id="S0l6e6bh.1" class="S0l6e6b"/>
<use xlink:href="#S0l6e6bi" id="S0l6e6bi.0" class="S0l6e6a"/>
<use xlink:href="#S0l6e6bi" id="S0l6e6bi.1" class="S0l6e6b"/>
<use xlink:href="#S0l6e6bj" id="S0l6e6bj.0" class="S0l6e6a"/>
<use xlink:href="#S0l6e6bj" id="S0l6e6bj.1" class="S0l6e6b"/>
<use xlink:href="#S0l6e6bk" id="S0l6e6bk.0" class="S0l6e6a"/>
<use xlink:href="#S0l6e6bk" id="S0l6e6bk.1" class="S0l6e6b"/>
<use xlink:href="#S0l6e6bl" id="S0l6e6bl.0" class="S0l6e6a"/>
<use xlink:href="#S0l6e6bl" id="S0l6e6bl.1" class="S0l6e6b"/>
<use xlink:href="#S0l6e6bm" id="S0l6e6bm.0" class="S0l6e6a"/>
<use xlink:href="#S0l6e6bm" id="S0l6e6bm.1" class="S0l6e6b"/>
<use xlink:href="#S0l6e6bn" id="S0l6e6bn.0" class="S0l6e6a"/>
<use xlink:href="#S0l6e6bn" id="S0l6e6bn.1" class="S0l6e6b"/>
<use xlink:href="#S0l6e6bo" id="S0l6e6bo.0" class="S0l6e6a"/>
<use xlink:href="#S0l6e6bo" id="S0l6e6bo.1" class="S0l6e6b"/>
<use xlink:href="#S0l6e6bp" id="S0l6e6bp.0" class="S0l6e6a"/>
<use xlink:href="#S0l6e6bp" id="S0l6e6bp.1" class="S0l6e6b"/>
<use xlink:href="#S0l6e6bq" id="S0l6e6bq.0" class="S0l6e6a"/>
<use xlink:href="#S0l6e6bq" id="S0l6e6bq.1" class="S0l6e6b"/>
<use xlink:href="#S0l6e6br" id="S0l6e6br.0" class="S0l6e6a"/>
<use xlink:href="#S0l6e6br" id="S0l6e6br.1" class="S0l6e6b"/>
<use xlink:href="#S0l6e6bs" id="S0l6e6bs.0" class="S0l6e6a"/>
<use xlink:href="#S0l6e6bs" id="S0l6e6bs.1" class="S0l6e6b"/>
<use xlink:href="#S0l6e6bt" id="S0l6e6bt.0" class="S0l6e6a"/>
<use xlink:href="#S0l6e6bt" id="S0l6e6bt.1" class="S0l6e6b"/>
<use xlink:href="#S0l6e6bu" id="S0l6e6bu.0" class="S0l6e6a"/>
<use xlink:href="#S0l6e6bu" id="S0l6e6bu.1" class="S0l6e6b"/>
<use xlink:href="#S0l6e6bv" id="S0l6e6bv.0" class="S0l6e6a"/>
<use xlink:href="#S0l6e6bv" id="S0l6e6bv.1" class="S0l6e6b"/>
<use xlink:href="#S0l6e6bw" id="S0l6e6bw.0" class="S0l6e6a"/>
<use xlink:href="#S0l6e6bw" id="S0l6e6bw.1" class="S0l6e6b"/>
<use xlink:href="#S0l6e6bx" id="S0l6e6bx.0" class="S0l6e6a"/>
<use xlink:href="#S0l6e6bx" id="S0l6e6bx.1" class="S0l6e6b"/>
<use xlink:href="#S0l6e6by" id="S0l6e6by.0" class="S0l6e6a"/>
<use xlink:href="#S0l6e6by" id="S0l6e6by.1" class="S0l6e6b"/>
<use xlink:href="#S0l6e6bz" id="S0l6e6bz.0" class="S0l6e6a"/>
<use xlink:href="#S0l6e6bz" id="S0l6e6bz.1" class="S0l6e6b"/>
<use xlink:href="#S0l6e6bA" id="S0l6e6bA.0" class="S0l6e6a"/>
<use xlink:href="#S0l6e6bA" id="S0l6e6bA.1" class="S0l6e6b"/>
<use xlink:href="#S0l6e6bB" id="S0l6e6bB.0" class="S0l6e6a"/>
<use xlink:href="#S0l6e6bB" id="S0l6e6bB.1" class="S0l6e6b"/>
<use xlink:href="#S0l6e6bC" id="S0l6e6bC.0" class="S0l6e6a"/>
<use xlink:href="#S0l6e6bC" id="S0l6e6bC.1" class="S0l6e6b"/>
<use xlink:href="#S0l6e6bD" id="S0l6e6bD.0" class="S0l6e6a"/>
<use xlink:href="#S0l6e6bD" id="S0l6e6bD.1" class="S0l6e6b"/>
<use xlink:href="#S0l6e6bE" id="S0l6e6bE.0" class="S0l6e6a"/>
<use xlink:href="#S0l6e6bE" id="S0l6e6bE.1" class="S0l6e6b"/>
<use xlink:href="#S0l6e6bF" id="S0l6e6bF.0" class="S0l6e6a"/>
<use xlink:href="#S0l6e6bF" id="S0l6e6bF.1" class="S0l6e6b"/>
<use xlink:href="#S0l6e6bG" id="S0l6e6bG.0" class="S0l6e6a"/>
<use xlink:href="#S0l6e6bG" id="S0l6e6bG.1" class="S0l6e6b"/>
<use xlink:href="#S0l6e6bH" id="S0l6e6bH.0" class="S0l6e6a"/>
<use xlink:href="#S0l6e6bH" id="S0l6e6bH.1" class="S0l6e6b"/>
<use xlink:href="#S0l6e6bI" id="S0l6e6bI.0" class="S0l6e6a"/>
<use xlink:href="#S0l6e6bI" id="S0l6e6bI.1" class="S0l6e6b"/>
<use xlink:href="#S0l6e6bJ" id="S0l6e6bJ.0" class="S0l6e6a"/>
<use xlink:href="#S0l6e6bJ" id="S0l6e6bJ.1" class="S0l6e6b"/>
<use xlink:href="#S0l6e6bK" id="S0l6e6bK.0" class="S0l6e6a"/>
<use xlink:href="#S0l6e6bK" id="S0l6e6bK.1" class="S0l6e6b"/>
<use xlink:href="#S0l6e6bL" id="S0l6e6bL.0" class="S0l6e6a"/>
<use xlink:href="#S0l6e6bL" id="S0l6e6bL.1" class="S0l6e6b"/>
<use xlink:href="#S0l6e6bM" id="S0l6e6bM.0" class="S0l6e6a"/>
<use xlink:href="#S0l6e6bM" id="S0l6e6bM.1" class="S0l6e6b"/>
</g>
</g>
</svg>
