<?xml version="1.0" encoding="UTF-8"?>
<svg xml:space="preserve" id="gwmroot" preserveAspectRatio="xMidYMid meet" viewBox="0 0 2800 3200" xmlns="http://www.w3.org/2000/svg" xmlns:xlink="http://www.w3.org/1999/xlink" xmlns:gmwmsvg="http://www.intergraph.com/GeoMedia/wmsvg" style="stroke-linejoin:round">
<script type="text/javascript" id="gwmlegendscript"><![CDATA[
var _GWMLegendDisplayOrder = [
{name : "10", title : "Erhaltungssatzung", locatable :true, leaf : true, hotspot : false, members : [
]}
];
var _GWMLegendGroup = [
{name : "10", title : "Erhaltungssatzung", members : [
]}
];
]]></script>
<defs id="gwmdefs">
<filter id="HaloH7A5k8b" filterUnits="objectBoundingBox" x="-20%" y="-20%" width="140%" height="140%">
<feColorMatrix in="SourceAlpha" result="color" type="matrix" values="0 0 0 0 0.13 0 0 0 0 0.00 0 0 0 0 0.16 0 0 0 1 0"/>
<feMorphology in="color" radius="0.00,0.00" operator="dilate" result="outline"/>
<feComposite in="SourceGraphic" in2="outline"/>
</filter>
<filter id="HaloH7A5k8a" filterUnits="objectBoundingBox" x="-20%" y="-20%" width="140%" height="140%">
<feColorMatrix in="SourceAlpha" result="color" type="matrix" values="0 0 0 0 0.00 0 0 0 0 0.00 0 0 0 0 0.00 0 0 0 1 0"/>
<feMorphology in="color" radius="16175315.14,16175315.14" operator="dilate" result="outline"/>
<feComposite in="SourceGraphic" in2="outline"/>
</filter>
<path d="M0 0l1 0 0 1-1 0zM2 1l1 0 0 1-1 0z" id="_P9"/>
<pattern id="_H7A5k8a" patternUnits="userSpaceOnUse" x="0" y="0" width="4" height="2" style="stroke:none;fill:#3399ff">
<use xlink:href="#_P9"/>
</pattern>
<pattern id="_P9-H-" patternUnits="userSpaceOnUse" x="0" y="0" width="4" height="2" style="stroke:none;fill:#00ffff">
<use xlink:href="#_P9"/>
</pattern>
<pattern id="_H7A5k8a" patternUnits="userSpaceOnUse" x="0" y="0" width="4" height="2" style="stroke:none;fill:#3399ff">
<use xlink:href="#_P9"/>
</pattern>
<pattern id="_P9-S-" patternUnits="userSpaceOnUse" x="0" y="0" width="4" height="2" style="stroke:none;fill:#00ff00">
<use xlink:href="#_P9"/>
</pattern>
<path id="H7A5k8bM" d="M1113.54 1833.08l 1.18-1.52 .80-1.12 1.17-1.62-2.38-1.73-1.03-.73-1.17 1.56-.76 1.02-1.18 1.49-1.46 1.83-1.07 1.37-1.72 1.94-1.66 1.79-1.17 1.25-1.78 1.82-2.71 2.53-1.80 1.59-1.87 1.58-1.45 1.22-1.92 1.52-1.50 1.14-1.01 .76-1.00 .68 1.30 1.84 2.36 3.33 2.19-1.54 1.60-1.21 1.99-1.55 1.58-1.30 1.94-1.64 1.95-1.73 1.96-1.83 2.17-2.13 1.84-1.91 1.67-1.90 1.44-1.56 1.62-1.91 1.39-1.76-1.49-1.55"/>
<path id="H7A5k8bL" d="M1161.40 1875.60l-.62-11.01-.80-14.72 .12-2.15-15.41-1.75-5.84-1.16-1.30-.94-1.20 1.65-1.73 1.53-7.67 22.42 6.95 1.31 4.68 .81 3.69 .57 4.85 .83 1.90 .46 1.69 .13 2.23 .52 4.51 .81 3.95 .69"/>
<path id="H7A5k8bK" d="M1947.11 1884.63l-3.33 2.95-8.03 6.71-5.25 4.40 2.89 3.52 1.46 1.76 2.54 3.06 1.49 1.76 2.38 2.90 1.10 2.41 .87 1.91 1.30 .24 1.88 1.67 .58 1.28 1.05 .70 4.64 5.47 1.11 1.99 2.15 2.12 1.53 1.84 3.84 4.64 1.94 2.35 2.18 2.63 3.93 4.82 5.02-1.22 2.94-1.08 2.32-.82 2.45-1.00 1.24-.46 1.65-1.42 1.40-1.20 4.17-4.04 1.65-1.06 1.98-1.15 5.27-3.13 1.77-1.05 1.35 2.25 2.09 2.69 .98 1.25 2.87 3.72 2.16 2.75 1.31 1.70 1.16 1.49 5.50-4.36 1.11 1.20 1.43 1.60 1.01 .05 1.07-.48 1.07-.54 1.07-.60 1.07-.66 1.06-.70 1.17-.80 1.14-.84 1.12-.84 1.09-.88 3.75-3.07 1.64-1.28-1.09-1.20 1.54-2.42 .49-1.17-.07-2.27-.33-3.41-2.28-1.03-1.64-1.57-3.09-2.93-.93-1.03 1.50-2.83-2.01-1.84-1.82-1.59 3.82-4.11 3.32 1.06 1.34 .67 2.52 1.24 1.48-2.80 .97-1.77 1.17-2.16 .96-1.75 1.19-2.22-1.88-1.32-1.45-1.03-1.29-1.72 1.51-.98-.28-2.42 2.76-1.93 1.81-1.27 1.17-.81 1.98-2.67-2.16-1.43-1.74-.83-1.28-.61-1.06-.50-1.42-.70-2.01-.96-1.48-.71-1.94-.93-1.95-.93-1.66-.80-1.69-.81-2.21-1.05L2024.96 1870.73l-4.88-2.13-2.01-.88-2.08-.91-2.03-.89-2.44-1.05-1.67-3.53 .72-2.63-.70-2.03-.40-1.68-.48-1.48-2.47 .93-1.62 .62-1.58 .57-2.42 .88-2.90 1.06-2.08 .79-1.90 .70-1.64 .60-1.64 .70-3.59 1.51-7.49 1.97-1.49 .47-8.03 2.59-2.27 .72-2.38 .76-4.23 .33-1.78 .74-1.05 .54-5.88 1.43-6.22 .94-2.23 .31-4.03 1.03 .73 1.19 3.40 5.43 2.48 3.81"/>
<path id="H7A5k8bJ" d="M1804.91 2044.01l 1.46-1.73 1.62-1.89-1.46-.92-1.40-.92-1.49-1.16-1.31-1.07-1.03-.87-4.09-3.46-1.42-1.19-.94 1.10-.96 1.12-4.15-3.51-1.67-2.64-2.16-2.08-1.11-.83-1.95-1.67-1.59-1.10-2.16-2.70-3.21-4.01-3.41-4.27-1.33-1.66-5.70-1.53-1.76-.82 1.38-1.60-.54-2.35-.53-2.33 .81-1.74 .57-1.21 .56-1.19 .82-1.71-5.68-2.70-1.27-.59-1.31-.55-6.43-3.00-.74 1.56-.50 1.07-.49 1.05-.49 1.01-.49 1.03-.74 1.56-.75 1.58-.97 2.03-.73 1.54-.74 1.56-.49 1.03-.50 1.05-.49 1.03-.98 2.07-.50 1.03-.94 2.00-1.11 2.29-6.39-1.84-3.35-1.46-1.16-.58-1.18-.59-1.18-.59-1.19-.59-1.18-.59-2.51-1.20-3.42-1.78-2.51-1.24-3.25-1.60-1.16 .58-1.65 1.61-1.62 1.57-1.60 1.57-1.42 1.38-1.60 1.59-1.45 1.69-1.51 1.75-1.48 1.70-1.03 1.19-1.51 1.48 3.36 2.98 2.01 1.78 1.57 1.39 1.12 .01 1.66 .01 12.43 10.27 8.64 7.47 1.08 .92 1.12 .86 1.17 .82 1.06 .68 1.07 .62 1.10 .59 1.11 .53 1.15 .51 1.15 .45 1.18 .41 11.95 4.05 3.45 1.19 1.03 .45 1.09 .62 1.01 .74 1.04 .15 1.55 1.31 8.05 6.90L1770.48 2062.80l 1.01 .23 3.64 .25 1.04 .03 1.02 .15 1.02 .21 1.12 .37 1.08 .47 1.03 .56 1.07 .72 2.23 1.81 1.10-1.33 1.07-1.23 1.43-1.66 2.02-2.37 1.18-1.39 1.44-1.71 1.88-2.20 1.11-1.31 1.48-1.71 1.14-1.31 1.11-1.29 1.05-1.23 .89-1.04 1.00-1.19 1.13-1.29 1.13-1.31"/>
<path id="H7A5k8bI" d="M1552.61 2556.29l-.64-2.05-.31-1.01-2.21-2.26-1.27-1.30 .18-1.88 .42-4.49-6.48-.67 .37-3.43 1.14-10.16-2.15-1.83-2.02-3.19-.91-1.80-.94-1.52 1.61-1.20-1.93-2.91-1.74-2.48-1.81-2.56-1.50-2.12-1.22-1.78-.99-1.32-1.43-1.94-.96-1.29-.98-1.33-.97-1.29-1.96-2.65-2.21-2.79-1.17-1.48-.82-3.87-2.36-5.86-.85-1.62-10.53 5.35-5.49 2.01 1.28 3.20 2.60 7.03 1.06 1.20 .90 2.87 .28 1.17 .41 1.38 1.30 2.21 1.59 1.95 .71 1.09 .89 1.33-1.17 .53-3.51 1.81-3.09 1.61-4.03 2.10-4.74 16.75-.63 2.65 3.94-1.32 2.92-.98 11.75-4.21 4.26 5.74 1.32 1.92 2.43 3.51 .51 1.06 .80 1.84 .58 1.18 3.60 8.29 3.19 5.62 1.68-.59 2.15-1.79 1.44 .87 1.53 .94 1.11 .95 1.84 .25 2.28 .10 4.46-.59 1.34-.34 3.62-1.31 1.35-.17 .21-2.83"/>
<path id="H7A5k8bH" d="M2309.02 2659.31l 11.13 .36 8.17-1.68 1.98-2.45-1.08-2.72-4.20-8.93-1.15-2.42-1.43-3.02-1.34-2.84-1.27-2.70-.84-1.78-1.69-3.11-5.84 .13-1.84 .18-8.11 .83-2.54 .26-6.29 .69-.26-4.16-.65-11.85 .06-3.42-2.31-.13-5.66-.05-5.70-.09-3.00-.01-5.71-.07-5.71-.05-2.93-.05-5.72-.05-5.66-.09-3.00-.03-6.06-.06-1.04-.01-5.34-.06-4.59 .12-.25 3.12-1.22 11.25-.37 3.41-.94 8.70-.56 5.12-.56 5.10-.58 5.40-.44 6.17 .47 18.03 3.28 .17 15.48 .41-.12 7.48 2.12 2.35 25.38 .70 8.48-.15 7.50 .24 4.06 .12 3.06 .11 3.05 .09 5.32 .15 4.24 .01 1.27-.81 .75-1.08 .34-1.10 .22-6.24-5.06-.20 .83-2.84 3.11-14.11 .78-2.35"/>
<path id="H7A5k8bG" d="M2260.14 2989.89l .16 1.43 1.13 .84 2.00 .91 2.15 .54 1.80-.01 1.24-.16 3.22-.20 1.74-.09 1.84-.12 2.26-.25 1.41-.14 1.77-.13 1.73-.13 2.53-.28 1.21-.16 2.70-.24 2.90-.04 1.78-.09 4.08-.20 .19 1.17 1.72 .24 1.58 .14 1.63 0 1.41-.02 1.70-.13 2.53-.32 1.33-.13 1.11-.15 1.51-.26 1.09-.22 .25-2.68-.43-1.53-.40-3.59 .32-1.65 1.48-.34 2.00 .55 2.91 .79 2.24 1.33 1.30 .28 1.00 .20 2.62 .26 1.70 .17 1.94 .19 1.33 .28 1.32 .13 2.43 .31 1.11 .14-.16-1.80-.12-1.19-.24-2.26-.93-1.41-.63-1.01-.63-1.05-.77-1.29-.88-1.35-.95-1.43-.17 1.89-1.33-.49-1.80-.68-2.01-2.17-2.06-2.27-2.92-2.59 1.91-2.45 1.34-1.72 1.52-1.97-1.40-1.42 1.51-2.42 2.74-.42-.13-1.99-1.15-1.79 5.60-.07 1.20-.02-.56-2.89-.77-1.48 .51-1.67-1.28-1.46-.73-1.30-2.48 .27-2.22-1.29-1.93-1.39-1.14-1.31-3.65-1.90-3.43-1.78-2.19-1.15-3.01-3.03-1.96 1.61-.95 1.12-1.05-1.25-1.34-.81-1.79 3.00-3.85 5.00-1.56 1.93-1.03 1.25-1.31 1.66-1.49 1.85-1.92 1.19-1.32 1.25-1.01 .94L2289.58 2952.67l-2.92-3.10-4.62 4.51-1.16 1.57-1.00 1.33 1.20 1.07 1.81 1.29-1.28 1.66-1.04 1.33-1.77 2.18-1.47 1.83-1.83 1.31-2.25 .62-1.80 1.69-1.27 1.23-1.24 1.21-2.38 2.24-2.19 1.87-2.07 2.80-.21 1.06-.61 3.58-.36 1.91-.69 2.35-.29 1.67"/>
<path id="H7A5k8bF" d="M2332.03 1438.67l 3.05 10.38 36.46-6.27-2.14-14.13-10.26 1.82-9.36 1.59-3.08 .68-2.07 .73-1.73 .62-3.73 1.61-7.12 2.98"/>
<path id="H7A5k8bE" d="M2260.93 1515.22l 2.87 14.96 24.95-1.18 2.11 4.63 6.26-.28 6.46-.15 2.59-.15 15.07-.20 5.48-.09-1.45-16.46-2.86-.59-7.02-.30-5.98-.03-2.74-0-23.37-.10-21.88-.06"/>
<path id="H7A5k8bD" d="M1984.32 1819.86l .94-9.81-7.12-.74-1.34 1.84-1.27 .57-4.07 1.74 1.25 2.78-10.15 4.62-15.13 1.31-1.21-1.58-1.20-1.56-1.17-1.54-3.71 2.68-2.32 1.69-3.26 2.36 .91 1.23 1.60 2.18 1.66 2.26 1.31 1.82 2.51 3.83 3.75 5.40-1.82 1.27-1.18 .84 .05 1.17-1.18 1.86 1.11 1.54 3.04 4.28 1.57 2.36 5.22 11.87 4.65 .02 2.21-.55 3.64-1.26-.68-1.40 5.12-2.36 1.05-.50 3.87-1.78-1.13-2.44-.72-1.52-.70-1.54-1.20-2.60-1.05-2.16-1.01-2.05-.54-1.36-1.10-2.19-2.38-4.62 1.73-.86 3.92 .27 5.66-2.62-.91-1.87-.48-1.04-.64-1.38-1.02-2.14 3.36-1.24 1.14-.44 1.68-.72 2.09-1.00 1.52-.75 1.90-.95 2.32-1.12-1.07-2.09"/>
<path id="H7A5k8bC" d="M1920.08 1729.34l .21 5.23 .29 3.81 .27 2.90 2.68-.18 1.85-.12 3.04-.21 2.08-.14 2.09-.13 3.17-.20 2.67-.18 2.80-.23 3.28-.34 3.25-.30 3.66-.27 3.89 .15 1.80 .09 3.00 .13 2.03-.83 2.30-.21 2.19-.21-.09-1.46 1.69 .07 2.79 .10 .55 1.89 1.11 3.69 .54 1.79 1.38-.40 2.64-.79 .81 2.73 .79 2.71 .42 1.38 .32 1.08 .48 1.63 .39 1.35 .82 2.75 2.55-.76 .42 1.38 .39 1.33 .41 1.38 .43 1.36 .52 1.55 .28 1.14 .65 2.29 1.43 .41 4.09 .24 9.24-1.17 1.06 .06 1.09 .21 5.75 1.85 1.08 .34 .42-1.31 .97-2.50 .57-1.70 .66-1.97 .55-1.67 .41-1.27-.22-1.61-.17-1.41-.17-1.43-.18-1.43-.55-4.21-.18-1.43 .04-1.00-.13-1.07-.27-2.14-.40-1.41-.39-3.11-.18-1.41-.18-1.41-.17-1.39-.18-1.41-1.64 .21-.20-1.49-.20-1.51-1.03-1.57-.13-1.07-.13-1.13 2.30-.05 2.08-.02 2.18 .02 2.24 .06 1.22 .06 1.61 .09 1.62 .11 2.55 .25 1.57 .17 3.57 .52 1.16 .19 2.37 .51-.49-4.30-1.38-4.53-6.21-19.20-4.37-6.04-7.74-6.58-1.57-1.32-.60-1.09 4.60-6.89 .81-1.19L2016.04 1674.75l 12.26-3.95-5.13-15.83 1.78-.58-1.41-4.36-4.06 1.34-15.00 4.86-5.20 8.80-4.73 5.53-1.23 .40-6.52-5.48-3.44-2.93-1.28-1.10-4.86-2.12-1.43 .13-4.07 .90-7.67 1.75-10.36 1.18-1.38 1.62-3.02 3.51-1.53 1.78-2.89 3.36-1.19 1.38-1.58 1.80-1.64 1.92-1.09 1.28-.95 1.11-.98 1.14-1.79 2.09-2.62 3.06-1.13 1.32-1.05 1.23-1.85 2.16-1.66 1.93-5.72 6.67-9.16 5.44 1.89 2.72 4.53 7.46 .59 6.29 .63 6.78"/>
<path id="H7A5k8bB" d="M1855.16 1697.47l 6.67-3.10 1.89-.89 2.66-3.95 1.61 1.03 3.06-4.79 3.77 2.46 2.19-1.02 4.92-7.56 4.82 3.15 .96-1.32 3.46-5.35-2.28-1.47-3.40-2.20-3.08-1.99-2.40-1.55-2.67-1.72-3.25-2.09-2.91-1.86-2.82-1.80-3.49 5.15-.94 1.41-3.68-2.32-9.11 14.07-4.40 6.79 8.41 10.92"/>
<path id="H7A5k8bA" d="M1633.21 1730.56l .90-3.21 2.43-4.89-2.85-4.77-1.64-2.76-.92-1.55-.94-1.55-1.09-1.83-1.16-1.95-1.16-1.95-1.06-1.81-.77-1.25-1.26-2.09-.98-1.65-1.32-2.19-1.18-1.97-1.18-1.97-1.11-1.87-1.04-1.71-1.11-1.87-2.76-4.67-4.48-8.63-1.24 .48-1.02 .42-4.18 1.63-2.47 .97-2.95 1.16-7.34 2.23 1.13 3.63-2.70 11.74-.55 3.93-.22 1.63-.22 1.54-.24 1.77-.27 1.97 .39 4.38-.66 1.88-.58 1.62-.88 2.48-1.91 5.36 1.87 .53 1.94 .53 2.67 .32 8.45 1.00 1.62 .21 1.06 .11 5.54 .70 .56 1.60 6.10 .77 1.65-.64 1.98 .22 1.18 .11 2.26 .26 3.18 .37 1.09 .13 1.23 .14 1.83 .21 1.72 .21 2.05 .22 2.65 .32"/>
<path id="H7A5k8bz" d="M1552.79 1586.69l 1.37-1.10 2.23-1.79 1.57-1.00-.61-1.58-.91-1.63-2.19-3.92-3.98 2.39-1.36 .79-2.17 .21-1.47 1.10-1.48 1.10-1.50 1.12-1.45 1.08-1.83 1.39-1.69 1.25-2.70 2.05-1.59 1.20-1.57 1.20-1.60 1.20-1.58 1.20-1.98 1.48-2.43 1.82 1.82 1.83 1.58 .82 1.23 .65 1.66 .84 1.64 .86 1.76 .90 1.85-1.21 1.08-.90 1.45-1.20 1.07-.86 1.59-1.32 1.63-1.35 1.23-1.01 1.95-1.58 1.66-1.37 1.34-1.11 2.94-2.36 1.44-1.20"/>
<path id="H7A5k8by" d="M1517.31 1387.09l 1.32 4.79 2.62 4.57 2.06 3.91 .71 1.10 3.81 6.40 7.53 12.57 3.77 7.78 9.65 15.76 2.98-.58 32.94 9.26 7.32 2.09 3.35 1.87 21.39 14.96 23.03 16.31 2.70 2.06 2.37 1.53 1.65 1.19 25.20-40.56-20.76-6.07-5.15-1.75 3.27-11.01 4.29-20.77 3.30 .76 8.09 1.67 1.78 .17 .52-5.12 1.22-5.83 7.36 .46 1.10-10.45 .21-4.34 17.19-1.48 2.82-1.10 3.33-2.35-.24-4.04-5.24-1.25-3.94-.94-10.35-1.96-5.87-.98-4.17-.40-9.12-.27-5.08-.06-8.84-.39-12.47 .02-11.56-.09-16.20-.39-22.11-.76-32.60 .21-6.47 .55-5.48 .81-2.28 .45-5.11 1.84-2.67 1.14-5.16 2.77-1.23 .74-3.60 2.49-3.20 2.68"/>
<path id="H7A5k8bx" d="M1529.58 1563.85l 3.55-.78-3.40-1.96-3.04-.90-1.81-.53-2.11-.62-1.89-.55-1.96-.57-1.96-.57-1.94-.57-1.81-.41-2.41-.51-2.96-.27-7.67-1.99-1.46-.32-1.84-.39-1.44-.30-2.07-.44-1.61-.35-2.95-.42-1.75-.25-1.75-.25-1.74-.25-1.77-.25-3.16-.43-3.16-.47-6.12-.85-1.56-.22-2.66-.22-1.72-.15-2.25-.19-1.08-.09-3.68-.31-2.92-.24-1.21-.10-2.93-.24-2.28-.19-3.13-.19-1.77-.09-1.57-.11-1.86-.12-2.53-.15-3.94-.20-1.86-.11-2.72-.16-1.35 8.33-1.53 3.22 .42 14.20-.05 2.55-2.54-.27-11.67-1.73-3.92-.59-6.00-.94-1.13 3.70-1.09 3.25-1.72 6.73-.24 3.40 28.13 2.77-1.19 19.31-30.04-1.89-.08 2.92-.87 20.36-.20 5.90-0 5.07 .44 2.84 .53 3.95 .61 2.95 1.10 4.79 1.27 4.72 1.81 4.50 1.41-.63 3.43 6.35 2.75-.13 3.56-.19 2.73-.13 2.67-.14 2.57-.14 2.45-.12-.52 10.81 .61 2.56-.16 7.38 4.21 4.19 3.19 2.31 4.87-5.62 19.10-21.89-.59-6.48 4.10-18.91 .73-2.90 .11-2.69-5.30-.31 .62-12.09 3.73 .23 10.06-11.57 2.44 2.60 3.56 2.39 3.85 1.07 2.32-1.30-4.44-8.03-1.86-3.39L1475.07 1601.57l 2.50-3.15 5.85-6.76 1.93-2.21 1.87-2.16 1.10-1.29 .90-1.81 3.32 1.63 2.73-4.15 3.79-4.51 6.19-7.32 3.57-1.49 2.04-.45 1.91-.42 1.75-.38 1.99-.45 2.00-.43 2.01-.45 1.96-.42 2.10-.43 1.92-.42 3.08-.66"/>
<path id="H7A5k8bw" d="M1295.16 1666.58l-1.08 29.09 3.10 2.09 9.92-1.95 3.85-1.28 10.43-4.65 3.61-2.38 2.97-2.32 3.20-2.73 4.02-3.67 2.14-1.73 2.72-2.96 3.30-3.28 2.08-2.17 3.50-3.28-.97-4.02 1.37-2.25 3.14-3.05 7.33-7.39 1.23-1.44 3.39-4.30 3.02-4.00 3.24-4.67 1.70-2.87 .98-1.67 2.83-6.10 1.95-6.32 .51-3.56 1.32-9.36 .19-3.73 .20-4.64 .12-2.80 .13-3.00 .15-3.31 1.00-17.46 .30-4.75 .17-2.84 .28-4.18 .62-6.12-2.28-.05-8.32 .36-13.30-2.20-2.25-.44-3.49-.56-2.83-.48-1.56-.24-1.81-.29-2.32-.29-2.47-.27-2.30-.27-1.77-.19-2.31-.27-2.07-.08-3.02-.49-2.77-.30-1.68-.19-8.17-.94-1.51-.17-2.74-.30-2.75-.32-3.19-.35-6.73-.81-2.01 4.37-.83 21.67 3.08 .05-.36 9.89-3.02 .64-.96 26.05-.12 3.95-.99 26.72-.07 2.65-.70 19.72-.16 4.15-.17 4.36"/>
<path id="H7A5k8bv" d="M1219.70 1733.77l .35-2.95-1.54-.62-2.72-2.24-.43-1.73-1.73 .40-1.65 .40-2.19 .53-1.79 .42-1.88 .46-1.76 .42-2.05 .49-2.00 .47-1.97 .47-2.06 .49-1.99 .47-4.26 1.02-1.96 .47-1.21 .28-1.16 .28-1.69 .40-1.38 .33-1.39 .33-1.85 .44-1.23 .30-1.57 .39-2.13 .51-2.45 .60-3.06 .74-3.55 .11-1.97 .18-2.10 .17-2.12 .15-2.13 .15-2.15-.01-2.36-.07-2.15-.15-1.86-.15-1.81-.15-1.42-.12-3.57-.58-1.82-.19-1.64-.39-1.76-.41-1.94-.43-1.84-.41-1.93-.59-1.88-.69-1.97-.63-2.00-.69-2.04-.73-1.86-.94-1.85-1.10-1.85-1.10-1.69-1.06-1.40-.91-1.38-.89-1.48-.97-2.00-1.30-1.51 .94 1.20 5.86 .33 1.65 .52 2.57 1.38 1.19 3.02 2.64 1.55 1.35 1.54 1.19 1.66 1.24 1.71 1.27 1.51 1.12-2.47 2.62-3.73 3.81-2.60 2.67 2.10 1.68-6.14 5.46 2.63 2.83 2.14 1.81-1.23 1.17-.99 1.14 6.55 3.15-1.85 2.08-2.90 3.41-4.11 4.85 8.11 4.47-5.32 12.32 9.60 4.19 2.82-6.12 2.54 .78 8.01 3.67 4.60-10.80 2.02 .84 2.39-4.79 .50-2.73 5.70 2.42 2.32 1.48 2.99 1.43 12.13 1.93 3.85-3.82 5.00-5.76L1178.05 1779.26l 3.87-5.24 6.55-8.93 5.46-.27 2.79 .02 1.97 .04 1.80 .07 1.62 .05 2.00 .02 1.97 .18 2.17 .12 1.62 .19 1.61 .19 1.77 .29 2.31 .41 .59-2.23 .22-1.81 .20-1.77 .19-1.81 .18-1.75 .20-1.67 .21-1.67 .22-1.93 .20-1.75 .22-1.77 .25-2.14 .24-2.11 .26-2.12 .20-1.81 .30-2.40 .23-1.93 .24-1.93"/>
<path id="H7A5k8bu" d="M1146.02 1589.95l 4.38-10.15 .65-1.43 .59-1.31 1.25-2.74 .69-1.53 1.91-4.17 .52-1.15 .84-1.85 .96-2.09 .89-1.95 2.23-4.84-10.32-6.85-16.71-6.31-5.64 6.92-19.25 25.60-2.52 3.28-1.24-.93-10.18-7.40-14.02-10.14-6.50-4.70-5.64 7.70-5.76 7.90-.95 14.92-.25 3.36-.53 7.78-1.85 25.83 2.94 1.68 3.58 1.71-3.32 3.81-1.89 4.70 3.99 7.62 16.17 8.18 10.23 4.36 4.39 1.61 15.77 1.47 3.52 .36 12.97 1.24 2.45 .23 .47-2.93 .30-1.95 .27-1.75 .28-1.77 .34-2.23 .28-1.75 .28-1.74 .39-2.57 .40-2.50 .30-1.92 .28-1.73 .30-1.91 .31-1.94 .26-1.64 .54-3.34 .33-2.08 .28-1.77 .25-1.65 .26-1.66 .27-1.66 .24-1.64 .28-1.76 .28-1.76 .28-1.83 .29-1.84 .30-1.81 .29-1.87 .19-1.21 .51-3.26 2.50-4.78 .75-1.43 3.36-7.04"/>
<path id="H7A5k8bt" d="M952.86 1631.86l-3.91-1.42-.67 1.89-.62 1.75 1.19 .03 1.04 .02 2.11-0 2.07-0 1.19-0 1.64-0 3.66 .09 1.29 .01 1.93 .02 1.86 .02 3.42 .04 1.17 .01 2.71 .03 1.15 .02 2.06 .02 1.65 .02 1.17 .02 9.50 2.01 2.32 .47 2.28 .46 1.34 .27 2.33-.47 1.08 1.53 6.66 1.95 1.73 .53 1.21 .37 1.23 .42 1.83 .55 2.75 .78 2.61 .85 .39-1.19 .31-1.25 .59-2.36 .85-3.46 3.71 .95 .91-5.28-1.53-.39-1.75-.43-1.53-.39-1.45-.37-1.45-.32-.91 1.03-3.38-.70-4.51-3.02 1.69-2.70-.14-2.66-.13-2.62-.13-2.50-.12-2.52-1.92 .10-2.09 .10-.25-4.74-.37-6.96-.09-1.21-.11-2.10-.10-3.64-3.25-.47-2.29-.35-1.59-.24-2.31-.35 .01-1.84 .01-1.40 .01-1.34 .01-2.23 .02-2.87 .01-1.33 .02-2.84 .01-1.97-1.46-1.51-1.33-1.38-1.37-1.42-1.45-1.48-1.57-1.66-1.00-1.05-1.28-1.36-4.32 4.32-1.88 1.91-2.31 2.35-1.19 1.21-1.57 1.60-1.23 1.26-1.20 1.22-1.38 1.41-1.17 1.19-1.26 1.28-1.98 2.01-1.77 1.77-3.28 1.78 1.54 4.90-1.58-.21-1.89 2.84-1.47 2.22-1.49 2.24-1.25 1.89 4.04 3.61L959.46 1608.43l 1.00 2.73 .38 1.04 1.06 2.88 .85 3.08 .36 1.34-3.29 1.38-2.41 .64-1.31 .35 .01 1.91 0 1.31 .02 3.14 .11 3.57-2.17 .04-1.22 .02"/>
<path id="H7A5k8bs" d="M1195.82 495.09l .04-1.28-.05-1.09-.04-1.03-.16-1.57-.12-1.29-.10-1.07-.48-2.17-.26-1.19-.65-2.01-.60-1.86-.52-1.62-.50-1.59-.36-1.10-.36-1.16-.42-1.32-.52-1.62-.48-1.49-.45-1.42-.79-1.05-5.32 1.66-2.62 .83-1.50 .47-2.51 .67-1.62 .19-1.47 .19-4.00 .49-1.10 .12-5.16 .26-4.55-.31-2.62-.38-2.84-.42-2.99-.35-2.91-.35-2.51-.33-1.58-.19-1.20-.16-2.68-.20-1.25-.16-.16 1.14-.24 1.65-.16 1.12-.15 1.04-.16 1.18-.24 1.67-.17 1.18-.12 1.68 0 1.92 .01 2.01-0 1.27-.01 1.14-0 2.15-.01 1.98-.01 1.22-0 1.37 0 1.11-0 1.30-.01 1.01-.01 1.38 6.00 .73-.10 4.62-.03 1.32 1.23 1.05 2.05 1.72 1.14 .78 1.60 1.10 1.73 1.04 1.11 .69 1.06 .57 3.04 1.61 1.52 .64 1.58 .70 1.16 .21 1.78 .34 1.13-.15 1.46 .46 1.65 .56 1.82 .47 1.47 .40 1.27 .33 1.29 .28 1.05 .21 1.41 .75 3.18 .51 2.40 .22 2.12 .17 3.89-.07 .06-1.00 .07-1.00 .18-2.62 .07-1.03 .13-1.83 4.86-.39 .17-1.87 .10-1.18 .19-2.21 .17-2.11 .08-1.07 .13-1.48L1192.49 500.58l .14-1.65 2.87-.11 .11-1.13 .13-1.34 .09-1.26"/>
<path id="H7A5k8br" d="M1174.30 1023.67l 1.13-2.51 .84-1.85-2.90-3.51-1.93-2.33-1.45-1.70-1.59-1.93-2.11-2.51-2.65-3.14-2.77-3.09-2.04-2.22-1.85-2.09-3.10-4.78-.97-1.51-.86-1.33-1.12-1.73-1.88-2.88-1.98-3.04-.78-1.21-7.46-11.49-3.96-6.03-3.48-5.36-2.87-4.43-2.13-3.25-6.21-9.51-2.46-3.83-1.73-2.68-.65-1.01-.69-1.38-.49-1.34-2.06-5.50-.83-2.20-.46-1.24-.69-1.86-.77-2.02-1.03-2.78-1.05-2.82-.59-1.34-6.35-10.69-1.58-2.63-2.89-3.92-4.37 2.65-2.60 1.86-1.62 1.16-1.04 .74-4.20 3.11-2.91 2.01-5.93 4.78-6.04 4.83-1.69 1.37 1.75 1.46 1.55 1.29 1.90 1.66 1.24 1.07 1.37 1.19 1.44 1.25 1.82 1.63 1.18 1.08 1.87 1.68 2.23 2.04 1.54 1.47 2.53 2.41 1.55 1.51 4.95 4.91 1.04 1.02 .97 1.02 .97 1.02 1.00 1.04 .99 1.02 1.49 1.57 1.44 1.51 2.93 3.17 1.85 2.03 .96 1.08 3.50 4.02 3.70 4.36 3.95 4.96 2.69 3.36 2.80 3.72 1.23 1.62 1.12 1.54 1.17 1.60 .95 1.35 1.69 2.38 1.37 1.94 1.29 1.94 3.80 5.65 2.11 3.30 1.66 2.58 1.63 2.66 1.67 2.84 .86 1.47 1.65 2.86 1.28 2.33 1.26 2.31 1.44 2.71 1.30 2.51 .79 1.60 1.72 3.61L1153.74 1026.24l 1.09 2.38 1.07 2.48 .95 2.18 1.03 2.52 .52 1.26 .51 1.24 .71 1.94 1.18 3.28 .78 1.05 1.01 .53 1.08 .05 1.06-.50 .87-1.75 .37-1.05 .39-1.04 .48-1.17 1.00-2.12 .65-1.38 .95-2.05 2.19-4.70 .93-2.01 .97-2.08 .77-1.64"/>
<path id="H7A5k8bq" d="M1252.28 1218.79l-.48-2.07-.48-2.07-.39-1.75-.41-1.73-.48-2.09-.86-2.02-.58-1.38-.49-1.14-.64-2.71-.84-2.08-1.05-2.58-.62-1.54-1.39-3.40-.04-1.24-1.43-3.38-4.90 2.09-2.94 1.26-13.28 5.64-2.49 1.08-7.49 3.19-.52-2.67-2.64-6.20-2.30 .90-2.99 1.18-2.03 .81-2.02 .79-2.04 .81-1.79 .70-1.80 .72 .07 1.96 .12 3.40 .87 2.05 3.72 2.71 2.66 1.15 1.42 .62 1.40 .59 1.39 .59 1.37 .59 1.41 .60 1.13 .49 1.51 .64 2.42 1.04 2.10 .91 1.99 .85 1.74 .74 1.91 .83 2.42 1.04 1.59 .68 1.53 .66 1.63 .70 1.55 .66 1.64 .70 3.64 1.57 1.49 .64 7.59 3.27 3.81 1.64 3.67 .41 4.36-1.33-.82-2.39-.94-2.91-.98-4.20"/>
<path id="H7A5k8bp" d="M816.15 1242.97l 2.20-.09 1.03-.07 .20-1.04-3.56-2.07-1.17-.71-1.45-.86-3.08-1.81-2.24-1.32-2.19-1.31-2.22-1.29-1.72-1.02-1.73-1.02-2.44-1.44-2.80-1.65-2.79-1.65-1.94-1.14-1.94-1.15-1.91-1.12-2.14-1.27-2.99-2.25-1.73-1.63-7.77-4.59 .08 3.04-.03 2.35-.06 4.44-1.17 .04 .34 3.15 .31 2.83 .18 1.84 .19 1.94 .11 1.17 .27 2.85-.10 1.60 1.54-.07 .08 1.39 1.70-.03 1.68 1.89 .04 1.03 .10 1.88 2.55 .69 3.22-.14 2.26-.11 3.17-.12 1.67-.09 1.40-.05 1.60-.07 1.36-.06 1.70-.06 1.34-.06 1.64-.07 1.33-.06 1.34-.06 1.34-.06 1.33-.06 1.33-.06 1.32-.06 1.29-.06 1.32-.06 1.34-.06 1.34-.06 1.33-.06 1.29-.04 1.32-.06"/>
<path id="H7A5k8bo" d="M842.83 1241.23l-8.07-4.71-2.60-1.53-2.91-1.69-1.72-1.02-3.91-2.25-1.56-.92-1.52-.90-1.39-.83-4.58 7.80 34.01 20.76 1.26-2.27 .73-1.20 2.88-4.85-2.53-1.48-2.83-1.65-1.12-.65-4.13-2.61"/>
<path id="H7A5k8bn" d="M852.97 1257.75l 1.78-.09 7.04-5.12 13.39-11.20 3.04 .99 4.02 1.15 92.12 1.98 18.21 .36 27.76 .55 6.40 .11 8.00 .17 1.46-19.22-.04-1.42-.36-6.12-.34-3.57-.72-5.84-5.22 .44 .20 1.94 .24 3.09 .21 2.20 .18 1.47-.20 1.34 .14 1.35 .18 1.35 .17 1.27 .17 1.35 .18 1.35 .18 1.33 .18 1.29-.03 1.32-.03 1.48-.16 1.44 .33 1.55 .32 1.61 .23 1.11-.52 1.07-.12 2.25-1.34 .67-1.61-.07-1.52-.07-6.49-.18-1.63-1.18-1.32 1.78-1.19 .58-2.40-.80-2.76-1.52-2.54-1.40-2.12-.78-4.79-.52 .08-2.25-2.92-.19-2.19-.14-2.47-.12-.02 1.42-.19 3.78-1.20-.05-2.45-.17-1.43 .02-3.58 .05-1.86 .02-.35-1.58-.17-1.56-1.68-.58-1.57 .15-1.23 .16-1.81 .30-2.70 .37-.17-1.03-.18-1.15-.17-1.01-.28-1.63-.79-3.80-8.41 .17 .11 4.61 .70 2.66 .02 1.09-.08 1.48-3.06 2.38-2.76 .05-2.80-.46-.31-2.22-2.98 .54-2.56-.57-.36-1.89-2.53 .20-3.43-.85-2.84-.01-.61-2.63-.56-2.43-1.05 .24-1.71 .38-1.76 .40-2.35 .54-2.73 .27-1.62 .37-1.14 .26-1.75-1.30-1.14-1.40-.83-1.21L922.20 1227.16l-1.02-2.01-.95-1.85-3.03-2.35-3.78-2.55-1.75-1.84-2.85-2.93-1.76-1.80-1.75 1.57-2.09 1.85-1.28 1.09-2.28-2.56-1.46-.10-.77 1.60-1.74 3.23-1.81 3.38-1.02 1.89-1.01 1.87-1.38 2.58-1.39 2.59-2.95 5.46-3.52-2.10-6.99-3.73-.66-3.04-.30-1.35-2.11-1.59-3.45-1.13-2.01-.66-3.09-1.05-6.41-3.14-2.64-.85-3.12 2.99-2.63 2.53 2.69 2.83 1.41 1.47 1.41 1.49 1.30 1.36 1.62 1.28 1.75 1.38 2.07 1.47-8.03 13.19-2.73 4.68-.76 1.28-1.03 1.74 4.09 2.45"/>
<path id="H7A5k8bm" d="M781.92 1247.16l-1.86 10.86 22.46 9.63 15.34 6.28 16.13 6.76 2.06 .83 10.86 4.32 11.43 4.56 6.45 2.53 19.64 7.87 3.91 1.59 24.30 9.70 6.20 2.48 5.89 2.73 10.80 4.00 2.38 .96 6.37 2.59 2.84 1.15 2.50 1.00 2.64 .65 13.43 3.37 2.97 .74 1.76 .43 2.41 .61 6.76 1.67 1.53 .38 1.53 .36 2.47 .63 2.03 .50 3.31 .81 13.88 3.47 3.48 1.02 3.03-1.57 3.80-2.22 4.15-2.60 1.04-1.39-.46-1.12-1.03-.49-3.85-1.32-10.43-3.58 2.83-2.44 2.01-1.26 2.47-1.74 3.46-2.78 2.09-1.87 2.67-2.65 1.53-1.67 1.94-2.31 3.47-4.81 3.02-5.18 1.34-2.76 .98-2.16 1.05-3.35 1.93-7.81 .43-2.71 .42-5.34 .03-4.15-.03-2.00-.02-2.41-.05-3.54-.05-4.07-.04-3.91-.03-3.54-8.91-.23-6.39-.13-28.04-.52-13.60-.29-2.65-.06-29.13-.59-11.29-.23-14.84-.31-40.68-.81-6.18-.13-4.18 3.21-3.60 2.46-11.18 8.11-4.47-3.46-24.33-14.30-4.87-.41-18.65 .79-3.49 .19-16.98 .78"/>
<path id="H7A5k8bl" d="M1249.57 1354.77l .36-9.12-14.61-.77-8.61-.46 .13-2.59 2.32-46.44 .15-4.10 .50-7.93 .02-1.35-.67-4.05-.33-1.45-.47-1.26-2.71-4.29-1.15-1.67-1.11-1.22-2.78-.22-6.97 1.33-4.07 .09-1.73-.19-1.75-.33-12.37-2.94-4.46-.99-3.16-.59-1.38-.24-2.22-.29-5.02-.15-1.61-.11-2.90-.17-1.78 4.28-1.68 14.49-12.41 32.82-.24 23.57 .77 9.74-1.19 3.99-6.82 25.58-2.89 8.53-3.95 8.65-1.07 2.24-1.04 2.30-1.09 1.94-1.37 3.08-.92 2.05-.87 1.95-.85 1.93-.95 2.12-1.06 2.38-.97 2.18-1.05 2.36-.94 2.12-2.66 6.18-1.10 2.47-1.12 2.55-.85 1.93-.83 1.87-.83 2.13-.88 2.07-1.42 2.56-6.90 15.08-4.17 12.04-.68 1.16-7.97 21.30 1.02 1.59 22.62 1.18 34.58 1.76 3.12 .15 1.52 .09 1.50 .09 1.57 .09 1.53 .07 1.45 .06 3.21 .18 21.99 1.14 2.40 .15 2.66 .14 2.38 .13 3.41 .18 3.66 .11 14.56 .76 .71-10.79-.07-3.42 16.64 .80 1.67-18.17 1.58-41.38 .28-5.09 1.55-13.38 .38-10.08-.26-10.31 .15-2.78 .19-3.81 .09-1.76 .11-2.92 1.11-4.02 .71-14.06 .36-4.87"/>
<path id="H7A5k8bk" d="M1519.41 559.01l-.36-1.71-.36-1.71-.36-1.71-.36-1.69-.37-1.73-.36-1.69-.36-1.73-.35-1.65-.37-1.73-.36-1.69-.49-2.33-2.57-12.19-.35-1.45-.53-1.58-.86-1.98-.92-1.67-1.05-1.69-1.58-1.98-5.82-6.95-1.39-1.66-2.50 1.82-1.33 .95-1.14-1.77-1.23-1.48-1.99-2.37-1.06 .54-1.28 .63-1.28 .65-1.31 .67-1.31 .67-.05 1.54 .32 2.16 .24 1.61 .47 2.09-1.30 .45 .37 2.12 .28 1.59 .30 1.71 .29 1.73 .28 1.69 .23 1.33 .22 1.27 .18 1.09 .89 5.12 .39 2.27 .39 2.28 .39 2.22 .52 3.08-.36 2.36 .22 1.05 .22 1.05 .20 1.01 .22 1.05 .29 1.43 .40 1.95 .22 1.03 .22 1.08 .22 1.05 .22 1.03 .30 1.51 .39 1.87 .22 1.03 .42 2.05 .22 1.07 .45 2.21 3.75-1.11 2.65-.77 3.73-1.07 3.99-1.16 2.74-.81 3.78-1.09 4.39-1.29 .09-1.70"/>
<path id="H7A5k8bj" d="M1475.65 940.04l 11.54-7.42-.90-7.58-.88-7.26-1.82-15.09-8.88-1.40-6.36-1.00-3.24 .51-3.60-1.60-4.90-.78 .51 3.45 3.81 20.66 1.08 6.49 .93 5.48 4.14-2.61 2.61-1.38 .63 1.19 5.33 8.34"/>
<path id="H7A5k8bi" d="M1247.77 1015.22l-1.58-3.19-1.60-3.35-3.58-7.50-1.03-2.09-2.79-5.77-1.14-2.37-.92-1.90-3.56 1.69-1.40-3.32-1.40-2.83-2.32-5.53-7.73 5.73-2.39 1.03-.50-1.04-5.55 2.62-.38 1.11 1.75 3.63-16.58 7.66-4.58 1.97-3.37 .15 .02 1.57 .23 4.06 .17 4.21 .07 1.86 .05 1.62 .06 1.60 .09 2.04 .13 2.73 .22 4.87 8.41 13.34 2.56 3.87 1.96 3.00 1.98 3.02 .77 1.17 .87 1.33 .87 1.33 1.33 2.03 4.97-1.92 3.31-1.46 2.69-1.17 3.00-1.33 5.67-2.50 2.88-1.27 3.26-1.44 3.24-1.57 6.54 13.56 20.68-10.32-1.65-3.31-1.59-3.19-.91-1.81-1.20-2.43-1.20-2.43-2.13-4.27-.93-1.91-.93-1.84-.92-1.85-.90-1.82-.86-1.70-1.33-2.69-.84-1.70"/>
<path id="H7A5k8bh" d="M1891.63 1079.27l-.94 5.15-.85 2.67 1.68 .54 10.35 4.41 1.52 .48 1.74 3.24 2.01 2.83 2.68 1.48 4.69-4.87-1.12 4.31 1.87 1.09 1.95 1.02-1.06 1.99 3.83 1.37-.52 1.11 6.73 2.65 .48-1.53 6.16 .54 1.75-.13 1.80 .76 4.67 1.64 1.01 .16 1.46 .37-3.38-6.48-1.35-2.50-1.40-1.37-4.30-3.66-1.67-1.45-2.49-1.70-3.40-1.84-4.16-2.06-3.50-1.49-5.62-2.06-5.19-1.98-5.00-2.02-4.02-1.56-6.42-1.10"/>
<path id="H7A5k8bg" d="M1839.07 989.80l-35.41 6.29-1.02 17.20-.78 14.16-1.91 32.62-1.13 13.58 .15 5.91-.72 10.41-.49 9.67-.75 13.61-.83 10.88-.02 2.80 .82 1.11 6.35 6.01 8.61-11.89 4.39-6.25 5.18-5.72 1.96 1.51 24.65 19.58 3.01-2.87 1.43-1.68 2.35-3.29 1.53-1.67 1.34-1.98 .09-2.13-.70-1.86-2.99-9.61-10.30-10.78-3.16-2.82 24.35-23.38-25.24-79.05"/>
<path id="H7A5k8bf" d="M2193.65 1078.74l-2.73 5.82-13.29 28.29-8.59 18.25-8.06-2.77-9.35 19.83 3.25 1.37 11.59 5.58 15.05 7.28 9.78 4.81 1.29 .20 9.58 1.60 18.69 3.21 1.64 .01 1.76 .07 18.34 .18 6.65 .09 .23-17.41 .23-25.65-2.76-.53-.65-28.86 20.07-.62-10.58-23.05-37.20 1.35-16.61 .64-8.32 .31"/>
<path id="H7A5k8be" d="M2111.72 1133.73l-18.16 9.17-3.25 1.57-2.35-4.25-6.93 3.51-9.21 4.45-5.66 2.15-1.17 .22-3.53 8.14 2.10 3.75 .99 5.62 1.02 6.63 9.07 3.99 .14-8.37 .17-2.28 2.14-.02 15.14-.19 4.23 1.09 4.26 1.08 3.90 1.01 2.74 .20 16.90 1.97 4.50 .52-2.04 2.42-2.70 3.01-9.74 10.54-7.95 8.64-3.75-3.27-8.59 9.15-1.79 2.16-3.63 9.02 31.73 12.98 3.99-7.71 10.90 6.01 12.39 12.47 5.78-6.85 2.60-3.83-.70-2.81-.47-3.61-.25-2.18 .03-4.09 .08-3.46 .83-5.33 1.14-4.65 1.15-3.21 1.28-3.20 1.41-2.80 3.44-5.97 7.72-11.31 5.94-8.72 1.16-1.92-10.59-5.19-14.73-7.05-16.46-7.54-25.21-11.68"/>
<path id="H7A5k8bd" d="M2192.53 1263.83l-10.15 7.47-1.54-2.44-7.11 4.67 1.87 2.39 9.02 10.36 1.28 1.74 .90 1.53 2.49 3.91 1.95 1.99 2.94 2.97 7.59 8.46 5.67 4.43 4.70 2.85 5.10 3.21 4.72-7.49-.49-3.08 6.24-11.22-6.48-2.66-3.77-.82-2.63-2.01-4.93-4.21-4.26-3.70-1.89-2.05-3.96-4.44-7.26-11.85"/>
<path id="H7A5k8bc" d="M1494.89 1299.48l .61 5.81 1.32 5.55 3.12 13.39 1.86 6.14 2.87 5.76 2.66 4.05 3.09 3.65 3.36 4.37 3.00 2.52 2.34 1.24 .93 1.15 2.87 2.24 9.10 5.31 5.11 2.60 5.15 1.75 10.49 2.13 28.46 .73 4.10-.25 15.92 .38 11.85-.08 25.95 .20 15.94-.04 7.03 .43 10.18-.59 11.57-.23 7.66-1.10 10.82-2.52 13.06-5.38 8.80-4.86 8.27-5.88 7.48-7.17 6.51-7.63 4.21-6.32 1.87-4.15 10.19-25.24 1.30-4.19 1.51-2.32-45.13-10.45 11.24-50.88-1.53-.34-5.56 1.45-8.43 2.61-19.32 6.83-45.35 15.64-17.60 6.06-10.72 3.63-16.87 5.66-8.99 2.32-3.85 1.11-5.26 1.19-7.56 1.67-11.82 2.77-4.14 1.24-15.94 3.71-5.70 1.33-10.97 2.52-14.96 3.62-.50 1.67-3.99 1.10-17.65 4.08"/>
<path id="H7A5k8bb" d="M2269.94 1422.63l .83 2.57 7.27 23.07 .65 2.22 3.51-.85 10.17-2.39 18.53-4.26-7.06-12.94-3.02-5.84-1.93-3.82-2.87-6.17-26.08 8.40"/>
</defs>
<style type="text/css" id="gwmstyles"><![CDATA[
.GWMLine
{
stroke:#000000;
fill:none;
opacity:0;
stroke-width:1px;
pointer-events:visiblePainted;}
.GWMLine-H-
{
stroke:#000000;
fill:none;
opacity:0;
stroke-width:1px;
pointer-events:none;}
.GWMLine-S-
{
stroke:#000000;
fill:none;
opacity:0;
stroke-width:1px;
pointer-events:none;}
.GWMFill
{
stroke:#000000;
fill:#ff0000;
opacity:0;
stroke-width:1px;
pointer-events:visiblePainted;}
.GWMFill-H-
{
stroke:#000000;
fill:#000000;
opacity:0;
stroke-width:1px;
pointer-events:none;}
.GWMFill-S-
{
stroke:#000000;
fill:#000000;
opacity:0;
stroke-width:1px;
pointer-events:none;}
.H7A5k8b
{
stroke:#3399ff;
fill:none;
stroke-width:1.33333px;
stroke-linecap:round;
stroke-linejoin:round;
pointer-events:visiblePainted}
.H7A5k8b-H-
{
stroke:#00ffff;
fill:none;
stroke-opacity:0.501961;
stroke-width:1.33333px;
stroke-linecap:round;
stroke-linejoin:round;
pointer-events:none;}
.H7A5k8b-S-
{
stroke:#00ff00;
fill:none;
stroke-opacity:0.501961;
stroke-width:1.33333px;
stroke-linecap:round;
stroke-linejoin:round;
pointer-events:none;}
.H7A5k8a
{
fill:url(#_H7A5k8a);
stroke:none;
pointer-events:visible}
.H7A5k8a-H-
{
fill:url(#_P9-H-);
stroke:none;
fill-opacity:0.501961;
pointer-events:none;}
.H7A5k8a-S-
{
fill:url(#_P9-S-);
stroke:none;
fill-opacity:0.501961;
pointer-events:none;}
]]></style>
<mask id="gwmmask">
<rect id="gwmmaskrect" x="0" y="0" width="2800" height="3200" style="fill:white;"/>
</mask>
<g id="_GWMAll" gmwmsvg:typ="a" mask="url(#gwmmask)">
<metadata><gmwmsvg:metadata id="_GWMMetadata" gmwmsvg:storageoffsetx="337845.770000000020000" gmwmsvg:storageoffsety="5684998.889999999700000" gmwmsvg:storagetoreadoutscale="1.000000000000000" gmwmsvg:readoutoffsetx="0.000000000000000" gmwmsvg:readoutoffsety="0.000000000000000" gmwmsvg:readoutunit="m" gmwmsvg:storagetodistancescale="1.000000000000000" gmwmsvg:distanceunit="m" gmwmsvg:displaytostoragescale="0.177553665595426" gmwmsvg:rotationangle="0.000000000000000" gmwmsvg:version="2.0"/></metadata>

<g id="10" gmwmsvg:typ="l">
<use xlink:href="#H7A5k8bb" id="H7A5k8bb.0" class="H7A5k8a"/>
<use xlink:href="#H7A5k8bb" id="H7A5k8bb.1" class="H7A5k8b"/>
<use xlink:href="#H7A5k8bc" id="H7A5k8bc.0" class="H7A5k8a"/>
<use xlink:href="#H7A5k8bc" id="H7A5k8bc.1" class="H7A5k8b"/>
<use xlink:href="#H7A5k8bd" id="H7A5k8bd.0" class="H7A5k8a"/>
<use xlink:href="#H7A5k8bd" id="H7A5k8bd.1" class="H7A5k8b"/>
<use xlink:href="#H7A5k8be" id="H7A5k8be.0" class="H7A5k8a"/>
<use xlink:href="#H7A5k8be" id="H7A5k8be.1" class="H7A5k8b"/>
<use xlink:href="#H7A5k8bf" id="H7A5k8bf.0" class="H7A5k8a"/>
<use xlink:href="#H7A5k8bf" id="H7A5k8bf.1" class="H7A5k8b"/>
<use xlink:href="#H7A5k8bg" id="H7A5k8bg.0" class="H7A5k8a"/>
<use xlink:href="#H7A5k8bg" id="H7A5k8bg.1" class="H7A5k8b"/>
<use xlink:href="#H7A5k8bh" id="H7A5k8bh.0" class="H7A5k8a"/>
<use xlink:href="#H7A5k8bh" id="H7A5k8bh.1" class="H7A5k8b"/>
<use xlink:href="#H7A5k8bi" id="H7A5k8bi.0" class="H7A5k8a"/>
<use xlink:href="#H7A5k8bi" id="H7A5k8bi.1" class="H7A5k8b"/>
<use xlink:href="#H7A5k8bj" id="H7A5k8bj.0" class="H7A5k8a"/>
<use xlink:href="#H7A5k8bj" id="H7A5k8bj.1" class="H7A5k8b"/>
<use xlink:href="#H7A5k8bk" id="H7A5k8bk.0" class="H7A5k8a"/>
<use xlink:href="#H7A5k8bk" id="H7A5k8bk.1" class="H7A5k8b"/>
<use xlink:href="#H7A5k8bl" id="H7A5k8bl.0" class="H7A5k8a"/>
<use xlink:href="#H7A5k8bl" id="H7A5k8bl.1" class="H7A5k8b"/>
<use xlink:href="#H7A5k8bm" id="H7A5k8bm.0" class="H7A5k8a"/>
<use xlink:href="#H7A5k8bm" id="H7A5k8bm.1" class="H7A5k8b"/>
<use xlink:href="#H7A5k8bn" id="H7A5k8bn.0" class="H7A5k8a"/>
<use xlink:href="#H7A5k8bn" id="H7A5k8bn.1" class="H7A5k8b"/>
<use xlink:href="#H7A5k8bo" id="H7A5k8bo.0" class="H7A5k8a"/>
<use xlink:href="#H7A5k8bo" id="H7A5k8bo.1" class="H7A5k8b"/>
<use xlink:href="#H7A5k8bp" id="H7A5k8bp.0" class="H7A5k8a"/>
<use xlink:href="#H7A5k8bp" id="H7A5k8bp.1" class="H7A5k8b"/>
<use xlink:href="#H7A5k8bq" id="H7A5k8bq.0" class="H7A5k8a"/>
<use xlink:href="#H7A5k8bq" id="H7A5k8bq.1" class="H7A5k8b"/>
<use xlink:href="#H7A5k8br" id="H7A5k8br.0" class="H7A5k8a"/>
<use xlink:href="#H7A5k8br" id="H7A5k8br.1" class="H7A5k8b"/>
<use xlink:href="#H7A5k8bs" id="H7A5k8bs.0" class="H7A5k8a"/>
<use xlink:href="#H7A5k8bs" id="H7A5k8bs.1" class="H7A5k8b"/>
<use xlink:href="#H7A5k8bt" id="H7A5k8bt.0" class="H7A5k8a"/>
<use xlink:href="#H7A5k8bt" id="H7A5k8bt.1" class="H7A5k8b"/>
<use xlink:href="#H7A5k8bu" id="H7A5k8bu.0" class="H7A5k8a"/>
<use xlink:href="#H7A5k8bu" id="H7A5k8bu.1" class="H7A5k8b"/>
<use xlink:href="#H7A5k8bv" id="H7A5k8bv.0" class="H7A5k8a"/>
<use xlink:href="#H7A5k8bv" id="H7A5k8bv.1" class="H7A5k8b"/>
<use xlink:href="#H7A5k8bw" id="H7A5k8bw.0" class="H7A5k8a"/>
<use xlink:href="#H7A5k8bw" id="H7A5k8bw.1" class="H7A5k8b"/>
<use xlink:href="#H7A5k8bx" id="H7A5k8bx.0" class="H7A5k8a"/>
<use xlink:href="#H7A5k8bx" id="H7A5k8bx.1" class="H7A5k8b"/>
<use xlink:href="#H7A5k8by" id="H7A5k8by.0" class="H7A5k8a"/>
<use xlink:href="#H7A5k8by" id="H7A5k8by.1" class="H7A5k8b"/>
<use xlink:href="#H7A5k8bz" id="H7A5k8bz.0" class="H7A5k8a"/>
<use xlink:href="#H7A5k8bz" id="H7A5k8bz.1" class="H7A5k8b"/>
<use xlink:href="#H7A5k8bA" id="H7A5k8bA.0" class="H7A5k8a"/>
<use xlink:href="#H7A5k8bA" id="H7A5k8bA.1" class="H7A5k8b"/>
<use xlink:href="#H7A5k8bB" id="H7A5k8bB.0" class="H7A5k8a"/>
<use xlink:href="#H7A5k8bB" id="H7A5k8bB.1" class="H7A5k8b"/>
<use xlink:href="#H7A5k8bC" id="H7A5k8bC.0" class="H7A5k8a"/>
<use xlink:href="#H7A5k8bC" id="H7A5k8bC.1" class="H7A5k8b"/>
<use xlink:href="#H7A5k8bD" id="H7A5k8bD.0" class="H7A5k8a"/>
<use xlink:href="#H7A5k8bD" id="H7A5k8bD.1" class="H7A5k8b"/>
<use xlink:href="#H7A5k8bE" id="H7A5k8bE.0" class="H7A5k8a"/>
<use xlink:href="#H7A5k8bE" id="H7A5k8bE.1" class="H7A5k8b"/>
<use xlink:href="#H7A5k8bF" id="H7A5k8bF.0" class="H7A5k8a"/>
<use xlink:href="#H7A5k8bF" id="H7A5k8bF.1" class="H7A5k8b"/>
<use xlink:href="#H7A5k8bG" id="H7A5k8bG.0" class="H7A5k8a"/>
<use xlink:href="#H7A5k8bG" id="H7A5k8bG.1" class="H7A5k8b"/>
<use xlink:href="#H7A5k8bH" id="H7A5k8bH.0" class="H7A5k8a"/>
<use xlink:href="#H7A5k8bH" id="H7A5k8bH.1" class="H7A5k8b"/>
<use xlink:href="#H7A5k8bI" id="H7A5k8bI.0" class="H7A5k8a"/>
<use xlink:href="#H7A5k8bI" id="H7A5k8bI.1" class="H7A5k8b"/>
<use xlink:href="#H7A5k8bJ" id="H7A5k8bJ.0" class="H7A5k8a"/>
<use xlink:href="#H7A5k8bJ" id="H7A5k8bJ.1" class="H7A5k8b"/>
<use xlink:href="#H7A5k8bK" id="H7A5k8bK.0" class="H7A5k8a"/>
<use xlink:href="#H7A5k8bK" id="H7A5k8bK.1" class="H7A5k8b"/>
<use xlink:href="#H7A5k8bL" id="H7A5k8bL.0" class="H7A5k8a"/>
<use xlink:href="#H7A5k8bL" id="H7A5k8bL.1" class="H7A5k8b"/>
<use xlink:href="#H7A5k8bM" id="H7A5k8bM.0" class="H7A5k8a"/>
<use xlink:href="#H7A5k8bM" id="H7A5k8bM.1" class="H7A5k8b"/>
</g>
</g>
</svg>
